<svg width="24" height="24" viewBox="0 0 24 24" fill="none" xmlns="http://www.w3.org/2000/svg">
<path d="M11.5024 10.5C12.6024 10.5 13.5024 9.6 13.5024 8.5C13.5024 7.4 12.6024 6.5 11.5024 6.5C10.4024 6.5 9.50242 7.4 9.50242 8.5C9.50242 9.6 10.4024 10.5 11.5024 10.5ZM11.5024 7C12.3024 7 12.9024 7.6 12.9024 8.4C12.9024 9.2 12.3024 9.8 11.5024 9.8C10.7024 9.8 10.1024 9.2 10.1024 8.4C10.1024 7.7 10.7024 7 11.5024 7Z"/>
<path d="M11.5024 18.7L15.9024 12.4C17.6024 10.2 17.3024 6.6 15.4024 4.6C14.3024 3.6 12.9024 3 11.5024 3C10.0024 3 8.60242 3.6 7.60242 4.6C5.60242 6.5 5.40242 10.2 7.10242 12.4L11.5024 18.7ZM8.00242 5C8.90242 4.1 10.2024 3.6 11.5024 3.6C12.8024 3.6 14.1024 4.1 15.0024 5C16.7024 6.7 17.0024 10 15.5024 12L11.6024 17.7L7.50242 12C6.00242 10 6.20242 6.8 8.00242 5Z"/>
<path d="M15.0024 16.1C14.8024 16.1 14.7024 16.2 14.7024 16.4C14.7024 16.6 14.8024 16.7 15.0024 16.7C18.0024 17.1 19.6024 18 19.6024 18.6C19.6024 19.4 16.5024 20.5 11.6024 20.5C6.60242 20.5 3.50242 19.4 3.50242 18.6C3.50242 18 5.10242 17.1 8.10242 16.7C8.30242 16.7 8.40242 16.5 8.40242 16.4C8.40242 16.2 8.20242 16.1 8.10242 16.1C5.10242 16.5 3.00242 17.5 3.00242 18.5C2.90242 19.8 5.90242 21 11.5024 21C17.2024 21 20.1024 19.8 20.1024 18.6C20.1024 17.5 18.0024 16.5 15.0024 16.1Z"/>
</svg>
