<svg width="24" height="24" viewBox="0 0 24 24" fill="none" xmlns="http://www.w3.org/2000/svg">
<g clip-path="url(#clip0)">
<path d="M7.54286 21.4743C16.5714 21.4743 21.6 13.9315 21.6 7.41721C21.6 7.18864 21.6 6.96006 21.6 6.73149C22.5143 6.04578 23.4286 5.24578 24 4.21721C23.0857 4.67435 22.1714 4.90292 21.1429 5.01721C22.1714 4.44578 22.9714 3.41721 23.3143 2.27435C22.4 2.84578 21.2571 3.30292 20.2286 3.53149C18.4 1.58863 15.2 1.47435 13.2571 3.30292C12 4.56006 11.4286 6.27435 11.8857 7.98864C7.88571 7.76006 4.22857 5.93149 1.71429 2.84578C0.457143 5.13149 1.02857 7.98864 3.2 9.47435C2.4 9.47435 1.6 9.24578 0.914286 8.90292C0.914286 8.90292 0.914286 8.90292 0.914286 9.01721C0.914286 11.4172 2.62857 13.3601 4.91429 13.8172C4.22857 14.0458 3.42857 14.0458 2.62857 13.9315C3.31429 15.9886 5.14286 17.3601 7.2 17.3601C5.6 18.6172 3.42857 19.3029 1.14286 19.3029C0.8 19.3029 0.342857 19.3029 0 19.1886C2.28571 20.6744 4.91429 21.4743 7.54286 21.4743Z"/>
</g>
<defs>
<clipPath id="clip0">
<rect width="24" height="24" fill="white"/>
</clipPath>
</defs>
</svg>
