<svg width="24" height="24" viewBox="0 0 24 24" fill="none" xmlns="http://www.w3.org/2000/svg">
<path d="M20.1 6H3.9C3.4 6 3 6.4 3 6.9V12.9C3 13.4 3.4 13.8 3.9 13.8H20.1C20.6 13.8 21 13.4 21 12.9V6.9C21 6.4 20.6 6 20.1 6ZM20.4 12.9C20.4 13.1 20.3 13.2 20.1 13.2H3.9C3.7 13.2 3.6 13.1 3.6 12.9V6.9C3.6 6.7 3.75 6.6 3.9 6.6H20.1C20.3 6.6 20.4 6.7 20.4 6.9V12.9Z" fill="#808080"/>
<path d="M10.8 8.70001H13.2C13.4 8.70001 13.5 8.60001 13.5 8.40001C13.5 8.20001 13.4 8.10001 13.2 8.10001H10.8C10.6 8.10001 10.5 8.20001 10.5 8.40001C10.5 8.60001 10.6 8.70001 10.8 8.70001Z" fill="#808080"/>
<path d="M19.5 12H4.50001C4.30001 12 4.20001 12.1 4.20001 12.3C4.20001 12.5 4.30001 12.6 4.50001 12.6H19.5C19.7 12.6 19.8 12.5 19.8 12.3C19.8 12.1 19.7 12 19.5 12Z" fill="#808080"/>
<path d="M19.5 10.8H4.50001C4.30001 10.8 4.20001 10.9 4.20001 11.1C4.20001 11.3 4.30001 11.4 4.50001 11.4H19.5C19.7 11.4 19.8 11.3 19.8 11.1C19.8 10.9 19.7 10.8 19.5 10.8Z" fill="#808080"/>
<path d="M12.15 15.95C11.85 15.8 11.7 15.6 11.7 15.45C11.7 15.3 11.9 15.1 12.1 14.95C12.25 14.9 12.3 14.7 12.2 14.55C12.15 14.4 11.95 14.35 11.8 14.45C11.3 14.7 11.05 15.1 11.05 15.45C11.05 15.85 11.3 16.2 11.8 16.5C12.1 16.65 12.25 16.85 12.25 17C12.25 17.15 12.05 17.35 11.8 17.5C11.65 17.55 11.6 17.75 11.7 17.9C11.75 18 11.85 18.05 11.95 18.05C12 18.05 12.05 18.05 12.1 18C12.6 17.75 12.85 17.35 12.85 17C12.9 16.55 12.65 16.15 12.15 15.95Z" fill="#808080"/>
<path d="M8.85 16.55C8.55 16.4 8.4 16.2 8.4 16.05C8.4 15.9 8.6 15.7 8.8 15.55C8.95 15.5 9 15.3 8.9 15.15C8.85 15 8.65 14.95 8.5 15.05C8 15.3 7.75 15.7 7.75 16.05C7.75 16.45 8 16.8 8.5 17.1C8.8 17.25 8.95 17.45 8.95 17.6C8.95 17.75 8.75 17.95 8.5 18.1C8.35 18.15 8.3 18.35 8.4 18.5C8.45 18.6 8.55 18.65 8.65 18.65C8.7 18.65 8.75 18.65 8.8 18.6C9.3 18.35 9.55 17.95 9.55 17.6C9.6 17.15 9.35 16.75 8.85 16.55Z" fill="#808080"/>
<path d="M15.45 16.55C15.15 16.4 15 16.2 15 16.05C15 15.9 15.2 15.7 15.4 15.55C15.55 15.5 15.6 15.3 15.5 15.15C15.45 15 15.25 14.95 15.1 15.05C14.6 15.3 14.35 15.7 14.35 16.05C14.35 16.45 14.6 16.8 15.1 17.1C15.4 17.25 15.55 17.45 15.55 17.6C15.55 17.75 15.35 17.95 15.1 18.1C14.95 18.15 14.9 18.35 15 18.5C15.05 18.6 15.15 18.65 15.25 18.65C15.3 18.65 15.35 18.65 15.4 18.6C15.9 18.35 16.15 17.95 16.15 17.6C16.2 17.15 15.95 16.75 15.45 16.55Z" fill="#808080"/>
</svg>
