<svg fill="none" height="24" viewBox="0 0 24 24" width="24" xmlns="http://www.w3.org/2000/svg"><g fill="#000" stroke="#000" stroke-miterlimit="10" stroke-width=".7"><path d="m12.2994 11.3495c.7999 0 1.4498-.65 1.4498-1.44988 0-.79992-.6499-1.44986-1.4498-1.44986s-1.4499.64994-1.4499 1.44986c0 .79988.65 1.44988 1.4499 1.44988zm0-2.49978c.5499 0 1.0499.44996 1.0499 1.0499 0 .54998-.45 1.04988-1.0499 1.04988-.55 0-1.0499-.4499-1.0499-1.04988.05-.59994.4999-1.0499 1.0499-1.0499z"/><path d="m12.2994 17.3489 3.1997-4.5996c1.1999-1.5998 1.0499-4.19955-.35-5.59941-.7499-.74993-1.7498-1.14989-2.7997-1.14989s-2.0498.39996-2.79973 1.14989c-1.39987 1.39986-1.54985 3.99961-.39997 5.59941zm-2.54975-9.94904c.69995-.64993 1.54985-1.04989 2.54975-1.04989.9499 0 1.8498.34996 2.5498 1.04989 1.2498 1.24988 1.3998 3.64964.3499 5.09954l-2.8497 4.1496-2.94972-4.1996c-1.0499-1.4499-.89991-3.79966.34997-5.04954z"/><path d="m14.8491 15.4491c-.0999 0-.1999.05-.2499.2 0 .1.05.1999.1999.2499 2.1998.25 3.3497.9499 3.3497 1.3499 0 .55-2.1998 1.3499-5.8494 1.3499-3.59966 0-5.84944-.7999-5.84944-1.3499 0-.4 1.14988-1.0999 3.34967-1.3499.09999 0 .19998-.1.19998-.2499 0-.1-.09999-.2-.24997-.2-2.19979.25-3.74964.9999-3.74964 1.7498 0 .8999 2.14979 1.7498 6.2494 1.7498 4.0996 0 6.2494-.8999 6.2494-1.7498.05-.7999-1.4499-1.4998-3.6497-1.7498z"/></g></svg>