<svg width="24" height="24" viewBox="0 0 24 24" fill="none" xmlns="http://www.w3.org/2000/svg">
<path d="M8.1 6.3H5.55C5.05 6.3 4.6 6.7 4.6 7.25V9.8C4.6 10.3 5 10.75 5.55 10.75H8.1C8.6 10.75 9.05 10.35 9.05 9.8V7.2C9.05 6.7 8.6 6.3 8.1 6.3ZM8.45 9.75C8.45 9.95 8.3 10.1 8.1 10.1H5.55C5.35 10.1 5.2 9.95 5.2 9.75V7.2C5.2 7 5.35 6.85 5.55 6.85H8.1C8.3 6.85 8.45 7 8.45 7.2V9.75Z" fill="#808080"/>
<path d="M20.55 17.8C18.95 17.8 17.55 16.15 16.15 14.4C14.5 12.4 12.8 10.3 10.3 10.15V7.2C10.3 6 9.3 5 8.1 5H5.55C4.3 5 3.3 6 3.3 7.2V19.05C3.15 19.05 3 19.2 3 19.35C3 19.5 3.15 19.65 3.3 19.65H5.2C5.35 19.65 5.5 19.5 5.5 19.35C5.5 19.2 5.35 19.05 5.2 19.05V12.35C5.2 12.15 5.35 12 5.55 12H8.1C8.3 12 8.45 12.15 8.45 12.35V19.1C8.3 19.1 8.15 19.25 8.15 19.4C8.15 19.55 8.3 19.7 8.45 19.7H10.35C10.5 19.7 10.65 19.55 10.65 19.4C10.65 19.25 10.5 19.1 10.35 19.1V12C11.15 12.1 11.9 12.55 12.65 13.2V19.05H12.3C12.15 19.05 12 19.2 12 19.35C12 19.5 12.15 19.65 12.3 19.65H13.6C13.75 19.65 13.9 19.5 13.9 19.35C13.9 19.2 13.75 19.05 13.6 19.05H13.25V13.8C13.75 14.35 14.25 14.95 14.75 15.55C15.1 16 15.45 16.45 15.85 16.85V19.05H15.5C15.35 19.05 15.2 19.2 15.2 19.35C15.2 19.5 15.35 19.65 15.5 19.65H16.8C16.95 19.65 17.1 19.5 17.1 19.35C17.1 19.2 16.95 19.05 16.8 19.05H16.45V17.5C17.65 18.7 18.95 19.65 20.65 19.65C21.15 19.65 21.6 19.25 21.6 18.7C21.5 18.2 21.1 17.8 20.55 17.8ZM9.05 19.05V12.35C9.05 11.85 8.65 11.4 8.1 11.4H5.55C5.05 11.4 4.6 11.8 4.6 12.35V19.1H3.9V7.2C3.9 6.3 4.65 5.6 5.5 5.6H8.05C8.95 5.6 9.65 6.35 9.65 7.2V19.05H9.05ZM20.55 19.05C18.3 19.05 16.7 17.05 15.15 15.15C13.65 13.3 12.2 11.55 10.3 11.4V10.7C12.55 10.85 14.15 12.8 15.7 14.7C17.25 16.55 18.65 18.35 20.55 18.35C20.75 18.35 20.9 18.5 20.9 18.7C20.9 18.9 20.75 19.05 20.55 19.05Z" fill="#808080"/>
</svg>
