<svg fill="none" height="24" viewBox="0 0 24 24" width="24" xmlns="http://www.w3.org/2000/svg"><g><path d="m0 16c0-2.6667 0-5.3333 0-8v-.13333c0-.93334.133333-1.86667.266667-2.8.533333-2 1.733333-3.46667 3.733333-4.400003 1.06667-.4 2.13333-.533334 3.33333-.666667h.66667 7.8667.2666c.9334 0 1.8667.133333 2.8.266667 2 .533333 3.4667 1.733333 4.4 3.600003.4 1.06666.5334 2.13333.6667 3.33333v.8 7.8667.2666c0 .9334-.1333 1.8667-.2667 2.8-.5333 2-1.7333 3.4667-3.6 4.4-1.0666.4-2.1333.5334-3.3333.6667-.2667 0-.5333 0-.8 0-2.6667 0-5.3333 0-7.86667 0-.13333 0-.13333 0-.26666 0-.93334 0-1.86667-.1333-2.8-.2667-2-.5333-3.46667-1.7333-4.400003-3.6-.4-1.0666-.533334-2.1333-.666667-3.3333 0-.4 0-.5333 0-.8zm21.8667-4c0-1.0667 0-2 0-2.93333 0-.93334 0-1.86667-.1334-2.8-.1333-.93334-.4-1.73334-1.0666-2.4-.8-.93334-2-1.33334-3.2-1.46667-1.4667-.13333-2.8-.26667-4.2667-.26667s-2.8 0-4.26667 0c-.93333 0-1.86666 0-2.8.13334-.8.13333-1.73333.53333-2.4 1.06666-.93333.93334-1.33333 2-1.46666 3.2 0 1.46667-.13334 2.8-.13334 4.26667v4.2667c0 .9333 0 1.8666.13334 2.8.13333.9333.4 1.7333 1.06666 2.4.8.9333 2 1.3333 3.2 1.4666 1.46667 0 2.8.1334 4.26667.1334h4.2667c1.0666 0 2.1333 0 3.0666-.2667 1.7334-.2667 2.9334-1.3333 3.3334-3.0667.1333-.5333.2666-1.2.2666-1.7333.1334-1.6.1334-3.2.1334-4.8z"/><g clip-rule="evenodd" fill-rule="evenodd"><path d="m18.1333 12c0 3.4667-2.8 6.1333-6.1333 6.1333-3.33335 0-6.13335-2.8-6.13335-6.1333 0-3.46668 2.8-6.13335 6.13335-6.13335 3.4667 0 6.1333 2.66667 6.1333 6.13335zm-6.1333 4c2.1333 0 4-1.7333 4-4 0-2.26668-1.7333-4.00001-4-4.00001-2.13335 0-4.00001 1.73333-4.00001 4.00001 0 2.1333 1.73333 4 4.00001 4z"/><path d="m18.4 4.13335c.8 0 1.4667.66666 1.4667 1.46666s-.6667 1.46667-1.4667 1.46667-1.4667-.66667-1.4667-1.46667.6667-1.46666 1.4667-1.46666z"/></g></g></svg>