<svg width="24" height="24" viewBox="0 0 24 24" fill="none" xmlns="http://www.w3.org/2000/svg">
<g clip-path="url(#clip0)">
<path d="M21.8696 8.80144L11.9565 0L2.13043 8.80144C1.95652 8.88448 1.95652 9.13357 2.13043 9.29964C2.21739 9.4657 2.47826 9.4657 2.65217 9.29964L3.78261 8.30325V17.0217H9.26087H14.7391H20.2174V8.30325L21.3478 9.29964C21.4348 9.38267 21.5217 9.38267 21.6087 9.38267C21.6957 9.38267 21.7826 9.38267 21.8696 9.29964C22.0435 9.13357 22.0435 8.96751 21.8696 8.80144ZM19.6087 16.3574H14.7391H9.26087H4.3913V7.63899L11.9565 0.913357L19.5217 7.63899V16.3574H19.6087Z" fill="#808080" stroke="#808080" stroke-width="0.5" stroke-miterlimit="10"/>
<path d="M3.78262 21.3394H20.2174" stroke="#808080" stroke-width="1.3" stroke-miterlimit="10" stroke-linecap="round" stroke-linejoin="round"/>
<path d="M20.2174 19.6787V23" stroke="#808080" stroke-width="1.3" stroke-miterlimit="10" stroke-linecap="round" stroke-linejoin="round"/>
<path d="M3.78261 19.6787V23" stroke="#808080" stroke-width="1.3" stroke-miterlimit="10" stroke-linecap="round" stroke-linejoin="round"/>
</g>
<defs>
<clipPath id="clip0">
<rect width="24" height="24" fill="white"/>
</clipPath>
</defs>
</svg>
