<svg width="24" height="24" viewBox="0 0 24 24" fill="none" xmlns="http://www.w3.org/2000/svg">
<path d="M19.85 5.85C19.3 5.85 18.9 6.2 18.75 6.7H18.15V6.15C18.15 5.5 17.65 5 17 5H7.95C7.35 5 6.85 5.45 6.85 5.95V6.7H6.25C6.1 6.2 5.7 5.85 5.15 5.85C4.5 5.85 4 6.35 4 7C4 7.6 4.5 8.15 5.15 8.15C5.7 8.15 6.1 7.8 6.25 7.3H6.85V16.1V17.8C6.85 18.3 7.2 18.65 7.7 18.65H15.65C16.15 18.65 16.5 18.3 16.5 17.8V17.5H17.35C17.85 17.5 18.2 17.15 18.2 16.65V7.25H18.8C18.95 7.75 19.35 8.1 19.9 8.1C20.5 8.1 21 7.6 21 7C21 6.35 20.5 5.85 19.85 5.85ZM5.15 7.55C4.8 7.55 4.55 7.3 4.55 7C4.55 6.7 4.8 6.45 5.1 6.45C5.4 6.45 5.65 6.7 5.65 7C5.7 7.3 5.45 7.55 5.15 7.55ZM17.6 6.15V6.7H16.45V6.15C16.45 5.9 16.7 5.6 17 5.6C17.35 5.55 17.6 5.8 17.6 6.15ZM7.4 5.95C7.4 5.7 7.65 5.55 7.95 5.55H16.05C15.95 5.7 15.9 5.9 15.9 6.05V6.1V15.75H7.4V5.95ZM15.9 17.75C15.9 17.9 15.8 18.05 15.6 18.05H7.7C7.55 18.05 7.4 17.95 7.4 17.75V16.35H15.9V17.2V17.75ZM17.6 16.6C17.6 16.75 17.5 16.9 17.3 16.9H16.45V16.05V7.25H17.6V16.6ZM19.85 7.55C19.55 7.55 19.3 7.3 19.3 7C19.3 6.7 19.55 6.45 19.85 6.45C20.15 6.45 20.4 6.7 20.4 7C20.45 7.3 20.2 7.55 19.85 7.55Z" fill="#808080"/>
</svg>
