<svg width="24" height="24" viewBox="0 0 24 24" fill="none" xmlns="http://www.w3.org/2000/svg">
<path d="M18.435 9.75044C16.6347 7.95015 14.2843 7 11.7339 7C9.23352 7 6.83314 8.00016 5.03285 9.75044C4.98284 9.85045 4.98284 10.0005 5.08286 10.1005C5.18287 10.2005 5.3329 10.2005 5.43291 10.1005C7.13318 8.40022 9.38354 7.45007 11.7839 7.45007C14.1843 7.45007 16.4347 8.40022 18.1349 10.0505C18.1849 10.1005 18.235 10.1005 18.285 10.1005C18.335 10.1005 18.385 10.1005 18.435 10.0505C18.535 10.0005 18.535 9.85045 18.435 9.75044Z" fill="#808080" stroke="#808080" stroke-width="0.5" stroke-miterlimit="10"/>
<path d="M6.53309 11.2007C6.43307 11.3007 6.43307 11.4507 6.53309 11.5507C6.5831 11.6007 6.6331 11.6007 6.68311 11.6007C6.73312 11.6007 6.83314 11.6007 6.83314 11.5507C9.58358 8.8503 13.9343 8.8503 16.6347 11.5507C16.7347 11.6507 16.8847 11.6507 16.9848 11.5507C17.0848 11.4507 17.0848 11.3007 16.9848 11.2007C14.0843 8.30021 9.43355 8.30021 6.53309 11.2007Z" fill="#808080" stroke="#808080" stroke-width="0.5" stroke-miterlimit="10"/>
<path d="M11.7839 11.0506C10.3337 11.0506 8.98348 11.6007 7.98332 12.6009C7.8833 12.7009 7.8833 12.8509 7.98332 12.9509C8.08333 13.051 8.23336 13.051 8.33337 12.9509C9.23352 12.0508 10.4837 11.5507 11.7839 11.5507C13.0841 11.5507 14.2843 12.0508 15.2345 12.9509C15.2845 13.001 15.3345 13.001 15.3845 13.001C15.4345 13.001 15.5345 13.001 15.5345 12.9509C15.6345 12.8509 15.6345 12.7009 15.5345 12.6009C14.5344 11.6007 13.1841 11.0506 11.7839 11.0506Z" fill="#808080" stroke="#808080" stroke-width="0.5" stroke-miterlimit="10"/>
<path d="M11.7839 13.351C10.8838 13.351 10.1837 14.0511 10.1837 14.9513C10.1837 15.8514 10.8838 16.5515 11.7839 16.5515C12.6841 16.5515 13.3842 15.8514 13.3842 14.9513C13.3842 14.1011 12.6341 13.351 11.7839 13.351ZM11.7839 16.1015C11.1838 16.1015 10.6837 15.6014 10.6837 15.0013C10.6837 14.4012 11.1838 13.9011 11.7839 13.9011C12.384 13.9011 12.8841 14.4012 12.8841 15.0013C12.8841 15.6014 12.384 16.1015 11.7839 16.1015Z" fill="#808080" stroke="#808080" stroke-width="0.5" stroke-miterlimit="10"/>
</svg>
