<svg width="24" height="24" viewBox="0 0 24 24" fill="none" xmlns="http://www.w3.org/2000/svg">
<path d="M22.1673 11.3855H2.44364V3.00727C2.44364 2.48364 2.96727 1.96 3.57818 1.96H5.67273C6.28364 1.96 6.72 2.39636 6.72 3.00727C5.76 3.26909 4.97455 4.14182 4.97455 5.10182V6.41091C4.97455 6.67273 5.23636 6.93455 5.49818 6.93455H8.98909C9.25091 6.93455 9.51273 6.67273 9.51273 6.41091V5.10182C9.51273 4.14182 8.72727 3.26909 7.85455 3.00727C7.85455 1.87273 6.98182 1 5.84727 1H3.57818C2.44364 1 1.48364 1.96 1.48364 3.00727V11.2982C0.698182 11.2982 0 11.9964 0 12.7818C0 13.2182 0.174545 13.5673 0.523636 13.9164V16.5345C0.523636 18.5418 1.39636 20.2873 2.88 21.4218L2.09455 22.9927C2.00727 23.2545 2.09455 23.5164 2.35636 23.6909C2.61818 23.7782 2.88 23.6909 3.05455 23.4291L3.84 21.9455C4.8 22.4691 5.93455 22.7309 7.06909 22.7309H16.9309C18.0655 22.7309 19.2 22.4691 20.16 21.9455L20.9455 23.4291C21.0327 23.6909 21.3818 23.7782 21.6436 23.6909C21.9055 23.6036 21.9927 23.2545 21.9055 22.9927L21.12 21.4218C22.6036 20.2873 23.4764 18.5418 23.4764 16.5345V13.9164C23.8255 13.6545 24 13.2182 24 12.8691C23.6509 11.9964 23.04 11.3855 22.1673 11.3855ZM7.15636 3.96727C7.76727 3.96727 8.37818 4.57818 8.37818 5.10182V5.88727H5.93455V5.10182C5.93455 4.57818 6.54545 3.96727 7.15636 3.96727ZM22.1673 16.5345C22.1673 19.5018 19.8109 21.7709 16.7564 21.7709H6.89455C3.84 21.7709 1.48364 19.5018 1.48364 16.5345V14.3527H22.1673V16.5345ZM22.1673 13.3055H1.48364C1.22182 13.3055 1.04727 13.1309 0.96 12.8691C0.96 12.6073 1.13455 12.3455 1.48364 12.3455H22.1673C22.4291 12.3455 22.6036 12.52 22.6909 12.7818C22.6909 13.0436 22.5164 13.3055 22.1673 13.3055Z" fill="#808080"/>
</svg>
