<svg width="24" height="24" viewBox="0 0 24 24" fill="none" xmlns="http://www.w3.org/2000/svg">
<path d="M20.8726 12.2738L19.5228 10.924C19.1729 10.5741 18.7729 10.3241 18.373 10.1241C18.623 9.57422 18.7729 8.92431 18.7729 8.3244V6.42466C18.7729 6.27468 18.673 6.1747 18.523 6.1747H16.6732C16.0233 6.1747 15.4234 6.32468 14.8735 6.57464C14.6735 6.1247 14.3736 5.72476 14.0736 5.4248L12.7238 4.07499C12.6238 3.975 12.4238 3.975 12.3238 4.07499L10.974 5.4248C10.6241 5.77475 10.3741 6.1747 10.1741 6.57464C9.62422 6.32468 8.97431 6.1747 8.37439 6.1747H6.42466C6.27468 6.1747 6.1747 6.27468 6.1747 6.42466V8.2744C6.1747 8.92431 6.32468 9.52423 6.57464 10.0742C6.1247 10.2741 5.72476 10.5741 5.4248 10.874L4.07499 12.2239C3.975 12.3238 3.975 12.5238 4.07499 12.6238L5.4248 13.9736C5.77475 14.3236 6.1747 14.5735 6.57464 14.7735C6.32468 15.3234 6.1747 15.9733 6.1747 16.5732V18.423C6.1747 18.573 6.27468 18.673 6.42466 18.673H8.2744C8.92431 18.673 9.52423 18.523 10.0742 18.273C10.2741 18.7229 10.5741 19.1229 10.874 19.4228L12.2239 20.7727C12.3238 20.8726 12.5238 20.8726 12.6238 20.7727L13.9736 19.4228C14.3236 19.0729 14.5735 18.673 14.7735 18.273C15.3234 18.523 15.9733 18.673 16.5732 18.673H18.423C18.573 18.673 18.673 18.573 18.673 18.423V16.5732C18.673 15.9233 18.523 15.3234 18.273 14.7735C18.7229 14.5735 19.1229 14.2736 19.4228 13.9736L20.7727 12.6238C21.0226 12.5738 21.0226 12.3738 20.8726 12.2738ZM15.0235 7.07457C15.5234 6.82461 16.0733 6.72462 16.6232 6.72462H18.223V8.3244C18.223 8.87432 18.123 9.42424 17.8731 9.92417C17.4731 9.82419 17.0732 9.7242 16.6232 9.7242H16.5233C15.9233 9.7242 15.3734 9.82419 14.8735 10.0742C15.1234 9.52423 15.2234 8.97431 15.2234 8.42438V8.3244C15.2234 7.87446 15.1734 7.47452 15.0235 7.07457ZM16.5233 10.2741H16.6232C16.9232 10.2741 17.2732 10.3241 17.5731 10.4241C17.4231 10.6241 17.2732 10.824 17.0732 11.024L17.0232 11.074C16.3233 11.7739 15.3234 12.2239 14.3236 12.1739H13.1237L14.0236 11.324C14.6735 10.6741 15.5734 10.2741 16.5233 10.2741ZM14.6735 8.3244V8.42438C14.6735 9.37425 14.3236 10.2741 13.6237 10.924L12.7238 11.8239V10.6241C12.7238 9.62422 13.1237 8.62435 13.8236 7.92445L13.8736 7.87446C14.0736 7.67449 14.2736 7.52451 14.4735 7.37453C14.6235 7.67449 14.6735 7.97445 14.6735 8.3244ZM11.324 5.77475L12.4738 4.62491L13.6237 5.77475C13.9236 6.07471 14.1736 6.42466 14.3236 6.82461C14.0236 7.02458 13.7736 7.22455 13.5237 7.47452L13.4737 7.52451C13.0237 7.97445 12.6738 8.52437 12.4738 9.12429C12.2738 8.52437 11.9239 7.97445 11.474 7.52451L11.424 7.47452C11.174 7.22455 10.924 7.02458 10.6241 6.82461C10.7741 6.42466 11.024 6.07471 11.324 5.77475ZM10.2741 8.3244C10.2741 8.02444 10.3241 7.67449 10.4241 7.37453C10.6241 7.52451 10.824 7.67449 11.024 7.87446L11.074 7.92445C11.7739 8.62435 12.2239 9.62422 12.1739 10.6241V11.8239L11.274 10.924C10.6241 10.2741 10.2241 9.32426 10.2241 8.42438V8.3244H10.2741ZM10.924 11.324L11.8239 12.1739H10.6241C9.62422 12.1739 8.62436 11.7739 7.92445 11.074L7.87446 11.024C7.67449 10.824 7.52451 10.6241 7.37453 10.4241C7.67449 10.3241 8.02444 10.2741 8.3244 10.2741H8.42438C9.37425 10.2741 10.2741 10.6741 10.924 11.324ZM6.72462 6.72462H8.3244C8.87432 6.72462 9.42424 6.82461 9.92417 7.07457C9.82419 7.47452 9.7242 7.87446 9.7242 8.3244V8.42438C9.7242 9.0243 9.82419 9.57422 10.0742 10.0742C9.52423 9.82419 8.97431 9.7242 8.42438 9.7242H8.3244C7.92445 9.7242 7.47452 9.77419 7.07457 9.92417C6.82461 9.42424 6.72462 8.87432 6.72462 8.3244V6.72462ZM5.77475 13.6237L4.62491 12.4738L5.77475 11.324C6.07471 11.024 6.42466 10.7741 6.82461 10.6241C7.02458 10.924 7.22455 11.174 7.47452 11.424L7.52451 11.474C7.97445 11.9239 8.52437 12.2738 9.12429 12.4738C8.52437 12.6738 7.97445 13.0237 7.52451 13.4737L7.47452 13.5237C7.22455 13.7736 7.02458 14.0236 6.82461 14.3236C6.42466 14.1736 6.07471 13.9236 5.77475 13.6237ZM9.92417 17.8731C9.42424 18.123 8.87432 18.223 8.3244 18.223H6.72462V16.6232C6.72462 16.0733 6.82461 15.5234 7.07457 15.0235C7.47452 15.1234 7.87446 15.2234 8.3244 15.2234H8.42438C9.0243 15.2234 9.57422 15.1234 10.0742 14.8735C9.82419 15.4234 9.7242 15.9733 9.7242 16.5233V16.6232C9.7242 17.0732 9.77419 17.4731 9.92417 17.8731ZM8.42438 14.6735H8.3244C8.02444 14.6735 7.67449 14.6235 7.37453 14.5235C7.52451 14.3236 7.67449 14.1236 7.87446 13.9236L7.92445 13.8736C8.62436 13.1737 9.62422 12.7238 10.6241 12.7738H11.8239L10.924 13.6737C10.2741 14.2736 9.37425 14.6735 8.42438 14.6735ZM10.2741 16.6232V16.5233C10.2741 15.5734 10.6241 14.6735 11.324 14.0236L12.1739 13.1237V14.3236C12.1739 15.3234 11.7739 16.3233 11.074 17.0232L11.024 17.0732C10.824 17.2731 10.6241 17.4231 10.4241 17.5731C10.3241 17.2731 10.2741 16.9732 10.2741 16.6232ZM13.6237 19.1729L12.4738 20.3227L11.324 19.1729C11.024 18.8729 10.7741 18.523 10.6241 18.123C10.924 17.9231 11.174 17.7231 11.424 17.4731L11.474 17.4231C11.9239 16.9732 12.2738 16.4233 12.4738 15.8234C12.6738 16.4233 13.0237 16.9732 13.4737 17.4231L13.5237 17.4731C13.7736 17.7231 14.0236 17.9231 14.3236 18.123C14.1736 18.523 13.9236 18.8729 13.6237 19.1729ZM14.6735 16.6232C14.6735 16.9232 14.6235 17.2731 14.5235 17.5731C14.3236 17.4231 14.1236 17.2731 13.9236 17.0732L13.8736 17.0232C13.1737 16.3233 12.7238 15.3234 12.7738 14.3236V13.1237L13.6737 14.0236C14.3236 14.6735 14.7235 15.5734 14.7235 16.5233V16.6232H14.6735ZM14.0236 13.6237L13.1237 12.7238H14.3236C15.3234 12.7238 16.3233 13.1237 17.0232 13.8236L17.0732 13.8736C17.2732 14.0736 17.4231 14.2736 17.5731 14.4735C17.2732 14.5735 16.9232 14.6235 16.6232 14.6235H16.5233C15.5734 14.6735 14.6735 14.2736 14.0236 13.6237ZM18.223 18.223H16.6232C16.0733 18.223 15.5234 18.123 15.0235 17.8731C15.1234 17.4731 15.2234 17.0732 15.2234 16.6232V16.5233C15.2234 15.9233 15.1234 15.3734 14.8735 14.8735C15.4234 15.1234 15.9733 15.2234 16.5233 15.2234H16.6232C17.0232 15.2234 17.4731 15.1734 17.8731 15.0235C18.123 15.5234 18.223 16.0733 18.223 16.6232V18.223ZM19.1729 13.6237C18.8729 13.9236 18.523 14.1736 18.123 14.3236C17.9231 14.0236 17.7231 13.7736 17.4731 13.5237L17.4231 13.4737C16.9732 13.0237 16.4233 12.6738 15.8234 12.4738C16.4233 12.2738 16.9732 11.9239 17.4231 11.474L17.4731 11.424C17.7231 11.174 17.9231 10.924 18.123 10.6241C18.523 10.824 18.8729 11.024 19.1729 11.324L20.3227 12.4738L19.1729 13.6237Z" fill="#808080"/>
</svg>
