<svg width="24" height="24" viewBox="0 0 24 24" fill="none" xmlns="http://www.w3.org/2000/svg">
<path d="M14.55 8.42601H2.75C2.3 8.42601 2 8.72601 2 9.12601V9.92601C2 10.326 2.35 10.676 2.75 10.676H3.85V16.676C3.85 16.876 4 17.026 4.15 17.026C4.35 17.026 4.5 16.876 4.5 16.676V10.676H12.75V16.676C12.75 16.876 12.9 17.026 13.1 17.026C13.3 17.026 13.45 16.876 13.45 16.676V10.676H14.55C14.95 10.676 15.3 10.326 15.3 9.92601V9.12601C15.3 8.72601 14.95 8.42601 14.55 8.42601ZM14.6 9.97601C14.6 10.026 14.55 10.076 14.5 10.076H2.75C2.7 10.026 2.65 9.97601 2.65 9.97601V9.12601C2.65 9.07601 2.7 9.07601 2.75 9.07601H14.55C14.6 9.07601 14.65 9.12601 14.65 9.12601V9.97601H14.6Z" fill="#808080"/>
<path d="M22.7 6.42601C22.6 6.27601 22.5 6.17601 22.35 6.12601L22.05 6.02601C21.75 5.92601 21.45 6.12601 21.35 6.42601L20.45 9.37601C20.4 9.52601 20.4 9.67601 20.5 9.82601C20.55 9.92601 20.6 9.97601 20.65 10.026L20.1 11.726H15.4C15 11.726 14.7 12.076 14.7 12.476V13.026C14.7 13.426 15 13.776 15.4 13.776H15.55L14.35 16.526C14.3 16.676 14.35 16.876 14.55 16.976C14.6 16.976 14.65 16.976 14.65 16.976C14.8 16.976 14.9 16.926 14.95 16.726L16.3 13.626H19.75L21.1 16.726C21.15 16.876 21.25 16.976 21.4 16.976C21.45 16.976 21.45 16.976 21.5 16.976C21.65 16.926 21.75 16.726 21.7 16.526L20.5 13.626C20.8 13.526 21.05 13.226 21.05 12.926V12.376C21.05 12.126 20.95 11.926 20.8 11.826L21.35 10.176C21.6 10.176 21.8 10.026 21.9 9.77601L22.8 6.82601C22.8 6.72601 22.8 6.57601 22.7 6.42601ZM20.35 12.976C20.35 13.026 20.35 13.076 20.3 13.076H15.4C15.4 13.076 15.35 13.076 15.35 13.026V12.476C15.35 12.426 15.35 12.426 15.4 12.426H20.25H20.3C20.3 12.426 20.35 12.426 20.35 12.476V12.976ZM21.25 9.52601H21.15L22 6.72601L22.1 6.77601L21.25 9.52601Z" fill="#808080"/>
</svg>
