<svg width="24" height="24" viewBox="0 0 24 24" fill="none" xmlns="http://www.w3.org/2000/svg">
<path d="M12.5 13.8C12.7 13.6 12.8 13.35 12.8 13.1V13C12.8 12.8 12.75 12.6 12.6 12.45C12.55 12.4 12.55 12.35 12.5 12.3C12.35 12.15 12.3 11.9 12.45 11.7C12.45 11.65 12.5 11.65 12.5 11.6C12.7 11.4 12.8 11.15 12.8 10.9V9.85C12.8 8.8 12.25 7.85 11.35 7.35V6.95C11.5 6.95 11.6 6.85 11.6 6.7C11.6 6.55 11.5 6.45 11.35 6.45V5.6C11.35 5.25 11.1 5 10.75 5H9.05C8.7 5 8.45 5.25 8.45 5.6V6.45C8.3 6.45 8.2 6.55 8.2 6.7C8.2 6.85 8.3 6.95 8.45 6.95V7.35C7.65 7.8 7.15 8.6 7 9.5C7 9.6 7 9.75 7 9.85V10.95C7 11.2 7.1 11.45 7.3 11.65C7.3 11.65 7.35 11.7 7.35 11.75C7.5 11.95 7.45 12.2 7.3 12.35C7.25 12.4 7.2 12.45 7.2 12.5C7.05 12.6 7 12.8 7 13V13.1C7 13.35 7.1 13.6 7.3 13.8C7.3 13.8 7.35 13.85 7.35 13.9C7.5 14.1 7.45 14.35 7.3 14.5C7.25 14.55 7.2 14.6 7.2 14.65C7.05 14.75 7 14.95 7 15.15V15.25C7 15.5 7.1 15.75 7.3 15.95C7.5 16.15 7.5 16.45 7.3 16.65C7.1 16.85 7 17.1 7 17.35V17.95C7 18.55 7.45 19 8.05 19H11.75C12.35 19 12.8 18.55 12.8 17.95V17.35C12.8 17.15 12.75 16.95 12.6 16.8C12.55 16.75 12.55 16.7 12.5 16.65C12.35 16.5 12.3 16.25 12.45 16.05C12.5 16 12.5 16 12.5 15.95C12.7 15.75 12.8 15.5 12.8 15.25V15.15C12.8 14.95 12.75 14.75 12.6 14.6C12.6 14.55 12.55 14.5 12.5 14.5C12.35 14.35 12.3 14.1 12.45 13.9C12.5 13.85 12.5 13.8 12.5 13.8ZM8.95 5.6C8.95 5.55 9 5.5 9.05 5.5H10.75C10.8 5.5 10.85 5.55 10.85 5.6V6.45H8.95V5.6ZM8.8 7.7C8.9 7.65 8.95 7.6 8.95 7.5V6.95H10.9V7.5C10.9 7.6 10.95 7.65 11.05 7.7C11.55 7.95 11.95 8.45 12.15 9L11.85 9.15C11.2 9.45 10.5 9.45 9.85 9.15C9.15 8.8 8.35 8.8 7.6 9.1C7.8 8.5 8.25 8 8.8 7.7ZM12.3 10.95C12.3 11.1 12.25 11.2 12.15 11.3C11.75 11.7 11.75 12.3 12.15 12.65C12.25 12.75 12.3 12.85 12.3 13V13.1C12.3 13.25 12.25 13.35 12.15 13.45C11.75 13.85 11.75 14.45 12.15 14.8C12.25 14.9 12.3 15 12.3 15.15V15.25C12.3 15.4 12.25 15.5 12.15 15.6C11.75 16 11.75 16.6 12.15 16.95C12.25 17.05 12.3 17.15 12.3 17.3V17.9C12.3 18.2 12.05 18.45 11.75 18.45H8.05C7.75 18.5 7.5 18.25 7.5 17.95V17.35C7.5 17.2 7.55 17.1 7.65 17C8.05 16.6 8.05 16 7.65 15.65C7.55 15.55 7.5 15.4 7.5 15.3V15.2C7.5 15.05 7.55 14.95 7.65 14.85C8.05 14.45 8.05 13.85 7.65 13.5C7.55 13.35 7.5 13.25 7.5 13.1V13C7.5 12.85 7.55 12.75 7.65 12.65C8.05 12.25 8.05 11.65 7.65 11.3C7.55 11.2 7.5 11.05 7.5 10.95V9.85C7.5 9.8 7.5 9.75 7.5 9.7L7.7 9.6C8.35 9.3 9.05 9.3 9.7 9.6C10.45 9.95 11.3 9.95 12.05 9.6L12.3 9.5V9.55C12.3 9.65 12.3 9.75 12.3 9.85V10.95Z" fill="#808080"/>
<path d="M16.7 12.65C16.85 12.5 16.95 12.3 16.95 12.05V11.1C16.95 10.2 16.45 9.35 15.7 8.9V8.6C15.8 8.6 15.9 8.5 15.9 8.4C15.9 8.3 15.8 8.2 15.7 8.2V7.45C15.7 7.15 15.45 6.95 15.2 6.95H13.7C13.4 6.95 13.2 7.2 13.2 7.45V8C13.35 8.2 13.5 8.45 13.6 8.7V8.6H15.3V9.05C15.3 9.15 15.35 9.2 15.4 9.25C15.85 9.5 16.25 9.9 16.4 10.4L16.15 10.5C15.6 10.75 15 10.75 14.45 10.5C14.25 10.4 14.05 10.35 13.85 10.35V10.75C14 10.8 14.15 10.85 14.25 10.9C14.9 11.2 15.65 11.2 16.3 10.9L16.5 10.8V10.85C16.5 10.95 16.5 11 16.5 11.1V12.05C16.5 12.15 16.45 12.25 16.4 12.35C16.05 12.7 16.05 13.2 16.4 13.55C16.5 13.65 16.5 13.75 16.5 13.85V13.95C16.5 14.05 16.45 14.15 16.4 14.25C16.05 14.6 16.05 15.1 16.4 15.45C16.5 15.55 16.5 15.65 16.5 15.75V15.85C16.5 15.95 16.45 16.05 16.4 16.15C16.05 16.5 16.05 17 16.4 17.35C16.5 17.45 16.5 17.55 16.5 17.65V18.1C16.5 18.35 16.3 18.6 16 18.6H13.55C13.35 18.85 13.05 19 12.75 19C12.75 19 12.75 19 12.8 19H16C16.5 19 16.9 18.6 16.9 18.1V17.65C16.9 17.5 16.85 17.3 16.75 17.15C16.7 17.1 16.7 17.05 16.65 17.05C16.5 16.9 16.5 16.7 16.6 16.5L16.65 16.45C16.8 16.3 16.9 16.1 16.9 15.85V15.75C16.9 15.6 16.85 15.4 16.75 15.25C16.7 15.2 16.7 15.15 16.65 15.15C16.5 15 16.5 14.8 16.6 14.6L16.65 14.55C16.8 14.4 16.9 14.2 16.9 13.95V13.85C16.9 13.7 16.85 13.5 16.75 13.35C16.7 13.3 16.7 13.25 16.65 13.25C16.5 13.1 16.5 12.9 16.6 12.7C16.7 12.7 16.7 12.7 16.7 12.65ZM15.3 8.2H13.6V7.45C13.6 7.4 13.65 7.35 13.7 7.35H15.2C15.25 7.35 15.3 7.4 15.3 7.45V8.2Z" fill="#808080"/>
</svg>
