<svg fill="none" height="24" viewBox="0 0 24 24" width="24" xmlns="http://www.w3.org/2000/svg"><g stroke-miterlimit="10" stroke-width=".5"><path d="m22.1 5.6-2.7-2.7c-1.2-1.2-3.1-1.2-4.3 0l-3 2.9c-1.2 1.2-1.2 3.1 0 4.2l1.7-1.6c-.2-.5 0-1.1.5-1.5l1.9-1.9c.6-.6 1.6-.6 2.2 0l1.6 1.6c.6.6.6 1.5 0 2.1l-1.9 1.9c-.4.4-1.1.6-1.6.5l-1.7 1.6c1.2 1.2 3.1 1.2 4.3 0l3-2.9c1.2-1.1 1.2-3 0-4.2z"/><path d="m11.2 16.3c.1.5-.1 1.1-.5 1.5l-1.8 1.7c-.6.6-1.6.6-2.2 0l-1.6-1.6c-.6-.6-.6-1.6 0-2.2l1.8-1.7c.4-.4 1.1-.6 1.6-.5l1.7-1.7c-1.2-1.2-3.2-1.2-4.4 0l-2.9 2.8c-1.2 1.2-1.2 3.1 0 4.3l2.7 2.7c1.2 1.2 3.2 1.2 4.4 0l2.9-2.8c1.2-1.2 1.2-3.1 0-4.3z"/><path d="m9.3 15.5c.4.4 1.1.4 1.5 0l4.9-4.9c.4-.4.4-1.1 0-1.5s-1.1-.4-1.5 0l-4.9 4.9c-.4.4-.4 1.1 0 1.5z"/></g></svg>