<svg width="24" height="24" viewBox="0 0 24 24" fill="none" xmlns="http://www.w3.org/2000/svg">
<path d="M20.752 10.3004C20.5519 10.1004 20.3019 9.95035 20.0519 9.95035H19.6518V9.65031C19.6518 9.10025 19.1518 8.65019 18.5517 8.65019H18.0517V8.05012C18.0517 7.80009 17.9516 7.50006 17.7516 7.30004C17.3516 6.89999 16.6515 6.89999 16.2514 7.30004C16.0514 7.50006 15.9514 7.75009 15.9514 8.05012V10.7504H9.05059V8.05012C9.05059 7.80009 8.95058 7.50006 8.75056 7.30004C8.35051 6.89999 7.65043 6.89999 7.25038 7.30004C7.05036 7.50006 6.90034 7.80009 6.90034 8.05012V8.65019H6.35028C6.10025 8.65019 5.85022 8.75021 5.65019 8.90022C5.45017 9.10025 5.35016 9.35028 5.35016 9.60031V9.95035H4.95011C4.70008 9.95035 4.45005 10.0504 4.25003 10.3004C4.10001 10.5004 4 10.7504 4 11.0505V12.6007C4 12.9007 4.10001 13.1507 4.25003 13.3507C4.45005 13.5508 4.70008 13.7008 4.95011 13.7008H5.35016V14.0508C5.35016 14.3009 5.45017 14.5509 5.65019 14.7509C5.85022 14.9509 6.10025 15.0009 6.35028 15.0009H6.90034V15.601C6.90034 15.851 7.00035 16.1511 7.20038 16.3011C7.4004 16.5011 7.65043 16.6011 7.95046 16.6011C8.2505 16.6011 8.50053 16.5011 8.70055 16.3011C8.90058 16.1011 9.00059 15.851 9.00059 15.601V12.9007H15.9014V15.601C15.9014 15.851 16.0014 16.1511 16.2014 16.3011C16.4015 16.5011 16.6515 16.6011 16.9515 16.6011C17.2516 16.6011 17.5016 16.5011 17.7016 16.3011C17.9016 16.1011 18.0016 15.851 18.0016 15.601V15.0009H18.5017C19.1018 15.0009 19.6018 14.5509 19.6018 14.0008V13.7008H20.0019C20.2519 13.7008 20.5019 13.6008 20.702 13.3507C20.852 13.1507 20.952 12.9007 20.952 12.6007V11.0505C21.002 10.7504 20.902 10.5004 20.752 10.3004ZM4.95011 13.1507C4.8501 13.1507 4.75009 13.1007 4.65008 13.0007C4.55006 12.9007 4.50006 12.7507 4.50006 12.6007V11.0505C4.50006 10.9005 4.55006 10.7504 4.65008 10.6504C4.75009 10.5504 4.8501 10.5004 4.95011 10.5004H5.35016V13.1507H4.95011ZM6.35028 14.5009C6.20026 14.5009 6.10025 14.4509 6.00024 14.3509C5.90022 14.2509 5.85022 14.1508 5.85022 14.0508V13.4008V10.2504V9.60031C5.85022 9.50029 5.90022 9.40028 6.00024 9.30027C6.10025 9.20026 6.20026 9.15025 6.35028 9.15025H6.90034V14.4509H6.35028V14.5009ZM8.50053 15.601C8.50053 15.751 8.45052 15.851 8.35051 15.9511C8.15049 16.1511 7.80045 16.1511 7.60042 15.9511C7.50041 15.851 7.45041 15.751 7.45041 15.601V14.7509V8.90022V8.05012C7.45041 7.90011 7.50041 7.80009 7.60042 7.70008C7.70043 7.65008 7.85045 7.55006 8.00047 7.55006C8.15049 7.55006 8.30051 7.60007 8.40052 7.70008C8.45052 7.80009 8.50053 7.95011 8.50053 8.05012V11.0505V12.6507V15.601ZM9.05059 12.3506V11.3005H15.9514V12.3506H9.05059ZM17.5516 15.601C17.5516 15.751 17.5016 15.851 17.4016 15.9511C17.2016 16.1511 16.8515 16.1511 16.6515 15.9511C16.5515 15.851 16.5015 15.751 16.5015 15.601V12.6507V11.0505V8.05012C16.5015 7.90011 16.5515 7.80009 16.6515 7.70008C16.7515 7.65008 16.8515 7.55006 17.0015 7.55006C17.1515 7.55006 17.3016 7.60007 17.4016 7.70008C17.5016 7.80009 17.5516 7.95011 17.5516 8.05012V8.90022V14.7509V15.601ZM19.1518 14.0008C19.1518 14.2509 18.9018 14.5009 18.6017 14.5009H18.1017V9.15025H18.6017C18.9018 9.15025 19.1518 9.35028 19.1518 9.65031V10.2504V13.4508V14.0008ZM20.4519 12.6007C20.4519 12.7507 20.4019 12.9007 20.3019 13.0007C20.2019 13.1007 20.1519 13.1507 20.0519 13.1507H19.6518V10.5004H20.0519C20.1519 10.5004 20.2519 10.5504 20.3019 10.6504C20.4019 10.7504 20.4519 10.9005 20.4519 11.0505V12.6007Z" fill="#808080"/>
</svg>
