<svg width="24" height="24" viewBox="0 0 24 24" fill="none" xmlns="http://www.w3.org/2000/svg">
<path d="M21.722 10.3458V6.35932C21.722 4.56949 20.5017 4 19.3627 4H4.71864C3.49831 4 2.27797 4.65085 2.27797 6.35932V10.2644C1.13898 10.4271 0 11.2407 0 12.9492V15.9593C0 16.4475 0.40678 16.8542 0.894915 16.8542H1.22034V19.2136C1.22034 19.8644 1.62712 20.2712 2.19661 20.2712H3.09153C3.57966 20.2712 3.98644 19.8644 3.98644 19.3763V16.9356H20.0949V19.3763C20.0949 19.8644 20.5017 20.2712 20.9898 20.2712H21.8847C22.3729 20.2712 22.7797 19.8644 22.7797 19.3763V16.9356H23.1051C23.5932 16.9356 24 16.5288 24 16.0407V12.9492C24 11.2407 22.861 10.4271 21.722 10.3458ZM3.17288 6.35932C3.25424 5.13898 3.98644 4.89492 4.71864 4.89492H19.3627C20.0136 4.89492 20.8271 5.13898 20.8271 6.35932V10.2644H20.0949V8.0678C20.0949 7.57966 19.6881 7.17288 19.2 7.17288H13.5051C13.0169 7.17288 12.6102 7.57966 12.6102 8.0678V10.2644H11.5525V8.0678C11.5525 7.57966 11.1458 7.17288 10.6576 7.17288H4.88136C4.39322 7.17288 3.98644 7.57966 3.98644 8.0678V10.2644H3.17288V6.35932ZM19.2 8.0678V10.2644H13.5051V8.0678H19.2ZM10.6576 8.0678V10.2644H4.96271V8.0678H10.6576ZM3.01017 19.3763H2.11525V16.9356H3.01017V19.3763ZM21.8847 19.3763H20.9898V16.9356H21.8847V19.3763ZM23.1051 16.0407H21.8847H20.9898H3.01017H2.11525H0.894915V14.6576H23.0237V16.0407H23.1051ZM23.1051 13.7627H0.894915V12.9492C0.894915 11.4034 2.0339 11.1593 2.68475 11.1593H3.17288H4.96271H10.6576H13.5864H19.2814H20.9085H21.3966C22.0475 11.1593 23.1864 11.4034 23.1864 12.9492V13.7627H23.1051Z" fill="#808080"/>
</svg>
