<svg width="24" height="24" viewBox="0 0 24 24" fill="none" xmlns="http://www.w3.org/2000/svg">
<path d="M18.15 5H6.85C5.85 5 5 5.85 5 6.85V14C5 15 5.85 15.85 6.85 15.85H12.1V17.6H9.45C9.2 17.6 9.05 17.8 9.05 18C9.05 18.25 9.25 18.4 9.45 18.4H15.5C15.75 18.4 15.9 18.2 15.9 18C15.9 17.75 15.7 17.6 15.5 17.6H12.9V15.85H18.15C19.15 15.85 20 15 20 14V6.85C20 5.85 19.15 5 18.15 5ZM6.85 5.85H18.15C18.7 5.85 19.15 6.3 19.15 6.85V12.85H5.85V6.85C5.85 6.3 6.3 5.85 6.85 5.85ZM18.15 15.05H6.85C6.3 15.05 5.85 14.6 5.85 14.05V13.7H19.15V14C19.15 14.55 18.7 15.05 18.15 15.05Z" fill="#808080"/>
</svg>
