<svg width="24" height="24" viewBox="0 0 24 24" fill="none" xmlns="http://www.w3.org/2000/svg">
<path d="M16 6.9L9.05 6C8.9 6 8.75 6 8.6 6C6.6 6 5 7.6 5 9.6V9.7C5 11.05 5.75 12.2 6.85 12.85L7.8 16.75C7.9 17.2 8.15 17.55 8.55 17.75C8.8 17.9 9.1 18 9.4 18C9.55 18 9.65 18 9.8 17.95H9.85C10.3 17.85 10.65 17.6 10.85 17.2C11.1 16.8 11.15 16.35 11.05 15.95L10.35 13.15L16 12.4C16.15 12.4 16.25 12.25 16.25 12.1V7.2C16.25 7.05 16.15 6.9 16 6.9ZM10.45 16.05C10.5 16.3 10.45 16.6 10.35 16.85C10.2 17.1 10 17.25 9.7 17.3H9.65C9.4 17.35 9.1 17.3 8.85 17.2C8.6 17.05 8.45 16.85 8.4 16.55L7.55 13.1C7.9 13.2 8.25 13.25 8.6 13.25C8.75 13.25 8.9 13.25 9 13.25L9.7 13.15L10.45 16.05ZM15.65 11.85L8.95 12.65C8.85 12.65 8.7 12.65 8.6 12.65C6.95 12.65 5.6 11.3 5.6 9.65V9.6C5.6 7.95 6.95 6.6 8.6 6.6C8.7 6.6 8.85 6.6 8.95 6.6L15.65 7.45V11.85Z" fill="#808080"/>
<path d="M6.75 9.65001C6.75 10.8 7.65 11.7 8.8 11.7C9.95 11.7 10.85 10.8 10.85 9.65001C10.85 8.50001 9.95 7.60001 8.8 7.60001C7.65 7.60001 6.75 8.50001 6.75 9.65001ZM10.25 9.65001C10.25 10.45 9.6 11.1 8.8 11.1C8 11.1 7.35 10.45 7.35 9.65001C7.35 8.85001 8 8.20001 8.8 8.20001C9.6 8.20001 10.25 8.85001 10.25 9.65001Z" fill="#808080"/>
<path d="M17 8.65C17.2 8.65 17.25 8.75 17.45 8.95C17.6 9.2 17.85 9.5 18.35 9.5C18.85 9.5 19.1 9.2 19.25 8.95C19.4 8.75 19.5 8.65 19.7 8.65C19.85 8.65 20 8.5 20 8.35C20 8.2 19.85 8.05 19.7 8.05C19.2 8.05 18.95 8.35 18.8 8.6C18.65 8.8 18.55 8.9 18.35 8.9C18.15 8.9 18.1 8.8 17.9 8.6C17.75 8.35 17.5 8.05 17 8.05C16.85 8.05 16.7 8.2 16.7 8.35C16.7 8.55 16.85 8.65 17 8.65Z" fill="#808080"/>
<path d="M19.7 9.89999C19.2 9.89999 18.95 10.2 18.8 10.45C18.65 10.65 18.55 10.75 18.35 10.75C18.15 10.75 18.1 10.65 17.9 10.45C17.75 10.25 17.5 9.89999 17 9.89999C16.85 9.89999 16.7 10.05 16.7 10.2C16.7 10.35 16.85 10.5 17 10.5C17.2 10.5 17.25 10.6 17.45 10.8C17.65 11 17.9 11.35 18.35 11.35C18.85 11.35 19.1 11.05 19.25 10.8C19.4 10.6 19.5 10.5 19.7 10.5C19.85 10.5 20 10.35 20 10.2C20 10.05 19.85 9.89999 19.7 9.89999Z" fill="#808080"/>
</svg>
