<svg width="24" height="24" viewBox="0 0 24 24" fill="none" xmlns="http://www.w3.org/2000/svg">
<path d="M23.573 24H0.427046C0.170818 24 0 23.8296 0 23.5741V21.6148C0 21.3593 0.170818 21.1889 0.427046 21.1889H1.02491V13.3519H0.427046C0.170818 13.3519 0 13.1815 0 12.9259C0 12.6704 0.170818 12.5 0.427046 12.5H4.01423V1.42593C4.01423 1.17037 4.27046 1 4.44128 1H19.3879C19.6441 1 19.8149 1.17037 19.8149 1.42593V12.3296H23.4875C23.7438 12.3296 23.9146 12.5 23.9146 12.7556C23.9146 13.0111 23.7438 13.1815 23.4875 13.1815H23.0605V21.0185H23.573C23.8292 21.0185 24 21.1889 24 21.4444V23.4037C24 23.8296 23.8292 24 23.573 24ZM0.939502 23.063H23.1459V22.0407H0.939502V23.063ZM19.9858 21.1889H22.121V13.3519H19.9858V21.1889ZM16.9964 21.1889H18.9609V13.3519H16.9964V21.1889ZM14.0071 21.1889H16.1423V13.3519H14.0071V21.1889ZM10.9324 21.1889H13.0676V13.3519H10.9324V21.1889ZM7.94306 21.1889H10.0783V13.3519H7.94306V21.1889ZM4.95374 21.1889H7.08897V13.3519H4.95374V21.1889ZM1.879 21.1889H4.01423V13.3519H1.879V21.1889ZM17.9359 12.4148H18.9609V1.93704H4.95374V12.4148H5.97865V3.38519C5.97865 3.12963 6.14947 2.95926 6.40569 2.95926H11.1032C11.3594 2.95926 11.5302 3.12963 11.5302 3.38519V12.3296H12.2989V3.38519C12.2989 3.12963 12.4698 2.95926 12.726 2.95926H17.4235C17.6797 2.95926 17.8505 3.12963 17.8505 3.38519V12.4148H17.9359ZM13.2384 12.4148H16.9964V3.8963H13.2384V12.4148ZM6.91815 12.4148H10.6762V3.8963H6.91815V12.4148Z" fill="#808080"/>
</svg>
