<svg width="24" height="24" viewBox="0 0 24 24" fill="none" xmlns="http://www.w3.org/2000/svg">
<path d="M8.4 14.3V13.3C8.4 12.75 7.95 12.35 7.45 12.35H6.8C6.25 12.35 5.85 12.8 5.85 13.3V14.3C5.35 14.3 5 14.7 5 15.15V18.1C5 18.6 5.4 18.95 5.85 18.95H8.45C8.95 18.95 9.3 18.55 9.3 18.1V15.15C9.3 14.7 8.9 14.3 8.4 14.3ZM6.45 13.3C6.45 13.1 6.6 12.95 6.8 12.95H7.45C7.65 12.95 7.8 13.1 7.8 13.3V14.3H6.45V13.3ZM8.7 18.15C8.7 18.3 8.6 18.4 8.45 18.4H5.8C5.65 18.4 5.55 18.3 5.55 18.15V15.2C5.55 15.05 5.65 14.95 5.8 14.95H8.4C8.55 14.95 8.65 15.05 8.65 15.2V18.15H8.7ZM15.7 7.1V7.5H17.85C18 7.5 18.15 7.65 18.15 7.8C18.15 7.95 18 8.1 17.85 8.1H15.4C15.25 8.1 15.1 7.95 15.1 7.8V6.8C15.1 6.65 15.25 6.5 15.4 6.5H17.85C18 6.5 18.15 6.65 18.15 6.8C18.15 6.95 18 7.1 17.85 7.1H15.7ZM17.7 13.6C17.75 13.65 17.8 13.75 17.8 13.85L17.3 18.75C17.3 18.9 17.15 19.05 17 19.05H13.85C13.7 19.05 13.55 18.9 13.55 18.75C13.55 18.6 13.7 18.45 13.85 18.45H16.7L17.2 14.15H13.85C13.7 14.15 13.55 14 13.55 13.85C13.55 13.7 13.7 13.55 13.85 13.55H17.45C17.55 13.5 17.6 13.55 17.7 13.6ZM14.1 12.7V6.3C14.1 5.85 14.45 5.5 14.9 5.5H17.85C18 5.5 18.15 5.65 18.15 5.8C18.15 5.95 18 6.1 17.85 6.1H14.9C14.8 6.1 14.7 6.2 14.7 6.3V12.7C14.7 12.85 14.55 13 14.4 13C14.25 13 14.1 12.85 14.1 12.7ZM15.7 9.05V9.45H17.85C18 9.45 18.15 9.6 18.15 9.75C18.15 9.9 18 10.05 17.85 10.05H15.4C15.25 10.05 15.1 9.9 15.1 9.75V8.75C15.1 8.6 15.25 8.45 15.4 8.45H17.85C18 8.45 18.15 8.6 18.15 8.75C18.15 8.9 18 9.05 17.85 9.05H15.7ZM12.05 9.45H11.55V8.6C11.55 8.15 11.3 7.75 10.95 7.6V6.5C10.95 6.35 10.8 6.2 10.65 6.2H10.35V5.3C10.35 5.15 10.2 5 10.05 5H7.15C6.85 5 6.65 5.25 6.65 5.55V6.15C6.65 6.3 6.8 6.45 6.95 6.45C7.1 6.45 7.25 6.3 7.25 6.15V5.6H9.7V6.2H9.4C9.25 6.2 9.1 6.35 9.1 6.5V7.55C8.7 7.75 8.45 8.15 8.45 8.6V9.45H7.95C7.45 9.45 7.1 9.85 7.1 10.3V11.3C7.1 11.45 7.25 11.6 7.4 11.6C7.55 11.6 7.7 11.45 7.7 11.3V10.3C7.7 10.15 7.8 10.05 7.95 10.05H12.05C12.2 10.05 12.3 10.15 12.3 10.3V18.15C12.3 18.3 12.2 18.4 12.05 18.4H9.95C9.8 18.4 9.65 18.55 9.65 18.7C9.65 18.85 9.8 19 9.95 19H12.05C12.55 19 12.9 18.6 12.9 18.15V10.3C12.95 9.8 12.55 9.45 12.05 9.45ZM9.7 6.8H10.35V7.45H9.7V6.8ZM10.95 9.45H9.1V8.6C9.1 8.3 9.35 8.05 9.65 8.05H10.45C10.75 8.05 11 8.3 11 8.6V9.45H10.95ZM18.15 10.75C18.15 10.9 18 11.05 17.85 11.05H15.7V12.7C15.7 12.85 15.55 13 15.4 13C15.25 13 15.1 12.85 15.1 12.7V10.75C15.1 10.6 15.25 10.45 15.4 10.45H17.85C18.05 10.45 18.15 10.55 18.15 10.75Z" fill="#808080"/>
</svg>
