<svg width="160" height="68" viewBox="0 0 160 68" fill="none" xmlns="http://www.w3.org/2000/svg"><g clip-path="url(#clip0)" fill="#8A7965"><path d="M69.7 61.5c0-.6.1-1.5-.5-1.7h2.9c1.6 0 2.6.7 2.6 1.8 0 .8-.5 1.3-1.2 1.6 1.1.2 2 1 2 2.2 0 .9-.7 1.8-1.5 2.2-.9.4-1.8.4-2.8.4h-2c.6-.2.5-1.1.5-1.7v-4.8zm1.7 1.5c.8 0 1.9-.3 1.9-1.3 0-.8-.8-1.3-1.5-1.2l-.8.1V63h.4zm.6 4c1 .1 2-.4 2-1.5 0-1.2-1.2-1.7-2.2-1.6h-.9v3l1.1.1zM82.5 68c-.8 0-1.6-.3-1.6-1.3v-1.9c-.4.2-.8.3-1.2.4-.6.1-1.3.3-1.3 1 0 .8.7 1 1.3 1 .3 0 .6-.1.9-.2l-.6 1c-.2 0-.4.1-.6.1-1.2 0-2.1-.8-2.1-1.8 0-2.3 3.7-1.2 3.7-2.6 0-.6-.7-.8-1.2-.8-.6 0-1.1.2-1.7.5l.8-1.2.8-.1c1.3 0 2.3.4 2.4 1.9v1.8c0 1 0 1.3 1 1.5l-.6.7zM85.3 59.8c.3 0 .6 0 .8-.2v6.9c0 .6-.1 1 .5 1.3h-2c.5-.3.5-.8.5-1.3v-5.4c0-.6.1-1-.5-1.3h.7zM89.5 62.2c.3 0 .6 0 .8-.2v4.5c0 .6-.1 1 .5 1.3h-2.1c.5-.3.5-.8.5-1.3v-2.9c0-.6.1-1-.5-1.3h.8v-.1zm.3-.7c-.5 0-.8-.4-.8-.8s.4-.7.8-.7.7.4.7.8c0 .3-.3.7-.7.7zM37.1 46.5c0-.6.1-1.5-.5-1.7h2.9c1.6 0 2.6.7 2.6 1.8 0 .8-.5 1.3-1.2 1.6 1.1.2 2 1 2 2.2 0 .9-.7 1.8-1.5 2.2-.9.4-1.8.4-2.8.4h-2c.6-.2.5-1.1.5-1.7v-4.8zm1.7 1.6c.8 0 1.9-.3 1.9-1.3 0-.9-.8-1.3-1.5-1.2l-.8.1v2.4h.4zm.6 3.9c1 .1 2-.4 2-1.5 0-1.2-1.2-1.7-2.2-1.6h-.9v3l1.1.1zM46.1 49.9c0 1.5 1.1 2.4 2.5 2.4.7 0 1.5-.2 2-.7l-.6 1.2c-.5.2-1.1.3-1.7.3-2.1 0-3.5-1.3-3.5-3s1.2-3 3.1-3c1.7 0 2.8 1.2 2.8 2.8h-4.6zm3.2-.7c-.1-.9-.7-1.3-1.6-1.3-.8 0-1.4.5-1.6 1.3h3.2zM53.4 47.3c.3 0 .6 0 .8-.2v.9c.3-.6.8-.9 1.5-.9h.4v1.1c-.1-.2-.4-.2-.6-.2-.9 0-1.3.5-1.3 1.8v1.7c0 .6-.1 1 .5 1.3h-2.1c.5-.3.5-.8.5-1.3v-2.9c0-.6.1-1-.5-1.3h.8zM62.8 53.1c-.8 0-1.6-.3-1.6-1.3v-1.9c-.4.2-.8.3-1.2.4-.6.1-1.3.3-1.3 1 0 .8.7 1 1.3 1 .3 0 .6-.1.9-.2l-.7.9c-.2 0-.4.1-.6.1-1.2 0-2.1-.8-2.1-1.8 0-2.3 3.7-1.2 3.7-2.6 0-.6-.7-.8-1.2-.8-.6 0-1.1.2-1.7.5l.8-1.2.8-.1c1.3 0 2.3.4 2.4 1.9v1.8c0 1 0 1.3 1 1.5l-.5.8zM64.6 47.3c.4 0 .8.1 1.1-.2 0 .2.1.4.2.6l1.4 3.7 1.1-2.9c.2-.4.5-1-.1-1.3H70v.2c0 .1.1.4.2.6l1.3 3.5 1.1-2.9c.2-.4.5-1-.2-1.3H74l-2.4 5.9c-.8-.4-.9-.7-1.2-1.5l-1.1-2.8-1.7 4.3c-.9-.5-1-.6-1.3-1.5l-1.4-3.5c-.2-.4-.3-.7-.7-.9h.4zM80.7 53.1c-.8 0-1.6-.3-1.6-1.3v-1.9c-.4.2-.8.3-1.2.4-.6.1-1.3.3-1.3 1 0 .8.7 1 1.3 1 .3 0 .6-.1.9-.2l-.6.9c-.2 0-.4.1-.6.1-1.2 0-2.1-.8-2.1-1.8 0-2.3 3.7-1.2 3.7-2.6 0-.6-.7-.8-1.2-.8-.6 0-1.1.2-1.7.5l.8-1.2.8-.1c1.3 0 2.3.4 2.4 1.9v1.8c0 1 0 1.3 1 1.5l-.6.8zM88.1 46.5c0-.6.1-1.5-.5-1.7h2.9c1.6 0 2.6.7 2.6 1.8 0 .8-.5 1.3-1.2 1.6 1.1.2 2 1 2 2.2 0 .9-.7 1.8-1.5 2.2-.9.4-1.8.4-2.8.4h-2c.6-.2.5-1.1.5-1.7v-4.8zm1.7 1.6c.8 0 1.9-.3 1.9-1.3 0-.9-.8-1.3-1.5-1.2l-.8.1v2.4h.4zm.6 3.9c1 .1 2-.4 2-1.5 0-1.2-1.2-1.7-2.2-1.6h-.9v3l1.1.1zM97.1 49.9c0 1.5 1.1 2.4 2.5 2.4.7 0 1.5-.2 2-.7l-.6 1.2c-.5.2-1.1.3-1.7.3-2.1 0-3.5-1.3-3.5-3s1.2-3 3.1-3c1.7 0 2.8 1.2 2.8 2.8h-4.6zm3.2-.7c-.1-.9-.7-1.3-1.6-1.3-.8 0-1.4.5-1.6 1.3h3.2zM108.6 53.1c-.8 0-1.6-.3-1.6-1.3v-1.9c-.4.2-.8.3-1.2.4-.6.1-1.3.3-1.3 1 0 .8.7 1 1.3 1 .3 0 .6-.1.9-.2l-.7.9c-.2 0-.4.1-.6.1-1.2 0-2.1-.8-2.1-1.8 0-2.3 3.7-1.2 3.7-2.6 0-.6-.7-.8-1.2-.8-.6 0-1.1.2-1.7.5l.8-1.2.8-.1c1.3 0 2.3.4 2.4 1.9v1.8c0 1 0 1.3 1 1.5l-.5.8zM115.3 48.5c-.4-.4-1-.6-1.5-.6-1.2 0-2.1.8-2.1 2 0 1.4 1.2 2.4 2.6 2.4.6 0 1.3-.2 1.8-.6l-.6 1.2c-.5.2-1.1.2-1.6.2-1.9 0-3.4-1.2-3.4-2.8 0-2.1 1.7-3.1 3.5-3.1.4 0 .9 0 1.3.1v1.2zM118.3 44.8c.3 0 .6 0 .7-.2v3.2c.4-.5 1.2-.8 1.8-.8 1.7 0 2.1 1 2.1 2.2v2.2c0 .6-.1 1 .5 1.3h-2c.5-.3.5-.8.5-1.3v-1.9c0-1-.3-1.8-1.4-1.8-1.1 0-1.4.6-1.4 1.7v1.9c0 .6-.1 1 .5 1.3h-2.1c.5-.3.5-.8.5-1.3v-5.4c0-.6.1-1-.5-1.3h.8v.2zM28.7 6.7c0 1.4-1.1 2.5-2.5 2.5s-2.5-1.1-2.5-2.5 1.1-2.5 2.5-2.5 2.5 1.1 2.5 2.5zM99.3 6.7c0 1.4-1.1 2.5-2.5 2.5s-2.5-1.1-2.5-2.5 1.1-2.5 2.5-2.5 2.5 1.1 2.5 2.5zM28.2 30c0 1.6 1 1.5 2.9 1.5v.9H22v-.9c2.1 0 2.8.2 2.8-2.3V17.9c0-1.8-2.2-2.4-2.2-2.4v-.7l4.9-1.7h.6V30h.1zM98.8 30c0 1.6 1 1.5 2.9 1.5v.9h-9.1v-.9c2.1 0 2.8.2 2.8-2.3V17.9c0-1.8-2.2-2.4-2.2-2.4v-.7l4.9-1.7h.6V30h.1zM46.2 13.7V16h-6.4v10.9c0 3.6 1.6 4 2.4 4.1.8.1 2 0 3.4-1.3l.6.6c-1.9 2-3.5 2.8-5.6 2.8-3.1 0-4.2-1.5-4.1-5.6V16h-2.7v-.7c1.8-1.2 4.2-3 5.5-5.9h.6v4.4h6.3v-.1zM60.3 23c-.8.3-2 .6-3.4 1.1-3.2 1.1-4.6 2.3-4.6 4.3 0 1.8 1.7 2.9 3.4 2.9 1 0 1.7-.2 4.6-2.4V23zm-10-2.9c-1.3 0-.5-1.9-.4-2.1.8-1.7 4.6-4.4 7.7-4.6 1.5-.1 3.5-.2 4.9 1.7.8 1 1 1.5 1 4v6.6c0 3.9.3 4.8.8 5.1 1.3.7 2.3-.5 2.3-.5l.4.6c-1.4 1.5-2.9 2.3-4.1 2.3-1.9 0-2.7-1.6-2.7-3.2 0 0-3.1 3.2-6.2 3.2s-5.1-1.6-5.1-4c0-3.1 2.7-4.3 5.8-5.4 1.1-.4 3.3-1.2 5.5-1.9v-2.1c0-1.4.1-2.2-.8-3.2-.7-.8-2.3-1.3-3.4-1.3-1.5 0-3.1 1-3.3 2-.1.8-.1 1.5-.4 1.8-.1.2-.7 1-2 1zM83.7 18c-.2-2.9-2.4-3.6-4.9-3.6-3.7 0-6.1 3.4-6.1 8 0 4.7 2.6 8.6 7.3 8.4 1.4-.1 3.4-1.2 3.7-2.2V18zm0-13.1c0-2-2.2-2-2.2-2v-.6l5-2.3h.6v28.2c0 1.6-.3 2.6 1.6 2.6H90v.7L84.7 33h-.9l-.1-2.9h-.3c-2.3 2.5-4.8 3-6.9 3-4.7 0-7.5-4.4-7.5-9.4C69 17.9 74.1 13 79.1 13c1.4 0 3.2.1 4.5.8V4.9h.1zM110.7 29.1c0 2.6.2 2.4 3 2.4v1h-9.2v-.9c2.2 0 2.8 0 2.8-1.9V17.9c-.1-1.5-2.5-2.1-2.5-2.1v-.6l5.4-2.1h.5v3.1c2.8-1.8 4.3-3.2 7.5-3.2s5 1.7 5 6.9v10.5c0 1.3 3 1.1 3 1.1v.9h-9.3v-1c.8 0 2.1.1 2.6-.4.2-.2.2-.5.2-1.2v-9.9c0-4.2-1.7-4.6-3.7-4.7-2-.1-3.7 1.1-5.3 2v11.9zM139.1 19.3c.4 0 .7-.4.7-.7.4-2.8-1.4-4.4-3.7-4.4-1.5 0-4 .7-5 5.1h8zm4.3 1.1c-.1.2-.2.2-.3.2h-12c0 .4-.7 8.8 5.5 9.9 2.6.5 5.2-1.2 6.6-2.9l.6.6c-1.4 2.1-4.4 4.8-7.9 4.8-5.6 0-8.2-4.5-8.1-9.9.1-5 3-10.2 8.7-10.2 5.9 0 7.2 4.8 7.1 6.4-.1.1-.1.7-.2 1.1zM147.9 26.5c.6 2.8 2.3 5.3 5.1 5.3 1.9 0 3.4-1 3.5-2.8 0-.7.1-1.8-1.1-2.9-3-2.6-7.7-2.3-8.1-7.4-.2-2.9 2.3-5.7 6.6-5.7 1.6 0 3.6.5 4.8 1.2l.3 4.1h-1c-.7-3.3-2.5-4.1-4.4-4.1-1.5 0-3.5.8-3.5 2.7 0 5.1 9.9 3.8 9.9 10.1 0 3.7-3.7 5.9-6.9 5.9-3.7 0-5.6-1.4-5.6-1.4l-.5-4.9.9-.1zM18.5 18.2c-.2.2-.8.3-1 .1-.5-1.9-1.9-4.4-5.8-4.4-3.8 0-7.7 2.7-7.7 8.9 0 6.4 4 9.5 7.9 9.5 3.8 0 5.4-2.5 6.3-4.5.3-.3.7-.1.9.1-.2 2-1 4-1.4 4.6-.4.1-.7.2-1 .3-.7.2-2.7.7-4.7.7-3 0-5.5-.6-7.7-2C1.8 29.8 0 27.1 0 23.1c0-3.5 1.6-6.3 3.8-8 2.2-1.7 5.3-2.5 8.3-2.5 1.7 0 3.8.3 5.2.7.4.1.6.1.8.2.1.7.1 2.4.4 4.7z"/><path d="M28.7 6.7c0 1.4-1.1 2.5-2.5 2.5s-2.5-1.1-2.5-2.5 1.1-2.5 2.5-2.5 2.5 1.1 2.5 2.5zM99.3 6.7c0 1.4-1.1 2.5-2.5 2.5s-2.5-1.1-2.5-2.5 1.1-2.5 2.5-2.5 2.5 1.1 2.5 2.5zM28.2 30c0 1.6 1 1.5 2.9 1.5v.9H22v-.9c2.1 0 2.8.2 2.8-2.3V17.9c0-1.8-2.2-2.4-2.2-2.4v-.7l4.9-1.7h.6V30h.1zM98.8 30c0 1.6 1 1.5 2.9 1.5v.9h-9.1v-.9c2.1 0 2.8.2 2.8-2.3V17.9c0-1.8-2.2-2.4-2.2-2.4v-.7l4.9-1.7h.6V30h.1zM46.2 13.7V16h-6.4v10.9c0 3.6 1.6 4 2.4 4.1.8.1 2 0 3.4-1.3l.6.6c-1.9 2-3.5 2.8-5.6 2.8-3.1 0-4.2-1.5-4.1-5.6V16h-2.7v-.7c1.8-1.2 4.2-3 5.5-5.9h.6v4.4h6.3v-.1zM60.3 23c-.8.3-2 .6-3.4 1.1-3.2 1.1-4.6 2.3-4.6 4.3 0 1.8 1.7 2.9 3.4 2.9 1 0 1.7-.2 4.6-2.4V23zm-10-2.9c-1.3 0-.5-1.9-.4-2.1.8-1.7 4.6-4.4 7.7-4.6 1.5-.1 3.5-.2 4.9 1.7.8 1 1 1.5 1 4v6.6c0 3.9.3 4.8.8 5.1 1.3.7 2.3-.5 2.3-.5l.4.6c-1.4 1.5-2.9 2.3-4.1 2.3-1.9 0-2.7-1.6-2.7-3.2 0 0-3.1 3.2-6.2 3.2s-5.1-1.6-5.1-4c0-3.1 2.7-4.3 5.8-5.4 1.1-.4 3.3-1.2 5.5-1.9v-2.1c0-1.4.1-2.2-.8-3.2-.7-.8-2.3-1.3-3.4-1.3-1.5 0-3.1 1-3.3 2-.1.8-.1 1.5-.4 1.8-.1.2-.7 1-2 1zM83.7 18c-.2-2.9-2.4-3.6-4.9-3.6-3.7 0-6.1 3.4-6.1 8 0 4.7 2.6 8.6 7.3 8.4 1.4-.1 3.4-1.2 3.7-2.2V18zm0-13.1c0-2-2.2-2-2.2-2v-.6l5-2.3h.6v28.2c0 1.6-.3 2.6 1.6 2.6H90v.7L84.7 33h-.9l-.1-2.9h-.3c-2.3 2.5-4.8 3-6.9 3-4.7 0-7.5-4.4-7.5-9.4C69 17.9 74.1 13 79.1 13c1.4 0 3.2.1 4.5.8V4.9h.1zM110.7 29.1c0 2.6.2 2.4 3 2.4v1h-9.2v-.9c2.2 0 2.8 0 2.8-1.9V17.9c-.1-1.5-2.5-2.1-2.5-2.1v-.6l5.4-2.1h.5v3.1c2.8-1.8 4.3-3.2 7.5-3.2s5 1.7 5 6.9v10.5c0 1.3 3 1.1 3 1.1v.9h-9.3v-1c.8 0 2.1.1 2.6-.4.2-.2.2-.5.2-1.2v-9.9c0-4.2-1.7-4.6-3.7-4.7-2-.1-3.7 1.1-5.3 2v11.9zM139.1 19.3c.4 0 .7-.4.7-.7.4-2.8-1.4-4.4-3.7-4.4-1.5 0-4 .7-5 5.1h8zm4.3 1.1c-.1.2-.2.2-.3.2h-12c0 .4-.7 8.8 5.5 9.9 2.6.5 5.2-1.2 6.6-2.9l.6.6c-1.4 2.1-4.4 4.8-7.9 4.8-5.6 0-8.2-4.5-8.1-9.9.1-5 3-10.2 8.7-10.2 5.9 0 7.2 4.8 7.1 6.4-.1.1-.1.7-.2 1.1zM147.9 26.5c.6 2.8 2.3 5.3 5.1 5.3 1.9 0 3.4-1 3.5-2.8 0-.7.1-1.8-1.1-2.9-3-2.6-7.7-2.3-8.1-7.4-.2-2.9 2.3-5.7 6.6-5.7 1.6 0 3.6.5 4.8 1.2l.3 4.1h-1c-.7-3.3-2.5-4.1-4.4-4.1-1.5 0-3.5.8-3.5 2.7 0 5.1 9.9 3.8 9.9 10.1 0 3.7-3.7 5.9-6.9 5.9-3.7 0-5.6-1.4-5.6-1.4l-.5-4.9.9-.1zM18.5 18.2c-.2.2-.8.3-1 .1-.5-1.9-1.9-4.4-5.8-4.4-3.8 0-7.7 2.7-7.7 8.9 0 6.4 4 9.5 7.9 9.5 3.8 0 5.4-2.5 6.3-4.5.3-.3.7-.1.9.1-.2 2-1 4-1.4 4.6-.4.1-.7.2-1 .3-.7.2-2.7.7-4.7.7-3 0-5.5-.6-7.7-2C1.8 29.8 0 27.1 0 23.1c0-3.5 1.6-6.3 3.8-8 2.2-1.7 5.3-2.5 8.3-2.5 1.7 0 3.8.3 5.2.7.4.1.6.1.8.2.1.7.1 2.4.4 4.7z"/></g><defs><clipPath id="clip0"><path fill="#fff" d="M0 0h160v68H0z"/></clipPath></defs></svg>