<svg id="Layer_1" xmlns="http://www.w3.org/2000/svg" viewBox="0 0 157.8 68"><style>.st0{fill:#847362}</style><path class="st0" d="M72.5 41.3c0-.4.1-1-.4-1.1h2c1.1 0 1.7.5 1.7 1.2 0 .6-.4.9-.8 1.1.7.2 1.3.7 1.3 1.5 0 .6-.4 1.2-1 1.4-.6.3-1.2.3-1.9.3H72c.4-.2.4-.8.4-1.1v-3.3zm1.2 1c.5 0 1.3-.2 1.3-.9 0-.6-.5-.9-1-.8l-.6.1v1.6h.3zm.4 2.7c.7.1 1.4-.2 1.4-1s-.8-1.1-1.5-1.1h-.6v2l.7.1zM81.2 45.7c-.5 0-1.1-.2-1.1-.9v-1.3c-.2.1-.5.2-.8.3-.4.1-.8.2-.8.7 0 .5.5.7.9.7.2 0 .4-.1.6-.1l-.5.6h-.4c-.8 0-1.4-.5-1.4-1.2 0-1.5 2.5-.8 2.5-1.7 0-.4-.5-.5-.8-.5-.4 0-.8.2-1.1.3l.6-.8h.5c.9 0 1.6.3 1.6 1.3v1.2c0 .7 0 .9.7 1l-.5.4zM83 40.1c.2 0 .4 0 .5-.1v4.7c0 .4-.1.7.3.9h-1.4c.4-.2.3-.5.3-.9V41c0-.4 0-.7-.3-.9h.6zM85.9 41.7c.2 0 .4 0 .5-.1v3c0 .4 0 .7.3.9h-1.4c.4-.2.3-.5.3-.9v-2c0-.4 0-.7-.3-.9h.6zm.1-.5c-.3 0-.5-.2-.5-.5s.3-.5.5-.5c.3 0 .5.2.5.5s-.2.5-.5.5z"/><g><path class="st0" d="M50.7 31.2c0-.4.1-1-.4-1.1h2c1.1 0 1.7.5 1.7 1.2 0 .6-.4.9-.8 1.1.7.2 1.3.7 1.3 1.5 0 .6-.4 1.2-1 1.4-.6.3-1.2.3-1.9.3h-1.4c.4-.2.4-.8.4-1.1v-3.3zm1.1 1.1c.5 0 1.3-.2 1.3-.9 0-.6-.5-.9-1-.8l-.6.1v1.6h.3zm.4 2.6c.7.1 1.4-.2 1.4-1s-.8-1.1-1.5-1.1h-.6v2l.7.1zM56.7 33.5c0 1 .7 1.6 1.7 1.6.5 0 1-.1 1.4-.4l-.4.8c-.4.1-.8.2-1.1.2-1.4 0-2.4-.9-2.4-2s.8-2 2.1-2c1.1 0 1.9.8 1.9 1.9h-3.2zm2.2-.5c-.1-.6-.5-.9-1.1-.9-.6 0-1 .3-1.1.9h2.2zM61.6 31.7c.2 0 .4 0 .5-.1v.6c.2-.4.6-.6 1-.6h.3v.8c-.1-.1-.2-.1-.4-.1-.6 0-.9.3-.9 1.2v1.2c0 .4 0 .7.3.9H61c.4-.2.3-.5.3-.9v-2c0-.4 0-.7-.3-.9h.6zM67.9 35.6c-.5 0-1.1-.2-1.1-.9v-1.3c-.2.1-.5.2-.8.3-.4.1-.8.2-.8.7 0 .5.5.7.9.7.2 0 .4-.1.6-.1l-.5.6h-.4c-.8 0-1.4-.5-1.4-1.2 0-1.5 2.5-.8 2.5-1.7 0-.4-.5-.5-.8-.5-.4 0-.8.2-1.1.3l.6-.8h.5c.9 0 1.6.3 1.6 1.3v1.2c0 .7 0 .9.7 1l-.5.4zM69.1 31.7c.3 0 .6 0 .8-.1 0 .1 0 .3.1.4l1 2.5.8-1.9c.1-.3.3-.7-.1-.9h1.1v.1c0 .1.1.3.1.4l.9 2.3.8-1.9c.1-.3.3-.7-.1-.9h1.1l-1.6 4c-.6-.3-.6-.4-.8-1l-.7-1.9-1.1 2.9c-.6-.3-.7-.4-.9-1l-.9-2.3c-.1-.3-.2-.5-.4-.6h-.1zM79.9 35.6c-.5 0-1.1-.2-1.1-.9v-1.3c-.2.1-.5.2-.8.3-.4.1-.8.2-.8.7 0 .5.5.7.9.7.2 0 .4-.1.6-.1l-.5.6h-.4c-.8 0-1.4-.5-1.4-1.2 0-1.5 2.5-.8 2.5-1.7 0-.4-.5-.5-.8-.5-.4 0-.8.2-1.1.3l.6-.8h.5c.9 0 1.6.3 1.6 1.3v1.2c0 .7 0 .9.7 1l-.5.4zM84.9 31.2c0-.4.1-1-.4-1.1h2c1.1 0 1.7.5 1.7 1.2 0 .6-.4.9-.8 1.1.7.2 1.3.7 1.3 1.5 0 .6-.4 1.2-1 1.4-.6.3-1.2.3-1.9.3h-1.4c.4-.2.4-.8.4-1.1v-3.3zm1.1 1.1c.5 0 1.3-.2 1.3-.9 0-.6-.5-.9-1-.8l-.6.1v1.6h.3zm.4 2.6c.7.1 1.4-.2 1.4-1s-.8-1.1-1.5-1.1h-.6v2l.7.1zM90.9 33.5c0 1 .7 1.6 1.7 1.6.5 0 1-.1 1.4-.4l-.4.8c-.4.1-.8.2-1.1.2-1.4 0-2.4-.9-2.4-2s.8-2 2.1-2c1.1 0 1.9.8 1.9 1.9h-3.2zm2.2-.5c-.1-.6-.5-.9-1.1-.9-.6 0-1 .3-1.1.9h2.2zM98.6 35.6c-.5 0-1.1-.2-1.1-.9v-1.3c-.2.1-.5.2-.8.3-.4.1-.8.2-.8.7 0 .5.5.7.9.7.2 0 .4-.1.6-.1l-.5.6h-.4c-.8 0-1.4-.5-1.4-1.2 0-1.5 2.5-.8 2.5-1.7 0-.4-.5-.5-.8-.5-.4 0-.8.2-1.1.3l.6-.8h.5c.9 0 1.6.3 1.6 1.3v1.2c0 .7 0 .9.7 1l-.5.4zM103.2 32.6c-.3-.3-.7-.4-1-.4-.8 0-1.4.6-1.4 1.3 0 1 .8 1.6 1.7 1.6.4 0 .9-.2 1.2-.4l-.4.8c-.3.1-.7.2-1.1.2-1.3 0-2.3-.8-2.3-1.9 0-1.4 1.1-2.1 2.4-2.1.3 0 .6 0 .9.1v.8zM105.1 30.1c.2 0 .4 0 .5-.1v2.2c.2-.4.8-.5 1.2-.5 1.1 0 1.4.7 1.4 1.5v1.5c0 .4 0 .7.3.9h-1.4c.4-.2.3-.5.3-.9v-1.3c0-.7-.2-1.2-.9-1.2s-1 .4-1 1.1v1.3c0 .4 0 .7.3.9h-1.4c.4-.2.3-.5.3-.9V31c0-.4 0-.7-.3-.9h.7z"/></g><g><path class="st0" d="M45 4.5c0 .9-.7 1.7-1.7 1.7-.9 0-1.7-.8-1.7-1.7s.7-1.7 1.7-1.7 1.7.7 1.7 1.7M92.4 4.5c0 .9-.7 1.7-1.7 1.7-.9 0-1.7-.8-1.7-1.7s.7-1.7 1.7-1.7 1.7.7 1.7 1.7M44.7 20.2c0 1.1.7 1 2 1v.6h-6.1v-.6c1.4 0 1.9.1 1.9-1.5V12c0-1.2-1.5-1.6-1.5-1.6V10l3.3-1.1h.4v11.3zM92.1 20.2c0 1.1.7 1 2 1v.6H88v-.6c1.4 0 1.9.1 1.9-1.5V12c0-1.2-1.5-1.6-1.5-1.6V10l3.3-1.1h.4v11.3zM56.8 9.2v1.5h-4.3V18c0 2.4 1.1 2.7 1.6 2.7.5.1 1.3 0 2.3-.8l.4.4c-1.3 1.3-2.4 1.9-3.8 1.9-2.1 0-2.8-1-2.8-3.7v-7.8h-1.8v-.5c1.2-.8 2.8-2 3.7-4h.4v3h4.3zM66.2 15.4c-.6.2-1.3.4-2.3.8-2.1.8-3.1 1.5-3.1 2.9 0 1.2 1.2 1.9 2.3 1.9.7 0 1.2-.1 3.1-1.6v-4zm-6.7-1.9c-.9 0-.3-1.3-.3-1.4.6-1.1 3.1-3 5.2-3.1 1-.1 2.3-.1 3.3 1.2.5.7.7 1 .7 2.7v4.4c0 2.6.2 3.2.6 3.4.9.5 1.5-.3 1.5-.3l.3.4c-1 1-2 1.5-2.8 1.5-1.3 0-1.8-1.1-1.8-2.2 0 0-2.1 2.2-4.2 2.2s-3.4-1.1-3.4-2.7c0-2.1 1.8-2.9 3.9-3.7.7-.3 2.2-.8 3.7-1.3v-1.4c0-.9.1-1.5-.5-2.1-.4-.5-1.5-.9-2.3-.9-1 0-2.1.6-2.2 1.4-.1.5-.1 1-.3 1.2-.1.2-.5.7-1.4.7M81.9 12c-.1-2-1.6-2.4-3.3-2.4-2.5 0-4.1 2.3-4.1 5.3 0 3.1 1.7 5.8 4.9 5.6 1-.1 2.3-.8 2.5-1.5v-7zm0-8.7c0-1.4-1.5-1.3-1.5-1.3v-.4L83.8 0h.4v18.9c0 1.1-.2 1.7 1 1.7h.8v.4l-3.5 1.1h-.6v-1.9h-.2c-1.5 1.7-3.2 2-4.6 2-3.2 0-5.1-3-5.1-6.3 0-3.9 3.4-7.2 6.8-7.2.9 0 2.1.1 3 .5V3.3zM100 19.5c0 1.8.1 1.6 2 1.6v.7h-6.1v-.6c1.5 0 1.9 0 1.9-1.3V12c-.1-1-1.7-1.4-1.7-1.4v-.4l3.6-1.4h.3v2.1c1.9-1.2 2.9-2.2 5-2.2 2.2 0 3.4 1.1 3.4 4.7v7c0 .9 2 .7 2 .7v.6h-6.3V21c.5 0 1.4 0 1.7-.3.1-.1.2-.4.2-.8v-6.7c0-2.8-1.2-3.1-2.5-3.1-1.3-.1-2.5.8-3.5 1.3v8.1zM119.1 13c.3 0 .4-.3.5-.5.3-1.8-.9-2.9-2.5-2.9-1 0-2.7.5-3.4 3.4h5.4zm2.9.7c-.1.1-.1.2-.2.2h-8.1c0 .3-.5 5.9 3.7 6.7 1.7.3 3.5-.8 4.4-1.9l.4.4c-1 1.4-3 3.2-5.3 3.2-3.8 0-5.5-3-5.5-6.6.1-3.3 2-6.8 5.8-6.8 3.9 0 4.8 3.2 4.8 4.3.1-.2.1.2 0 .5M125 17.8c.4 1.9 1.5 3.6 3.4 3.6 1.3 0 2.3-.7 2.4-1.9 0-.4.1-1.2-.8-1.9-2-1.7-5.2-1.6-5.4-5-.1-1.9 1.5-3.8 4.4-3.8 1.1 0 2.4.3 3.2.8l.2 2.8h-.7c-.5-2.2-1.7-2.8-2.9-2.8-1 0-2.4.6-2.4 1.8 0 3.4 6.7 2.6 6.7 6.8 0 2.5-2.5 4-4.6 4-2.5 0-3.8-1-3.8-1l-.3-3.3.6-.1zM38.2 12.2c-.1.2-.5.2-.6 0-.3-1.3-1.2-2.9-3.9-2.9-2.6 0-5.1 1.8-5.1 5.9 0 4.3 2.7 6.4 5.3 6.4 2.5 0 3.6-1.7 4.2-3 .2-.2.5-.1.6.1-.1 1.4-.7 2.7-1 3.1-.2 0-.5.1-.7.2-.4.1-1.8.5-3.1.5-2 0-3.7-.4-5.2-1.4-1.6-1.1-2.9-2.9-2.9-5.5 0-2.4 1-4.2 2.5-5.3 1.5-1.1 3.5-1.7 5.6-1.7 1.1 0 2.5.2 3.5.4h.5c.1.5.1 1.7.3 3.2"/><path class="st0" d="M45 4.5c0 .9-.7 1.7-1.7 1.7-.9 0-1.7-.8-1.7-1.7s.7-1.7 1.7-1.7 1.7.7 1.7 1.7M92.4 4.5c0 .9-.7 1.7-1.7 1.7-.9 0-1.7-.8-1.7-1.7s.7-1.7 1.7-1.7 1.7.7 1.7 1.7M44.7 20.2c0 1.1.7 1 2 1v.6h-6.1v-.6c1.4 0 1.9.1 1.9-1.5V12c0-1.2-1.5-1.6-1.5-1.6V10l3.3-1.1h.4v11.3zM92.1 20.2c0 1.1.7 1 2 1v.6H88v-.6c1.4 0 1.9.1 1.9-1.5V12c0-1.2-1.5-1.6-1.5-1.6V10l3.3-1.1h.4v11.3zM56.8 9.2v1.5h-4.3V18c0 2.4 1.1 2.7 1.6 2.7.5.1 1.3 0 2.3-.8l.4.4c-1.3 1.3-2.4 1.9-3.8 1.9-2.1 0-2.8-1-2.8-3.7v-7.8h-1.8v-.5c1.2-.8 2.8-2 3.7-4h.4v3h4.3zM66.2 15.4c-.6.2-1.3.4-2.3.8-2.1.8-3.1 1.5-3.1 2.9 0 1.2 1.2 1.9 2.3 1.9.7 0 1.2-.1 3.1-1.6v-4zm-6.7-1.9c-.9 0-.3-1.3-.3-1.4.6-1.1 3.1-3 5.2-3.1 1-.1 2.3-.1 3.3 1.2.5.7.7 1 .7 2.7v4.4c0 2.6.2 3.2.6 3.4.9.5 1.5-.3 1.5-.3l.3.4c-1 1-2 1.5-2.8 1.5-1.3 0-1.8-1.1-1.8-2.2 0 0-2.1 2.2-4.2 2.2s-3.4-1.1-3.4-2.7c0-2.1 1.8-2.9 3.9-3.7.7-.3 2.2-.8 3.7-1.3v-1.4c0-.9.1-1.5-.5-2.1-.4-.5-1.5-.9-2.3-.9-1 0-2.1.6-2.2 1.4-.1.5-.1 1-.3 1.2-.1.2-.5.7-1.4.7M81.9 12c-.1-2-1.6-2.4-3.3-2.4-2.5 0-4.1 2.3-4.1 5.3 0 3.1 1.7 5.8 4.9 5.6 1-.1 2.3-.8 2.5-1.5v-7zm0-8.7c0-1.4-1.5-1.3-1.5-1.3v-.4L83.8 0h.4v18.9c0 1.1-.2 1.7 1 1.7h.8v.4l-3.5 1.1h-.6v-1.9h-.2c-1.5 1.7-3.2 2-4.6 2-3.2 0-5.1-3-5.1-6.3 0-3.9 3.4-7.2 6.8-7.2.9 0 2.1.1 3 .5V3.3zM100 19.5c0 1.8.1 1.6 2 1.6v.7h-6.1v-.6c1.5 0 1.9 0 1.9-1.3V12c-.1-1-1.7-1.4-1.7-1.4v-.4l3.6-1.4h.3v2.1c1.9-1.2 2.9-2.2 5-2.2 2.2 0 3.4 1.1 3.4 4.7v7c0 .9 2 .7 2 .7v.6h-6.3V21c.5 0 1.4 0 1.7-.3.1-.1.2-.4.2-.8v-6.7c0-2.8-1.2-3.1-2.5-3.1-1.3-.1-2.5.8-3.5 1.3v8.1zM119.1 13c.3 0 .4-.3.5-.5.3-1.8-.9-2.9-2.5-2.9-1 0-2.7.5-3.4 3.4h5.4zm2.9.7c-.1.1-.1.2-.2.2h-8.1c0 .3-.5 5.9 3.7 6.7 1.7.3 3.5-.8 4.4-1.9l.4.4c-1 1.4-3 3.2-5.3 3.2-3.8 0-5.5-3-5.5-6.6.1-3.3 2-6.8 5.8-6.8 3.9 0 4.8 3.2 4.8 4.3.1-.2.1.2 0 .5M125 17.8c.4 1.9 1.5 3.6 3.4 3.6 1.3 0 2.3-.7 2.4-1.9 0-.4.1-1.2-.8-1.9-2-1.7-5.2-1.6-5.4-5-.1-1.9 1.5-3.8 4.4-3.8 1.1 0 2.4.3 3.2.8l.2 2.8h-.7c-.5-2.2-1.7-2.8-2.9-2.8-1 0-2.4.6-2.4 1.8 0 3.4 6.7 2.6 6.7 6.8 0 2.5-2.5 4-4.6 4-2.5 0-3.8-1-3.8-1l-.3-3.3.6-.1zM38.2 12.2c-.1.2-.5.2-.6 0-.3-1.3-1.2-2.9-3.9-2.9-2.6 0-5.1 1.8-5.1 5.9 0 4.3 2.7 6.4 5.3 6.4 2.5 0 3.6-1.7 4.2-3 .2-.2.5-.1.6.1-.1 1.4-.7 2.7-1 3.1-.2 0-.5.1-.7.2-.4.1-1.8.5-3.1.5-2 0-3.7-.4-5.2-1.4-1.6-1.1-2.9-2.9-2.9-5.5 0-2.4 1-4.2 2.5-5.3 1.5-1.1 3.5-1.7 5.6-1.7 1.1 0 2.5.2 3.5.4h.5c.1.5.1 1.7.3 3.2"/></g><g><path class="st0" d="M2.7 59.8h.9l2.6 6.4h-1l-.7-1.7h-3l-.7 1.7H0l2.7-6.4zm-.8 4.1h2.4l-1.2-3.1-1.2 3.1zM13.1 59.9h.8v6.4h-.8v-.7c-.1.1-.2.3-.4.5-.4.2-.8.3-1.1.3-.6 0-1.9-.3-1.9-2.3 0-1.7 1-2.4 2-2.4s1.3.6 1.4.8v-2.6zm-.3 2.8c-.2-.2-.5-.5-1-.5-1.2 0-1.2 1.5-1.2 1.8 0 .8.2 1.7 1.2 1.7 1.3 0 1.3-1.4 1.3-1.8 0-.6-.1-.9-.3-1.2zM16.2 64.2c0 .9.4 1.6 1.3 1.6.5 0 1-.3 1-.9h.8c0 .2-.1.6-.4.9-.2.2-.6.6-1.5.6-1.4 0-2.1-.9-2.1-2.3 0-.9.2-1.6.9-2.1.4-.3 1-.3 1.2-.3 2 0 2 1.8 1.9 2.5h-3.1zm2.3-.6c0-.4-.1-1.3-1.1-1.3-.5 0-1.2.3-1.2 1.3h2.3zM20.1 61.8h.9l1.4 3.5 1.4-3.5h.9l-2 4.5H22l-1.9-4.5zM26.5 64.2c0 .9.4 1.6 1.3 1.6.5 0 1-.3 1-.9h.8c0 .2-.1.6-.4.9-.2.2-.6.6-1.5.6-1.4 0-2.1-.9-2.1-2.3 0-.9.2-1.6.9-2.1.4-.3 1-.3 1.2-.3 2 0 2 1.8 1.9 2.5h-3.1zm2.3-.6c0-.4-.1-1.3-1.1-1.3-.5 0-1.2.3-1.2 1.3h2.3zM31.2 59.9h.8v6.4h-.8v-6.4zM35.8 61.7c1.8 0 2.2 1.4 2.2 2.3 0 1.3-.7 2.4-2.3 2.4-1.5 0-2.2-1-2.2-2.3 0-1.1.5-2.4 2.3-2.4zm-.1 4.1c.6 0 1.3-.5 1.3-1.8 0-1.1-.5-1.7-1.3-1.7-.5 0-1.4.3-1.4 1.7.1.9.5 1.8 1.4 1.8zM39.4 62.5v-.7h.8v.7c.4-.7 1.2-.8 1.5-.8 1 0 1.9.7 1.9 2.3 0 1.7-1 2.4-2 2.4-.6 0-1.1-.3-1.4-.7V68h-.8v-5.5zm2.1 3.3c.2 0 .7 0 .9-.4.3-.4.4-1.1.4-1.4 0-.8-.2-1.6-1.2-1.6-1.3 0-1.3 1.4-1.3 1.8-.1.5 0 1.6 1.2 1.6zM45.1 62.4v-.6h.8v.6c.4-.7 1-.8 1.4-.8 1 0 1.3.5 1.5.8.2-.2.5-.8 1.5-.8.6 0 1.6.3 1.6 1.6v3h-.8v-2.9c0-.4-.1-.6-.2-.7-.1-.2-.4-.4-.9-.4s-.8.3-.9.5c-.2.3-.2.8-.2 1v2.5h-.8v-2.9c0-.6-.3-1-1-1-.6 0-.9.4-1 .5-.2.3-.2.6-.2.9v2.5h-.8v-3.8zM54.2 64.2c0 .9.4 1.6 1.3 1.6.5 0 1-.3 1-.9h.8c0 .2-.1.6-.4.9-.2.2-.6.6-1.5.6-1.4 0-2.1-.9-2.1-2.3 0-.9.2-1.6.9-2.1.4-.3 1-.3 1.2-.3 2 0 2 1.8 1.9 2.5h-3.1zm2.4-.6c0-.4-.1-1.3-1.1-1.3-.5 0-1.2.3-1.2 1.3h2.3zM58.9 62.3v-.5h.8v.7c.1-.2.4-.8 1.4-.8.4 0 1.6.2 1.6 1.5v3h-.9v-2.8c0-.3 0-.6-.2-.8-.2-.2-.5-.3-.8-.3-.6 0-1.2.4-1.2 1.3v2.6h-.8v-3.9zM63.8 61.8h.8v-.9l.8-.3v1.2h1v.6h-1v2.7c0 .2 0 .6.6.6h.4v.6c-.2 0-.4.1-.7.1-.8 0-1.1-.2-1.1-.9v-3h-.8v-.7zM71.2 62.4c.1-.2.4-.8 1.5-.8.4 0 1 .1 1.4.6.2.3.5.7.5 1.7 0 .9-.2 1.3-.4 1.6-.4.5-.9.8-1.6.8-.2 0-.6 0-1-.3-.2-.2-.3-.3-.4-.5v.7h-.8V59.8h.8v2.6zm1.3-.2c-1.3 0-1.3 1.5-1.3 1.8 0 .3 0 1.7 1.2 1.7 1 0 1.3-1 1.3-1.7 0-.5-.1-1.8-1.2-1.8zM78 66.3l-.6 1.7h-.9l.7-1.7-1.9-4.4h.9l1.4 3.5 1.4-3.5h1l-2 4.4zM88.2 61.4c-.1-.6-.6-1-1.4-1-.6 0-1.1.2-1.4.5-.6.6-.7 1.5-.7 2.1 0 .5.1 1.5.6 2 .4.5 1.1.6 1.7.6.7 0 1.2-.1 1.4-.2v-1.9h-1.5v-.7h2.4V66c-.4.1-1.2.4-2.3.4-1.2 0-1.9-.3-2.3-.8-.6-.6-.9-1.5-.9-2.4 0-.6.2-2.1 1.4-3 .6-.4 1.5-.5 1.8-.5.5 0 1.3.1 1.9.7.4.4.4.8.4 1h-1.1zM91.5 64.2c0 .9.4 1.6 1.3 1.6.5 0 1-.3 1-.9h.8c0 .2-.1.6-.4.9-.2.2-.6.6-1.5.6-1.4 0-2.1-.9-2.1-2.3 0-.9.2-1.6.9-2.1.4-.3 1-.3 1.2-.3 2 0 2 1.8 1.9 2.5h-3.1zm2.4-.6c0-.4-.1-1.3-1.1-1.3-.5 0-1.2.3-1.2 1.3h2.3zM96.2 62.3v-.5h.8v.7c.1-.2.4-.8 1.4-.8.4 0 1.6.2 1.6 1.5v3h-.9v-2.8c0-.3 0-.6-.2-.8-.2-.2-.5-.3-.8-.3-.6 0-1.2.4-1.2 1.3v2.6h-.8v-3.9zM102.3 64.2c0 .9.4 1.6 1.3 1.6.5 0 1-.3 1-.9h.8c0 .2-.1.6-.4.9-.2.2-.6.6-1.5.6-1.4 0-2.1-.9-2.1-2.3 0-.9.2-1.6.9-2.1.4-.3 1-.3 1.2-.3 2 0 2 1.8 1.9 2.5h-3.1zm2.4-.6c0-.4-.1-1.3-1.1-1.3-.5 0-1.2.3-1.2 1.3h2.3zM107.4 64.9c0 .3.2.8 1 .8.3 0 .6-.1.8-.3.1-.1.1-.3.1-.4 0-.4-.3-.5-1-.7-.9-.2-1.7-.4-1.7-1.3 0-.8.7-1.3 1.7-1.3.6 0 1.3.2 1.6.7.1.2.1.5.1.6h-.9c0-.7-.6-.7-.9-.7-.1 0-.9 0-.9.6 0 .4.4.5.6.6 1.2.3 1.5.4 1.8.6.2.2.3.5.3.8 0 .5-.3.9-.6 1.1-.4.2-.9.3-1.3.3-.9 0-1.7-.4-1.7-1.4h1zM111.5 59.9h1v.9h-1v-.9zm.1 1.9h.8v4.5h-.8v-4.5zM114.8 64.9c0 .3.2.8 1 .8.3 0 .6-.1.8-.3.1-.1.1-.3.1-.4 0-.4-.3-.5-1-.7-.9-.2-1.7-.4-1.7-1.3 0-.8.7-1.3 1.7-1.3.6 0 1.3.2 1.6.7.1.2.1.5.1.6h-.9c0-.7-.6-.7-.9-.7-.1 0-.9 0-.9.6 0 .4.4.5.6.6 1.2.3 1.5.4 1.8.6.2.2.3.5.3.8 0 .5-.3.9-.6 1.1-.4.2-.9.3-1.3.3-.9 0-1.7-.4-1.7-1.4h1zM121.7 59.8h.9v6.4h-.9v-6.4zM124.4 62.3v-.5h.8v.7c.1-.2.4-.8 1.4-.8.4 0 1.6.2 1.6 1.5v3h-.9v-2.8c0-.3 0-.6-.2-.8-.2-.2-.5-.3-.8-.3-.6 0-1.2.4-1.2 1.3v2.6h-.8v-3.9zM133.1 59.9h.8v6.4h-.8v-.7c-.1.1-.2.3-.4.5-.4.2-.8.3-1.1.3-.6 0-1.9-.3-1.9-2.3 0-1.7 1-2.4 2-2.4s1.3.6 1.4.8v-2.6zm-.3 2.8c-.2-.2-.5-.5-1-.5-1.2 0-1.2 1.5-1.2 1.8 0 .8.2 1.7 1.2 1.7 1.3 0 1.3-1.4 1.3-1.8 0-.6-.1-.9-.3-1.2zM137.6 61.7c1.8 0 2.2 1.4 2.2 2.3 0 1.3-.7 2.4-2.3 2.4-1.5 0-2.2-1-2.2-2.3 0-1.1.5-2.4 2.3-2.4zm-.1 4.1c.6 0 1.3-.5 1.3-1.8 0-1.1-.5-1.7-1.3-1.7-.5 0-1.4.3-1.4 1.7.1.9.5 1.8 1.4 1.8zM140.5 67.4c.7 0 .8-.1.8-.8v-4.8h.8v4.9c0 .4 0 1.3-1.1 1.3h-.5v-.6zm.7-7.5h1v.9h-1v-.9zM146.7 66.3c-.1-.2-.1-.4-.1-.7-.4.7-1 .8-1.4.8-1 0-1.6-.6-1.6-1.3 0-.4.1-.9.8-1.3.5-.3 1.2-.3 1.5-.3h.6c0-.6 0-.8-.2-1-.2-.2-.5-.3-.8-.3-.8 0-.9.6-.9.8h-.8c0-.2.1-.5.3-.8.3-.4 1-.5 1.4-.5.6 0 1.3.2 1.6.7.1.3.2.5.2.7v2.1c0 .1 0 .7.1 1.1h-.7zm-.6-2.2c-.3 0-1.6 0-1.6.9 0 .3.2.8.9.8.4 0 .7-.2.9-.5.2-.3.2-.6.2-1.2h-.4zM151.1 66.3l-.6 1.7h-.9l.7-1.7-1.9-4.4h.9l1.4 3.5 1.4-3.5h.9l-1.9 4.4zM157 66.3c-.1-.2-.1-.4-.1-.7-.4.7-1 .8-1.4.8-1 0-1.6-.6-1.6-1.3 0-.4.1-.9.8-1.3.5-.3 1.2-.3 1.5-.3h.6c0-.6 0-.8-.2-1-.2-.2-.5-.3-.8-.3-.8 0-.9.6-.9.8h-.8c0-.2.1-.5.3-.8.3-.4 1-.5 1.4-.5.6 0 1.3.2 1.6.7.1.3.2.5.2.7v2.1c0 .1 0 .7.1 1.1h-.7zm-.6-2.2c-.3 0-1.6 0-1.6.9 0 .3.2.8.9.8.4 0 .7-.2.9-.5.2-.3.2-.6.2-1.2h-.4z"/></g></svg>