<svg width="462" height="369" viewBox="0 0 462 369" fill="none" xmlns="http://www.w3.org/2000/svg"><path d="M91.651 19.402h-4.17L86.545 22H85.19l3.801-9.953h1.149L93.948 22h-1.346l-.95-2.598zm-3.773-1.08h3.384l-1.696-4.655-1.688 4.655zm8.408-3.718l.041.93c.565-.712 1.303-1.067 2.215-1.067 1.563 0 2.352.882 2.365 2.645V22h-1.264v-4.895c-.005-.533-.128-.927-.37-1.182-.236-.255-.608-.383-1.114-.383-.41 0-.77.11-1.08.328-.31.219-.551.506-.724.862V22H95.09v-7.396h1.196zm7.725 0l.041.93c.565-.712 1.303-1.067 2.215-1.067 1.563 0 2.351.882 2.365 2.645V22h-1.265v-4.895c-.004-.533-.127-.927-.369-1.182-.237-.255-.608-.383-1.114-.383-.41 0-.77.11-1.08.328-.31.219-.552.506-.725.862V22h-1.265v-7.396h1.197zm11.094 6.665c-.492.578-1.214.868-2.167.868-.788 0-1.389-.228-1.804-.684-.41-.46-.618-1.14-.622-2.037v-4.813h1.264v4.779c0 1.12.456 1.681 1.368 1.681.966 0 1.608-.36 1.927-1.08v-5.38h1.265V22h-1.203l-.028-.731zm7.725.731c-.073-.146-.132-.406-.178-.78-.588.611-1.289.917-2.105.917-.729 0-1.329-.205-1.798-.616a2.015 2.015 0 0 1-.697-1.572c0-.77.291-1.367.875-1.79.588-.43 1.413-.643 2.474-.643h1.231v-.581c0-.442-.132-.793-.397-1.053-.264-.264-.654-.397-1.169-.397-.451 0-.829.114-1.134.342-.306.228-.458.504-.458.827h-1.272c0-.369.13-.724.39-1.066.264-.346.62-.62 1.066-.82.451-.2.946-.301 1.484-.301.852 0 1.519.214 2.003.642.483.424.733 1.01.751 1.757v3.404c0 .68.087 1.22.26 1.62V22h-1.326zm-2.099-.964a2.22 2.22 0 0 0 1.128-.308c.356-.205.613-.471.773-.8v-1.517h-.991c-1.55 0-2.325.454-2.325 1.36 0 .397.133.707.397.93.264.223.604.335 1.018.335zm6.522.964h-1.265V11.5h1.265V22zm11.19-4.395h-4.176V22h-1.313v-9.953h6.166v1.08h-4.853v3.404h4.176v1.074zm1.566.628c0-.724.141-1.376.424-1.955.287-.578.683-1.025 1.189-1.34.51-.314 1.092-.471 1.743-.471 1.007 0 1.821.348 2.441 1.046.624.697.936 1.624.936 2.782v.089c0 .72-.139 1.367-.417 1.941a3.11 3.11 0 0 1-1.182 1.333c-.511.32-1.099.479-1.764.479-1.003 0-1.816-.349-2.441-1.046-.619-.697-.929-1.62-.929-2.769v-.089zm1.271.15c0 .821.189 1.48.568 1.976.382.497.893.745 1.531.745.642 0 1.153-.25 1.531-.752.378-.505.568-1.212.568-2.119 0-.81-.194-1.467-.582-1.968-.382-.506-.893-.76-1.531-.76-.624 0-1.128.25-1.511.746-.382.497-.574 1.208-.574 2.133zm10.623-2.645a3.78 3.78 0 0 0-.622-.048c-.829 0-1.392.354-1.688 1.06V22h-1.265v-7.396h1.231l.02.854c.415-.66 1.003-.991 1.764-.991.246 0 .433.032.56.095v1.176zm4.102 6.399c-1.003 0-1.818-.328-2.447-.985-.629-.66-.944-1.542-.944-2.645v-.233c0-.733.139-1.387.417-1.962a3.29 3.29 0 0 1 1.176-1.353 2.96 2.96 0 0 1 1.641-.492c.961 0 1.709.316 2.242.95.533.633.8 1.54.8 2.72v.527h-5.011c.018.73.23 1.32.636 1.77.41.447.929.67 1.558.67.447 0 .825-.09 1.135-.273.31-.182.581-.424.813-.725l.773.602c-.62.953-1.55 1.429-2.789 1.429zm-.157-6.631c-.511 0-.939.187-1.286.56-.346.37-.56.89-.642 1.559h3.705v-.096c-.036-.642-.21-1.139-.52-1.49-.309-.355-.729-.533-1.257-.533zM161.733 22h-1.264v-7.396h1.264V22zm-1.367-9.358c0-.205.062-.379.185-.52.127-.141.314-.212.56-.212.246 0 .433.07.561.212a.75.75 0 0 1 .191.52.725.725 0 0 1-.191.512c-.128.137-.315.205-.561.205-.246 0-.433-.068-.56-.205a.738.738 0 0 1-.185-.512zm3.097 5.598c0-1.153.266-2.069.8-2.748.533-.683 1.239-1.025 2.119-1.025.902 0 1.606.319 2.112.957l.062-.82h1.155v7.218c0 .957-.285 1.712-.855 2.263-.565.551-1.326.827-2.283.827a3.8 3.8 0 0 1-1.565-.342c-.511-.228-.9-.54-1.169-.936l.656-.759c.542.67 1.206 1.005 1.989 1.005.616 0 1.094-.173 1.436-.52.346-.346.519-.834.519-1.462v-.636c-.505.583-1.196.875-2.071.875-.866 0-1.568-.349-2.105-1.046-.534-.697-.8-1.648-.8-2.85zm1.271.144c0 .834.171 1.49.513 1.968.342.474.82.712 1.436.712.797 0 1.383-.363 1.756-1.087V16.6c-.387-.707-.968-1.06-1.743-1.06-.615 0-1.096.24-1.442.718-.346.478-.52 1.187-.52 2.126zm8.087-3.78l.041.93c.565-.712 1.304-1.067 2.215-1.067 1.563 0 2.352.882 2.365 2.645V22h-1.264v-4.895c-.005-.533-.128-.927-.369-1.182-.237-.255-.609-.383-1.115-.383-.41 0-.77.11-1.08.328-.31.219-.551.506-.724.862V22h-1.265v-7.396h1.196zm13.494 5.653l2.844-8.21h1.436L186.903 22h-1.162l-3.684-9.953h1.428l2.83 8.21zM193.11 22h-1.264v-7.396h1.264V22zm-1.367-9.358c0-.205.062-.379.185-.52.127-.141.314-.212.56-.212.246 0 .433.07.561.212a.75.75 0 0 1 .191.52.725.725 0 0 1-.191.512c-.128.137-.315.205-.561.205-.246 0-.433-.068-.56-.205a.738.738 0 0 1-.185-.512zm7.704 7.396c0-.342-.13-.606-.389-.793-.256-.191-.704-.355-1.347-.492-.638-.137-1.146-.3-1.524-.492-.374-.192-.652-.42-.834-.684a1.648 1.648 0 0 1-.267-.943c0-.606.255-1.119.766-1.538.515-.42 1.171-.63 1.968-.63.839 0 1.518.217 2.037.65.525.433.787.987.787 1.661h-1.272c0-.346-.148-.645-.444-.895-.292-.25-.661-.376-1.108-.376-.46 0-.82.1-1.08.3a.946.946 0 0 0-.389.787c0 .305.12.535.362.69.241.155.677.303 1.306.444.633.142 1.146.31 1.538.506.392.196.681.433.868.711.191.274.287.609.287 1.005 0 .661-.264 1.192-.793 1.593-.529.396-1.215.595-2.058.595-.592 0-1.116-.105-1.572-.315a2.591 2.591 0 0 1-1.073-.875 2.148 2.148 0 0 1-.383-1.223h1.265c.022.424.191.76.506 1.011.319.246.738.37 1.257.37.479 0 .862-.096 1.149-.288.291-.196.437-.455.437-.779zM203.733 22h-1.264v-7.396h1.264V22zm-1.367-9.358c0-.205.062-.379.185-.52.127-.141.314-.212.56-.212.246 0 .433.07.561.212a.75.75 0 0 1 .191.52.725.725 0 0 1-.191.512c-.128.137-.315.205-.561.205-.246 0-.433-.068-.56-.205a.738.738 0 0 1-.185-.512zm5.113.17v1.792h1.381v.977h-1.381v4.587c0 .296.062.52.185.67.123.146.333.219.629.219.146 0 .346-.028.602-.082V22a3.675 3.675 0 0 1-.971.137c-.565 0-.991-.171-1.278-.513-.288-.342-.431-.827-.431-1.456v-4.587h-1.347v-.977h1.347v-1.791h1.264zm2.393 5.421c0-.724.141-1.376.424-1.955.287-.578.683-1.025 1.189-1.34.511-.314 1.092-.471 1.744-.471 1.007 0 1.82.348 2.44 1.046.624.697.936 1.624.936 2.782v.089c0 .72-.139 1.367-.417 1.941a3.11 3.11 0 0 1-1.182 1.333c-.511.32-1.098.479-1.764.479-1.002 0-1.816-.349-2.44-1.046-.62-.697-.93-1.62-.93-2.769v-.089zm1.272.15c0 .821.189 1.48.567 1.976.383.497.893.745 1.531.745.643 0 1.153-.25 1.531-.752.379-.505.568-1.212.568-2.119 0-.81-.194-1.467-.581-1.968-.383-.506-.893-.76-1.531-.76-.625 0-1.128.25-1.511.746-.383.497-.574 1.208-.574 2.133zm10.623-2.645a3.797 3.797 0 0 0-.622-.048c-.83 0-1.393.354-1.689 1.06V22h-1.265v-7.396h1.231l.02.854c.415-.66 1.003-.991 1.764-.991.246 0 .433.032.561.095v1.176zm10.336 3.664h-4.17L226.996 22h-1.353l3.8-9.953h1.149L234.399 22h-1.346l-.95-2.598zm-3.774-1.08h3.384l-1.695-4.655-1.689 4.655zm10.787-2.584a3.788 3.788 0 0 0-.622-.048c-.829 0-1.392.354-1.688 1.06V22h-1.265v-7.396h1.23l.021.854c.415-.66 1.003-.991 1.764-.991.246 0 .433.032.56.095v1.176zm4.744 0a3.78 3.78 0 0 0-.622-.048c-.829 0-1.392.354-1.688 1.06V22h-1.265v-7.396h1.231l.02.854c.415-.66 1.003-.991 1.764-.991.246 0 .433.032.56.095v1.176zM246.403 22h-1.264v-7.396h1.264V22zm-1.367-9.358c0-.205.062-.379.185-.52.127-.141.314-.212.56-.212.246 0 .433.07.561.212a.75.75 0 0 1 .191.52.725.725 0 0 1-.191.512c-.128.137-.315.205-.561.205-.246 0-.433-.068-.56-.205a.738.738 0 0 1-.185-.512zm5.838 7.642l1.832-5.68h1.292L251.346 22h-.964l-2.68-7.396h1.292l1.88 5.68zM259.672 22c-.073-.146-.132-.406-.178-.78-.588.611-1.29.917-2.105.917-.729 0-1.329-.205-1.798-.616a2.015 2.015 0 0 1-.697-1.572c0-.77.291-1.367.875-1.79.587-.43 1.412-.643 2.474-.643h1.231v-.581c0-.442-.133-.793-.397-1.053-.264-.264-.654-.397-1.169-.397-.451 0-.829.114-1.135.342-.305.228-.458.504-.458.827h-1.271c0-.369.13-.724.39-1.066.264-.346.619-.62 1.066-.82.451-.2.946-.301 1.483-.301.853 0 1.52.214 2.003.642.483.424.734 1.01.752 1.757v3.404c0 .68.087 1.22.26 1.62V22h-1.326zm-2.099-.964a2.22 2.22 0 0 0 1.128-.308c.356-.205.613-.471.773-.8v-1.517h-.992c-1.549 0-2.324.454-2.324 1.36 0 .397.132.707.397.93.264.223.604.335 1.018.335zm6.522.964h-1.265V11.5h1.265V22zm6.337-1.962c0-.342-.13-.606-.39-.793-.255-.191-.704-.355-1.347-.492-.638-.137-1.146-.3-1.524-.492-.374-.192-.652-.42-.834-.684a1.648 1.648 0 0 1-.267-.943c0-.606.256-1.119.766-1.538.515-.42 1.171-.63 1.969-.63.838 0 1.517.217 2.037.65.524.433.786.987.786 1.661h-1.272c0-.346-.148-.645-.444-.895-.292-.25-.661-.376-1.107-.376-.461 0-.821.1-1.08.3-.26.201-.39.463-.39.787 0 .305.121.535.362.69.242.155.677.303 1.306.444.633.142 1.146.31 1.538.506.392.196.681.433.868.711.192.274.287.609.287 1.005 0 .661-.264 1.192-.793 1.593-.528.396-1.214.595-2.057.595-.593 0-1.117-.105-1.573-.315a2.598 2.598 0 0 1-1.073-.875 2.148 2.148 0 0 1-.383-1.223h1.265c.023.424.191.76.506 1.011.319.246.738.37 1.258.37.478 0 .861-.096 1.148-.288.292-.196.438-.455.438-.779zM278.19 22h-1.264v-7.396h1.264V22zm-1.367-9.358c0-.205.062-.379.185-.52.127-.141.314-.212.56-.212.246 0 .433.07.561.212a.745.745 0 0 1 .191.52.72.72 0 0 1-.191.512c-.128.137-.315.205-.561.205-.246 0-.433-.068-.56-.205a.738.738 0 0 1-.185-.512zm4.594 1.962l.041.93c.565-.712 1.303-1.067 2.215-1.067 1.563 0 2.351.882 2.365 2.645V22h-1.265v-4.895c-.004-.533-.127-.927-.369-1.182-.237-.255-.608-.383-1.114-.383-.41 0-.77.11-1.08.328-.31.219-.551.506-.725.862V22h-1.264v-7.396h1.196zM293.024 22h-1.312v-9.953h1.312V22zm3.405-7.396l.041.93c.565-.712 1.303-1.067 2.215-1.067 1.563 0 2.351.882 2.365 2.645V22h-1.265v-4.895c-.004-.533-.127-.927-.369-1.182-.237-.255-.608-.383-1.114-.383-.41 0-.77.11-1.08.328-.31.219-.552.506-.725.862V22h-1.265v-7.396h1.197zm6.22 3.636c0-1.134.269-2.046.807-2.734.538-.693 1.242-1.04 2.112-1.04.866 0 1.552.297 2.058.89V11.5h1.265V22h-1.162l-.062-.793c-.506.62-1.21.93-2.112.93-.857 0-1.557-.351-2.099-1.053-.538-.702-.807-1.618-.807-2.748v-.096zm1.265.144c0 .838.173 1.495.52 1.968.346.474.824.712 1.435.712.802 0 1.388-.36 1.757-1.08v-3.398c-.378-.697-.959-1.046-1.743-1.046-.62 0-1.103.24-1.449.718-.347.478-.52 1.187-.52 2.126zm6.61-.15c0-.725.142-1.377.424-1.956a3.217 3.217 0 0 1 1.19-1.34c.51-.314 1.091-.471 1.743-.471 1.007 0 1.82.348 2.44 1.046.625.697.937 1.624.937 2.782v.089c0 .72-.139 1.367-.417 1.941a3.119 3.119 0 0 1-1.183 1.333c-.51.32-1.098.479-1.763.479-1.003 0-1.817-.349-2.441-1.046-.62-.697-.93-1.62-.93-2.769v-.089zm1.272.15c0 .82.189 1.479.567 1.975.383.497.894.745 1.532.745.642 0 1.153-.25 1.531-.752.378-.505.567-1.212.567-2.119 0-.81-.194-1.467-.581-1.968-.383-.506-.893-.76-1.531-.76-.624 0-1.128.25-1.511.746-.383.497-.574 1.208-.574 2.133zm8.244-3.78l.041.93c.565-.712 1.303-1.067 2.215-1.067 1.563 0 2.351.882 2.365 2.645V22h-1.265v-4.895c-.004-.533-.127-.927-.369-1.182-.237-.255-.608-.383-1.114-.383-.41 0-.77.11-1.08.328-.31.219-.551.506-.725.862V22h-1.264v-7.396h1.196zm9.598 7.533c-1.003 0-1.819-.328-2.448-.985-.628-.66-.943-1.542-.943-2.645v-.233c0-.733.139-1.387.417-1.962a3.29 3.29 0 0 1 1.176-1.353 2.958 2.958 0 0 1 1.64-.492c.962 0 1.709.316 2.243.95.533.633.799 1.54.799 2.72v.527h-5.01c.018.73.23 1.32.635 1.77.411.447.93.67 1.559.67.447 0 .825-.09 1.135-.273.31-.182.581-.424.813-.725l.773.602c-.62.953-1.55 1.429-2.789 1.429zm-.158-6.631c-.51 0-.938.187-1.285.56-.346.37-.56.89-.642 1.559h3.705v-.096c-.037-.642-.21-1.139-.52-1.49-.31-.355-.729-.533-1.258-.533zm8.819 4.532c0-.342-.13-.606-.39-.793-.255-.191-.704-.355-1.347-.492-.638-.137-1.146-.3-1.524-.492-.374-.192-.652-.42-.834-.684a1.648 1.648 0 0 1-.266-.943c0-.606.255-1.119.765-1.538.515-.42 1.171-.63 1.969-.63.838 0 1.517.217 2.037.65.524.433.786.987.786 1.661h-1.271c0-.346-.148-.645-.445-.895-.291-.25-.661-.376-1.107-.376-.46 0-.82.1-1.08.3-.26.201-.39.463-.39.787 0 .305.121.535.362.69.242.155.677.303 1.306.444.634.142 1.146.31 1.538.506.392.196.682.433.868.711.192.274.287.609.287 1.005 0 .661-.264 1.192-.792 1.593-.529.396-1.215.595-2.058.595-.593 0-1.117-.105-1.572-.315a2.595 2.595 0 0 1-1.074-.875 2.147 2.147 0 0 1-.382-1.223h1.264c.023.424.192.76.506 1.011.319.246.738.37 1.258.37.478 0 .861-.096 1.148-.288.292-.196.438-.455.438-.779zM342.585 22h-1.265v-7.396h1.265V22zm-1.367-9.358c0-.205.061-.379.184-.52.128-.141.315-.212.561-.212.246 0 .433.07.56.212a.745.745 0 0 1 .192.52.721.721 0 0 1-.192.512c-.127.137-.314.205-.56.205-.246 0-.433-.068-.561-.205a.738.738 0 0 1-.184-.512zM349.182 22c-.073-.146-.133-.406-.178-.78-.588.611-1.29.917-2.106.917-.729 0-1.328-.205-1.797-.616a2.016 2.016 0 0 1-.698-1.572c0-.77.292-1.367.875-1.79.588-.43 1.413-.643 2.475-.643h1.23v-.581c0-.442-.132-.793-.396-1.053-.264-.264-.654-.397-1.169-.397-.451 0-.829.114-1.135.342-.305.228-.458.504-.458.827h-1.271c0-.369.13-.724.389-1.066.265-.346.62-.62 1.067-.82.451-.2.945-.301 1.483-.301.852 0 1.52.214 2.003.642.483.424.734 1.01.752 1.757v3.404c0 .68.087 1.22.26 1.62V22h-1.326zm-2.099-.964c.396 0 .772-.102 1.128-.308a1.86 1.86 0 0 0 .772-.8v-1.517h-.991c-1.549 0-2.324.454-2.324 1.36 0 .397.132.707.396.93.265.223.604.335 1.019.335zm5.1-3.076c0-1.03.136-2.019.41-2.967.278-.948.69-1.81 1.237-2.584.547-.775 1.114-1.321 1.702-1.64l.26.833c-.665.511-1.212 1.29-1.641 2.338-.423 1.049-.656 2.222-.697 3.52l-.007.582c0 1.76.322 3.286.964 4.58.388.775.848 1.38 1.381 1.818l-.26.773c-.606-.337-1.185-.902-1.736-1.695-1.076-1.55-1.613-3.402-1.613-5.558zM358.39 22h-1.265v-7.396h1.265V22zm-1.368-9.358c0-.205.062-.379.185-.52.128-.141.314-.212.561-.212.246 0 .433.07.56.212a.745.745 0 0 1 .192.52.721.721 0 0 1-.192.512c-.127.137-.314.205-.56.205-.247 0-.433-.068-.561-.205a.738.738 0 0 1-.185-.512zm4.594 1.962l.041.93c.565-.712 1.304-1.067 2.215-1.067 1.563 0 2.352.882 2.365 2.645V22h-1.264v-4.895c-.005-.533-.128-.927-.369-1.182-.237-.255-.609-.383-1.115-.383-.41 0-.77.11-1.08.328-.31.219-.551.506-.724.862V22h-1.265v-7.396h1.196zm11.191 0l.034.82c.542-.638 1.274-.957 2.194-.957 1.035 0 1.739.396 2.112 1.19a2.83 2.83 0 0 1 .957-.862c.397-.219.864-.328 1.402-.328 1.622 0 2.447.859 2.474 2.577V22h-1.264v-4.88c0-.53-.121-.924-.362-1.184-.242-.264-.648-.396-1.217-.396-.47 0-.859.141-1.169.424-.31.278-.49.654-.54 1.128V22h-1.272v-4.847c0-1.075-.526-1.613-1.579-1.613-.829 0-1.397.353-1.702 1.06V22h-1.265v-7.396h1.197zM385.269 22h-1.265v-7.396h1.265V22zm-1.368-9.358c0-.205.062-.379.185-.52.128-.141.314-.212.56-.212.247 0 .433.07.561.212a.745.745 0 0 1 .191.52.72.72 0 0 1-.191.512c-.128.137-.314.205-.561.205-.246 0-.432-.068-.56-.205a.738.738 0 0 1-.185-.512zM388.673 22h-1.265V11.5h1.265V22zm3.404 0h-1.265V11.5h1.265V22zm3.404 0h-1.264v-7.396h1.264V22zm-1.367-9.358c0-.205.062-.379.185-.52.127-.141.314-.212.56-.212.246 0 .433.07.561.212a.745.745 0 0 1 .191.52.72.72 0 0 1-.191.512c-.128.137-.315.205-.561.205-.246 0-.433-.068-.56-.205a.738.738 0 0 1-.185-.512zm3.063 5.591c0-.724.141-1.376.424-1.955.287-.578.683-1.025 1.189-1.34.51-.314 1.092-.471 1.743-.471 1.007 0 1.821.348 2.441 1.046.624.697.936 1.624.936 2.782v.089c0 .72-.139 1.367-.417 1.941a3.11 3.11 0 0 1-1.182 1.333c-.511.32-1.099.479-1.764.479-1.003 0-1.816-.349-2.441-1.046-.619-.697-.929-1.62-.929-2.769v-.089zm1.271.15c0 .821.189 1.48.568 1.976.382.497.893.745 1.531.745.642 0 1.153-.25 1.531-.752.378-.505.568-1.212.568-2.119 0-.81-.194-1.467-.582-1.968-.382-.506-.893-.76-1.531-.76-.624 0-1.128.25-1.511.746-.382.497-.574 1.208-.574 2.133zm8.244-3.78l.041.93c.566-.71 1.304-1.066 2.215-1.066 1.563 0 2.352.882 2.365 2.645V22h-1.264v-4.895c-.005-.533-.128-.927-.369-1.182-.237-.255-.609-.383-1.115-.383-.41 0-.77.11-1.08.328-.31.219-.551.506-.724.862V22h-1.265v-7.396h1.196zm9.448 3.425c0 1.017-.135 1.992-.404 2.926a8.54 8.54 0 0 1-1.223 2.577c-.547.789-1.121 1.35-1.723 1.682l-.267-.773c.702-.537 1.265-1.371 1.689-2.502.428-1.134.647-2.392.656-3.773v-.219c0-.957-.1-1.845-.301-2.666a8.894 8.894 0 0 0-.84-2.215c-.356-.651-.757-1.16-1.204-1.524l.267-.772c.602.332 1.174.888 1.716 1.668.547.779.955 1.638 1.223 2.577.274.939.411 1.943.411 3.014zM92.349 353h-6.522v-.909l3.445-3.828c.51-.579.862-1.048 1.053-1.409a2.35 2.35 0 0 0 .294-1.127c0-.52-.157-.946-.472-1.279-.314-.332-.733-.499-1.257-.499-.63 0-1.12.18-1.47.54-.346.356-.52.852-.52 1.49h-1.264c0-.916.294-1.656.882-2.221.592-.565 1.383-.848 2.372-.848.925 0 1.656.244 2.194.732.538.483.807 1.128.807 1.934 0 .98-.625 2.147-1.873 3.5l-2.666 2.892h4.997V353zm7.58-4.245c0 1.481-.252 2.582-.758 3.302-.506.72-1.297 1.08-2.372 1.08-1.062 0-1.848-.351-2.359-1.053-.51-.706-.774-1.759-.793-3.158v-1.689c0-1.463.253-2.549.76-3.26.505-.711 1.298-1.067 2.378-1.067 1.071 0 1.86.344 2.365 1.032.506.684.766 1.741.78 3.172v1.641zm-1.264-1.73c0-1.071-.15-1.85-.451-2.337-.3-.493-.777-.739-1.429-.739-.647 0-1.119.244-1.415.732-.296.487-.449 1.237-.458 2.249v2.023c0 1.076.155 1.871.465 2.386.314.51.788.765 1.422.765.624 0 1.087-.241 1.387-.724.306-.483.465-1.244.479-2.283v-2.072zm7.041 5.975h-1.271v-8.429l-2.55.937v-1.149l3.623-1.36h.198V353zm5.544-5.592h.95c.597-.009 1.067-.166 1.408-.471.342-.306.513-.718.513-1.238 0-1.166-.581-1.75-1.743-1.75-.547 0-.984.157-1.313.472-.323.31-.485.722-.485 1.237h-1.265c0-.788.288-1.442.862-1.962.579-.524 1.312-.786 2.201-.786.939 0 1.675.249 2.208.745.533.497.8 1.187.8 2.072 0 .433-.142.852-.424 1.257a2.52 2.52 0 0 1-1.142.91c.547.173.969.46 1.265.861.301.401.451.891.451 1.47 0 .893-.292 1.601-.875 2.126-.583.524-1.342.786-2.276.786-.934 0-1.696-.253-2.283-.759-.584-.506-.875-1.174-.875-2.003h1.271c0 .524.171.943.513 1.258.342.314.8.471 1.374.471.61 0 1.078-.159 1.401-.478.324-.319.485-.777.485-1.374 0-.579-.177-1.023-.533-1.333-.355-.31-.868-.469-1.538-.479h-.95v-1.032zM9.863 297.645a2.3 2.3 0 0 1-.396 1.326c-.26.387-.613.69-1.06.909.52.223.93.549 1.23.977.306.429.459.914.459 1.456 0 .862-.292 1.548-.875 2.058-.58.511-1.342.766-2.29.766-.957 0-1.725-.255-2.304-.766-.574-.515-.861-1.201-.861-2.058 0-.537.145-1.023.437-1.456a2.763 2.763 0 0 1 1.224-.984 2.613 2.613 0 0 1-1.046-.909 2.345 2.345 0 0 1-.383-1.319c0-.839.269-1.504.807-1.997.537-.492 1.246-.738 2.126-.738.875 0 1.581.246 2.119.738.542.493.813 1.158.813 1.997zm-1.032 4.641c0-.556-.178-1.009-.533-1.36-.351-.351-.811-.527-1.381-.527s-1.028.174-1.374.52c-.342.346-.513.802-.513 1.367s.167 1.01.5 1.333c.337.324.804.485 1.4.485.593 0 1.058-.161 1.395-.485.337-.328.506-.772.506-1.333zm-1.9-6.337c-.497 0-.9.155-1.21.465-.306.305-.458.722-.458 1.251 0 .506.15.916.45 1.231.306.309.712.464 1.218.464s.909-.155 1.21-.464c.305-.315.458-.725.458-1.231 0-.506-.158-.918-.472-1.237-.315-.319-.713-.479-1.196-.479zm4.915 8.388a.8.8 0 0 1 .191-.547c.132-.146.328-.219.588-.219.26 0 .456.073.588.219a.769.769 0 0 1 .205.547c0 .21-.068.385-.205.526-.132.142-.328.212-.588.212-.26 0-.456-.07-.588-.212a.754.754 0 0 1-.191-.526zm9.775-3.582c0 1.481-.253 2.582-.759 3.302-.506.72-1.296 1.08-2.372 1.08-1.062 0-1.848-.351-2.358-1.053-.51-.706-.775-1.759-.793-3.158v-1.689c0-1.463.253-2.549.759-3.26.506-.711 1.299-1.067 2.379-1.067 1.07 0 1.859.344 2.365 1.032.506.684.765 1.741.78 3.172v1.641zm-1.265-1.73c0-1.071-.15-1.85-.45-2.337-.301-.493-.778-.739-1.43-.739-.647 0-1.118.244-1.415.732-.296.487-.448 1.237-.457 2.249v2.023c0 1.076.155 1.871.464 2.386.315.51.789.765 1.422.765.625 0 1.087-.241 1.388-.724.305-.483.465-1.244.478-2.283v-2.072zm9.126 1.73c0 1.481-.252 2.582-.758 3.302-.506.72-1.297 1.08-2.372 1.08-1.062 0-1.848-.351-2.359-1.053-.51-.706-.775-1.759-.793-3.158v-1.689c0-1.463.253-2.549.759-3.26.506-.711 1.299-1.067 2.379-1.067 1.07 0 1.86.344 2.365 1.032.506.684.766 1.741.78 3.172v1.641zm-1.264-1.73c0-1.071-.15-1.85-.451-2.337-.301-.493-.777-.739-1.43-.739-.646 0-1.118.244-1.414.732-.296.487-.449 1.237-.458 2.249v2.023c0 1.076.155 1.871.465 2.386.314.51.788.765 1.422.765.624 0 1.087-.241 1.387-.724.306-.483.465-1.244.479-2.283v-2.072zM4.983 250H3.712v-8.429l-2.55.937v-1.149l3.623-1.36h.198V250zm9.947-4.245c0 1.481-.253 2.582-.76 3.302-.505.72-1.296 1.08-2.371 1.08-1.062 0-1.848-.351-2.359-1.053-.51-.706-.774-1.759-.793-3.158v-1.689c0-1.463.253-2.549.76-3.26.505-.711 1.298-1.067 2.378-1.067 1.071 0 1.86.344 2.365 1.032.506.684.766 1.741.78 3.172v1.641zm-1.265-1.73c0-1.071-.15-1.85-.451-2.337-.3-.493-.777-.739-1.429-.739-.647 0-1.119.244-1.415.732-.296.487-.449 1.237-.458 2.249v2.023c0 1.076.155 1.871.465 2.386.314.51.788.765 1.422.765.624 0 1.087-.241 1.388-.724.305-.483.464-1.244.478-2.283v-2.072zm3.042 5.312a.8.8 0 0 1 .191-.547c.133-.146.329-.219.588-.219.26 0 .456.073.588.219a.769.769 0 0 1 .205.547c0 .21-.068.385-.205.526-.132.142-.328.212-.588.212-.26 0-.455-.07-.588-.212a.754.754 0 0 1-.191-.526zm9.775-3.582c0 1.481-.252 2.582-.758 3.302-.506.72-1.297 1.08-2.372 1.08-1.062 0-1.848-.351-2.359-1.053-.51-.706-.775-1.759-.793-3.158v-1.689c0-1.463.253-2.549.759-3.26.506-.711 1.299-1.067 2.379-1.067 1.07 0 1.86.344 2.365 1.032.506.684.766 1.741.78 3.172v1.641zm-1.264-1.73c0-1.071-.15-1.85-.451-2.337-.301-.493-.777-.739-1.43-.739-.646 0-1.118.244-1.414.732-.296.487-.449 1.237-.458 2.249v2.023c0 1.076.155 1.871.465 2.386.314.51.788.765 1.422.765.624 0 1.087-.241 1.387-.724.306-.483.465-1.244.479-2.283v-2.072zm9.126 1.73c0 1.481-.253 2.582-.759 3.302-.506.72-1.297 1.08-2.372 1.08-1.062 0-1.848-.351-2.358-1.053-.51-.706-.775-1.759-.794-3.158v-1.689c0-1.463.253-2.549.76-3.26.505-.711 1.298-1.067 2.378-1.067 1.071 0 1.86.344 2.366 1.032.505.684.765 1.741.779 3.172v1.641zm-1.265-1.73c0-1.071-.15-1.85-.451-2.337-.3-.493-.777-.739-1.429-.739-.647 0-1.119.244-1.415.732-.296.487-.449 1.237-.458 2.249v2.023c0 1.076.155 1.871.465 2.386.314.51.788.765 1.422.765.624 0 1.087-.241 1.388-.724.305-.483.464-1.244.478-2.283v-2.072zM4.983 194H3.712v-8.429l-2.55.937v-1.149l3.623-1.36h.198V194zm10.227 0H8.688v-.909l3.446-3.828c.51-.579.861-1.048 1.053-1.409a2.35 2.35 0 0 0 .293-1.127c0-.52-.157-.946-.471-1.279-.315-.332-.734-.499-1.258-.499-.629 0-1.119.18-1.47.54-.346.356-.52.852-.52 1.49H8.498c0-.916.294-1.656.882-2.221.592-.565 1.383-.848 2.372-.848.925 0 1.657.244 2.194.732.538.483.807 1.128.807 1.934 0 .98-.624 2.147-1.873 3.5l-2.666 2.892h4.997V194zm1.497-.663a.8.8 0 0 1 .191-.547c.133-.146.329-.219.588-.219.26 0 .456.073.588.219a.769.769 0 0 1 .205.547c0 .21-.068.385-.205.526-.132.142-.328.212-.588.212-.26 0-.455-.07-.588-.212a.754.754 0 0 1-.191-.526zm9.775-3.582c0 1.481-.252 2.582-.758 3.302-.506.72-1.297 1.08-2.372 1.08-1.062 0-1.848-.351-2.359-1.053-.51-.706-.775-1.759-.793-3.158v-1.689c0-1.463.253-2.549.759-3.26.506-.711 1.299-1.067 2.379-1.067 1.07 0 1.86.344 2.365 1.032.506.684.766 1.741.78 3.172v1.641zm-1.264-1.73c0-1.071-.15-1.85-.451-2.337-.301-.493-.777-.739-1.43-.739-.646 0-1.118.244-1.414.732-.296.487-.449 1.237-.458 2.249v2.023c0 1.076.155 1.871.465 2.386.314.51.788.765 1.422.765.624 0 1.087-.241 1.387-.724.306-.483.465-1.244.479-2.283v-2.072zm9.126 1.73c0 1.481-.253 2.582-.759 3.302-.506.72-1.297 1.08-2.372 1.08-1.062 0-1.848-.351-2.358-1.053-.51-.706-.775-1.759-.794-3.158v-1.689c0-1.463.253-2.549.76-3.26.505-.711 1.298-1.067 2.378-1.067 1.071 0 1.86.344 2.366 1.032.505.684.765 1.741.779 3.172v1.641zm-1.265-1.73c0-1.071-.15-1.85-.451-2.337-.3-.493-.777-.739-1.429-.739-.647 0-1.119.244-1.415.732-.296.487-.449 1.237-.458 2.249v2.023c0 1.076.155 1.871.465 2.386.314.51.788.765 1.422.765.624 0 1.087-.241 1.388-.724.305-.483.464-1.244.478-2.283v-2.072zM4.983 138H3.712v-8.429l-2.55.937v-1.149l3.623-1.36h.198V138zm9.044-3.343h1.381v1.032h-1.38V138h-1.272v-2.311H8.224v-.745l4.457-6.897h1.346v6.61zm-4.368 0h3.097v-4.881l-.15.274-2.947 4.607zm7.048 2.68a.8.8 0 0 1 .191-.547c.133-.146.329-.219.588-.219.26 0 .456.073.588.219a.769.769 0 0 1 .205.547c0 .21-.068.385-.205.526-.132.142-.328.212-.588.212-.26 0-.455-.07-.588-.212a.754.754 0 0 1-.191-.526zm9.775-3.582c0 1.481-.252 2.582-.758 3.302-.506.72-1.297 1.08-2.372 1.08-1.062 0-1.848-.351-2.359-1.053-.51-.706-.775-1.759-.793-3.158v-1.689c0-1.463.253-2.549.759-3.26.506-.711 1.299-1.067 2.379-1.067 1.07 0 1.86.344 2.365 1.032.506.684.766 1.741.78 3.172v1.641zm-1.264-1.73c0-1.071-.15-1.85-.451-2.337-.301-.493-.777-.739-1.43-.739-.646 0-1.118.244-1.414.732-.296.487-.449 1.237-.458 2.249v2.023c0 1.076.155 1.871.465 2.386.314.51.788.765 1.422.765.624 0 1.087-.241 1.387-.724.306-.483.465-1.244.479-2.283v-2.072zm9.126 1.73c0 1.481-.253 2.582-.759 3.302-.506.72-1.297 1.08-2.372 1.08-1.062 0-1.848-.351-2.358-1.053-.51-.706-.775-1.759-.794-3.158v-1.689c0-1.463.253-2.549.76-3.26.505-.711 1.298-1.067 2.378-1.067 1.071 0 1.86.344 2.366 1.032.505.684.765 1.741.779 3.172v1.641zm-1.265-1.73c0-1.071-.15-1.85-.451-2.337-.3-.493-.777-.739-1.429-.739-.647 0-1.119.244-1.415.732-.296.487-.449 1.237-.458 2.249v2.023c0 1.076.155 1.871.465 2.386.314.51.788.765 1.422.765.624 0 1.087-.241 1.388-.724.305-.483.464-1.244.478-2.283v-2.072zM4.983 83H3.712v-8.429l-2.55.937v-1.149L4.785 73h.198V83zm8.668-9.96v1.073h-.232c-.984.019-1.768.31-2.352.875-.583.565-.92 1.36-1.011 2.386.524-.602 1.24-.902 2.146-.902.866 0 1.556.305 2.071.916.52.61.78 1.399.78 2.365 0 1.025-.28 1.846-.841 2.46-.556.616-1.303.924-2.242.924-.953 0-1.725-.365-2.318-1.094-.592-.734-.888-1.677-.888-2.83v-.485c0-1.832.39-3.232 1.169-4.198.784-.97 1.948-1.467 3.493-1.49h.225zm-1.66 4.484c-.434 0-.832.13-1.197.39a2.03 2.03 0 0 0-.759.978v.464c0 .82.185 1.482.554 1.983.369.501.83.752 1.38.752.57 0 1.017-.21 1.34-.63.329-.418.493-.968.493-1.647 0-.683-.167-1.235-.5-1.654-.327-.424-.765-.636-1.312-.636zm4.716 4.813a.8.8 0 0 1 .191-.547c.133-.146.329-.219.588-.219.26 0 .456.073.588.219a.769.769 0 0 1 .205.547c0 .21-.068.385-.205.526-.132.142-.328.212-.588.212-.26 0-.455-.07-.588-.212a.756.756 0 0 1-.191-.526zm9.775-3.582c0 1.481-.252 2.582-.758 3.302-.506.72-1.297 1.08-2.372 1.08-1.062 0-1.848-.351-2.359-1.053-.51-.706-.775-1.76-.793-3.158v-1.689c0-1.463.253-2.55.759-3.26.506-.711 1.299-1.067 2.379-1.067 1.07 0 1.86.344 2.365 1.032.506.684.766 1.741.78 3.172v1.64zm-1.264-1.73c0-1.07-.15-1.85-.451-2.338-.301-.492-.777-.738-1.43-.738-.646 0-1.118.244-1.414.732-.296.487-.449 1.237-.458 2.249v2.023c0 1.076.155 1.87.465 2.386.314.51.788.766 1.422.766.624 0 1.087-.242 1.387-.725.306-.483.465-1.244.479-2.283v-2.072zm9.126 1.73c0 1.481-.253 2.582-.759 3.302-.506.72-1.297 1.08-2.372 1.08-1.062 0-1.848-.351-2.358-1.053-.51-.706-.775-1.76-.794-3.158v-1.689c0-1.463.253-2.55.76-3.26.505-.711 1.298-1.067 2.378-1.067 1.071 0 1.86.344 2.366 1.032.505.684.765 1.741.779 3.172v1.64zm-1.265-1.73c0-1.07-.15-1.85-.451-2.338-.3-.492-.777-.738-1.429-.738-.647 0-1.119.244-1.415.732-.296.487-.449 1.237-.458 2.249v2.023c0 1.076.155 1.87.465 2.386.314.51.788.766 1.422.766.624 0 1.087-.242 1.388-.725.305-.483.464-1.244.478-2.283v-2.072zM172.349 353h-6.522v-.909l3.445-3.828c.511-.579.862-1.048 1.053-1.409a2.35 2.35 0 0 0 .294-1.127c0-.52-.157-.946-.472-1.279-.314-.332-.733-.499-1.257-.499-.629 0-1.119.18-1.47.54-.346.356-.52.852-.52 1.49h-1.264c0-.916.294-1.656.882-2.221.592-.565 1.383-.848 2.372-.848.925 0 1.656.244 2.194.732.538.483.807 1.128.807 1.934 0 .98-.625 2.147-1.873 3.5l-2.666 2.892h4.997V353zm7.581-4.245c0 1.481-.253 2.582-.759 3.302-.506.72-1.297 1.08-2.372 1.08-1.062 0-1.848-.351-2.359-1.053-.51-.706-.774-1.759-.793-3.158v-1.689c0-1.463.253-2.549.759-3.26.506-.711 1.299-1.067 2.379-1.067 1.071 0 1.86.344 2.365 1.032.506.684.766 1.741.78 3.172v1.641zm-1.265-1.73c0-1.071-.15-1.85-.451-2.337-.301-.493-.777-.739-1.429-.739-.647 0-1.119.244-1.415.732-.296.487-.449 1.237-.458 2.249v2.023c0 1.076.155 1.871.465 2.386.314.51.788.765 1.422.765.624 0 1.087-.241 1.388-.724.305-.483.464-1.244.478-2.283v-2.072zm7.041 5.975h-1.271v-8.429l-2.55.937v-1.149l3.623-1.36h.198V353zm9.044-3.343h1.381v1.032h-1.381V353h-1.271v-2.311h-4.533v-.745l4.457-6.897h1.347v6.61zm-4.368 0h3.097v-4.881l-.151.274-2.946 4.607zM252.349 353h-6.522v-.909l3.445-3.828c.511-.579.862-1.048 1.053-1.409a2.35 2.35 0 0 0 .294-1.127c0-.52-.157-.946-.472-1.279-.314-.332-.733-.499-1.257-.499-.629 0-1.119.18-1.47.54-.346.356-.52.852-.52 1.49h-1.264c0-.916.294-1.656.882-2.221.592-.565 1.383-.848 2.372-.848.925 0 1.656.244 2.194.732.538.483.807 1.128.807 1.934 0 .98-.625 2.147-1.873 3.5l-2.666 2.892h4.997V353zm7.581-4.245c0 1.481-.253 2.582-.759 3.302-.506.72-1.297 1.08-2.372 1.08-1.062 0-1.848-.351-2.359-1.053-.51-.706-.774-1.759-.793-3.158v-1.689c0-1.463.253-2.549.759-3.26.506-.711 1.299-1.067 2.379-1.067 1.071 0 1.86.344 2.365 1.032.506.684.766 1.741.78 3.172v1.641zm-1.265-1.73c0-1.071-.15-1.85-.451-2.337-.301-.493-.777-.739-1.429-.739-.647 0-1.119.244-1.415.732-.296.487-.449 1.237-.458 2.249v2.023c0 1.076.155 1.871.465 2.386.314.51.788.765 1.422.765.624 0 1.087-.241 1.388-.724.305-.483.464-1.244.478-2.283v-2.072zm7.041 5.975h-1.271v-8.429l-2.55.937v-1.149l3.623-1.36h.198V353zm4.286-4.99l.506-4.963h5.1v1.169h-4.027l-.3 2.714c.487-.287 1.041-.431 1.661-.431.907 0 1.627.301 2.16.902.533.597.8 1.406.8 2.427 0 1.026-.278 1.834-.834 2.427-.552.588-1.324.882-2.318.882-.879 0-1.597-.244-2.153-.732-.556-.487-.873-1.162-.95-2.023h1.196c.077.569.28 1 .608 1.292.329.287.761.43 1.299.43.588 0 1.048-.2 1.381-.601.337-.401.506-.955.506-1.661 0-.666-.182-1.199-.547-1.6-.36-.405-.841-.608-1.442-.608-.552 0-.985.121-1.299.362l-.335.274-1.012-.26zM331.349 353h-6.522v-.909l3.445-3.828c.511-.579.862-1.048 1.053-1.409a2.35 2.35 0 0 0 .294-1.127c0-.52-.157-.946-.472-1.279-.314-.332-.733-.499-1.257-.499-.629 0-1.119.18-1.47.54-.346.356-.52.852-.52 1.49h-1.264c0-.916.294-1.656.882-2.221.592-.565 1.383-.848 2.372-.848.925 0 1.656.244 2.194.732.538.483.807 1.128.807 1.934 0 .98-.625 2.147-1.873 3.5l-2.666 2.892h4.997V353zm7.581-4.245c0 1.481-.253 2.582-.759 3.302-.506.72-1.297 1.08-2.372 1.08-1.062 0-1.848-.351-2.359-1.053-.51-.706-.774-1.759-.793-3.158v-1.689c0-1.463.253-2.549.759-3.26.506-.711 1.299-1.067 2.379-1.067 1.071 0 1.86.344 2.365 1.032.506.684.766 1.741.78 3.172v1.641zm-1.265-1.73c0-1.071-.15-1.85-.451-2.337-.301-.493-.777-.739-1.429-.739-.647 0-1.119.244-1.415.732-.296.487-.449 1.237-.458 2.249v2.023c0 1.076.155 1.871.465 2.386.314.51.788.765 1.422.765.624 0 1.087-.241 1.388-.724.305-.483.464-1.244.478-2.283v-2.072zm7.041 5.975h-1.271v-8.429l-2.55.937v-1.149l3.623-1.36h.198V353zm8.668-9.96v1.073h-.232c-.985.019-1.769.31-2.352.875s-.921 1.361-1.012 2.386c.524-.602 1.24-.902 2.147-.902.866 0 1.556.305 2.071.916.52.61.779 1.399.779 2.365 0 1.025-.28 1.846-.84 2.461-.556.615-1.304.923-2.243.923-.952 0-1.725-.365-2.317-1.094-.592-.734-.889-1.677-.889-2.83v-.485c0-1.832.39-3.232 1.169-4.198.784-.97 1.949-1.467 3.493-1.49h.226zm-1.661 4.484c-.433 0-.832.13-1.196.39-.365.26-.618.586-.759.978v.464c0 .821.184 1.482.554 1.983.369.501.829.752 1.38.752.57 0 1.017-.21 1.34-.629.328-.419.492-.969.492-1.648 0-.683-.166-1.235-.499-1.654-.328-.424-.765-.636-1.312-.636zM411.349 353h-6.522v-.909l3.445-3.828c.511-.579.862-1.048 1.053-1.409a2.35 2.35 0 0 0 .294-1.127c0-.52-.157-.946-.472-1.279-.314-.332-.733-.499-1.257-.499-.629 0-1.119.18-1.47.54-.346.356-.52.852-.52 1.49h-1.264c0-.916.294-1.656.882-2.221.592-.565 1.383-.848 2.372-.848.925 0 1.656.244 2.194.732.538.483.807 1.128.807 1.934 0 .98-.625 2.147-1.873 3.5l-2.666 2.892h4.997V353zm7.581-4.245c0 1.481-.253 2.582-.759 3.302-.506.72-1.297 1.08-2.372 1.08-1.062 0-1.848-.351-2.359-1.053-.51-.706-.774-1.759-.793-3.158v-1.689c0-1.463.253-2.549.759-3.26.506-.711 1.299-1.067 2.379-1.067 1.071 0 1.86.344 2.365 1.032.506.684.766 1.741.78 3.172v1.641zm-1.265-1.73c0-1.071-.15-1.85-.451-2.337-.301-.493-.777-.739-1.429-.739-.647 0-1.119.244-1.415.732-.296.487-.449 1.237-.458 2.249v2.023c0 1.076.155 1.871.465 2.386.314.51.788.765 1.422.765.624 0 1.087-.241 1.388-.724.305-.483.464-1.244.478-2.283v-2.072zm7.041 5.975h-1.271v-8.429l-2.55.937v-1.149l3.623-1.36h.198V353zm10.131-9.242L430.715 353h-1.326l4.108-8.914h-5.387v-1.039h6.727v.711zM102.5 289a4.5 4.5 0 1 0 0-9 4.5 4.5 0 0 0 0 9zM182.5 277a4.5 4.5 0 1 0 0-9 4.5 4.5 0 0 0 0 9zM261.5 263a4.5 4.5 0 1 0 0-9 4.5 4.5 0 0 0 0 9zM341.5 212a4.5 4.5 0 1 0 0-9 4.5 4.5 0 0 0 0 9zM421.5 141a4.5 4.5 0 1 0 0-9 4.5 4.5 0 0 0 0 9z" fill="#7C6755"/><path d="M102 285l79.75-12.466 79.75-13.938 79.75-50.996L421 137" stroke="#877874" stroke-width=".5" stroke-miterlimit="10"/></svg>