<svg xmlns="http://www.w3.org/2000/svg">
  <defs>
      <clipPath id="a"><path fill="#fff" d="M0 0h24v24H0z"/></clipPath>
<clipPath id="a"><path fill="#fff" d="M0 0h24v24H0z"/></clipPath>
<clipPath id="a"><path fill="#fff" d="M0 0h24v24H0z"/></clipPath>
<clipPath id="a"><path fill="#fff" d="M0 0h24v24H0z"/></clipPath>
<clipPath id="a"><path fill="#fff" d="M0 0h24v24H0z"/></clipPath>
<clipPath id="a"><path fill="#fff" d="M0 0h24v24H0z"/></clipPath>
<clipPath id="a"><path fill="#fff" d="M0 0h24v24H0z"/></clipPath>
  </defs>
    <symbol id="icon-air-conditioner" viewBox="0 0 24 24">
      <path d="M20.1 6H3.9c-.5 0-.9.4-.9.9v6c0 .5.4.9.9.9h16.2c.5 0 .9-.4.9-.9v-6c0-.5-.4-.9-.9-.9zm.3 6.9c0 .2-.1.3-.3.3H3.9c-.2 0-.3-.1-.3-.3v-6c0-.2.15-.3.3-.3h16.2c.2 0 .3.1.3.3v6z" fill="gray"/><path d="M10.8 8.7h2.4c.2 0 .3-.1.3-.3 0-.2-.1-.3-.3-.3h-2.4c-.2 0-.3.1-.3.3 0 .2.1.3.3.3zM19.5 12h-15c-.2 0-.3.1-.3.3 0 .2.1.3.3.3h15c.2 0 .3-.1.3-.3 0-.2-.1-.3-.3-.3zM19.5 10.8h-15c-.2 0-.3.1-.3.3 0 .2.1.3.3.3h15c.2 0 .3-.1.3-.3 0-.2-.1-.3-.3-.3zM12.15 15.95c-.3-.15-.45-.35-.45-.5 0-.15.2-.35.4-.5.15-.05.2-.25.1-.4-.05-.15-.25-.2-.4-.1-.5.25-.75.65-.75 1 0 .4.25.75.75 1.05.3.15.45.35.45.5 0 .15-.2.35-.45.5-.15.05-.2.25-.1.4.05.1.15.15.25.15.05 0 .1 0 .15-.05.5-.25.75-.65.75-1 .05-.45-.2-.85-.7-1.05zM8.85 16.55c-.3-.15-.45-.35-.45-.5 0-.15.2-.35.4-.5.15-.05.2-.25.1-.4-.05-.15-.25-.2-.4-.1-.5.25-.75.65-.75 1 0 .4.25.75.75 1.05.3.15.45.35.45.5 0 .15-.2.35-.45.5-.15.05-.2.25-.1.4.05.1.15.15.25.15.05 0 .1 0 .15-.05.5-.25.75-.65.75-1 .05-.45-.2-.85-.7-1.05zM15.45 16.55c-.3-.15-.45-.35-.45-.5 0-.15.2-.35.4-.5.15-.05.2-.25.1-.4-.05-.15-.25-.2-.4-.1-.5.25-.75.65-.75 1 0 .4.25.75.75 1.05.3.15.45.35.45.5 0 .15-.2.35-.45.5-.15.05-.2.25-.1.4.05.1.15.15.25.15.05 0 .1 0 .15-.05.5-.25.75-.65.75-1 .05-.45-.2-.85-.7-1.05z" fill="gray"/>
    </symbol>
    <symbol id="icon-arrow-left" viewBox="0 0 24 24">
      <g clip-path="url(#a)"><path d="M24.101 13.305h-21.1l4.1 4.2c.1 0-1.1 1.2-1.3 1.3 0 0-5.9-6.4-5.8-6.5l5.9-6.3c-.2-.1 1.4 1.5 1.3 1.3l-4.2 4.2h21.1"/></g>
    </symbol>
    <symbol id="icon-arrow-right" viewBox="0 0 24 24">
      <g clip-path="url(#a)"><path d="M0 11.505h21.1l-4.1-4.2c-.1.2 1.5-1.4 1.3-1.3l5.7 6.2c.1.1-5.8 6.5-5.8 6.5-.2-.1-1.4-1.3-1.3-1.3l4.1-4.2H0"/></g>
    </symbol>
    <symbol id="icon-bathtub" viewBox="0 0 24 24">
      <path d="M22.167 11.386H2.444V3.007c0-.523.523-1.047 1.134-1.047h2.095c.61 0 1.047.436 1.047 1.047-.96.262-1.745 1.135-1.745 2.095V6.41c0 .262.261.524.523.524H8.99c.262 0 .524-.262.524-.524V5.1c0-.96-.786-1.832-1.658-2.094A1.975 1.975 0 0 0 5.847 1H3.578c-1.134 0-2.094.96-2.094 2.007v8.291c-.786 0-1.484.698-1.484 1.484 0 .436.175.785.524 1.134v2.619c0 2.007.872 3.752 2.356 4.887l-.785 1.57c-.088.262 0 .524.261.699.262.087.524 0 .699-.262l.785-1.483c.96.523 2.095.785 3.23.785h9.86c1.136 0 2.27-.262 3.23-.786l.785 1.484c.088.262.437.35.699.262.262-.087.349-.436.262-.698l-.786-1.571c1.484-1.135 2.356-2.88 2.356-4.887v-2.619c.35-.261.524-.698.524-1.047-.35-.873-.96-1.483-1.833-1.483zM7.157 3.967c.61 0 1.221.611 1.221 1.135v.785H5.935v-.785c0-.524.61-1.135 1.221-1.135zm15.01 12.568c0 2.967-2.356 5.236-5.41 5.236H6.894c-3.055 0-5.411-2.27-5.411-5.236v-2.182h20.683v2.182zm0-3.23H1.484c-.262 0-.437-.174-.524-.436 0-.262.175-.524.524-.524h20.683c.262 0 .437.175.524.437 0 .262-.175.524-.524.524z" fill="gray"/>
    </symbol>
    <symbol id="icon-bed" viewBox="0 0 24 24">
      <path d="M21.722 10.346V6.359c0-1.79-1.22-2.359-2.36-2.359H4.72c-1.22 0-2.441.65-2.441 2.36v3.904C1.139 10.427 0 11.241 0 12.95v3.01c0 .489.407.895.895.895h.325v2.36c0 .65.407 1.057.977 1.057h.895a.903.903 0 0 0 .894-.895v-2.44h16.109v2.44c0 .488.407.895.895.895h.895a.903.903 0 0 0 .895-.895v-2.44h.325A.903.903 0 0 0 24 16.04v-3.092c0-1.708-1.139-2.522-2.278-2.603zM3.172 6.359c.082-1.22.814-1.464 1.547-1.464h14.644c.65 0 1.464.244 1.464 1.464v3.905h-.732V8.068a.903.903 0 0 0-.895-.895h-5.695a.903.903 0 0 0-.895.895v2.196h-1.057V8.068a.903.903 0 0 0-.895-.895H4.88a.903.903 0 0 0-.895.895v2.196h-.813V6.36zM19.2 8.068v2.196h-5.695V8.068H19.2zm-8.542 0v2.196H4.963V8.068h5.695zM3.01 19.376h-.895v-2.44h.895v2.44zm18.875 0h-.895v-2.44h.895v2.44zm1.22-3.335H.895v-1.383h22.129v1.383h.081zm0-2.278H.895v-.814c0-1.546 1.139-1.79 1.79-1.79h18.712c.65 0 1.79.244 1.79 1.79v.814h-.082z" fill="gray"/>
    </symbol>
    <symbol id="icon-bottle" viewBox="0 0 24 24">
      <path d="M12.5 13.8c.2-.2.3-.45.3-.7V13c0-.2-.05-.4-.2-.55-.05-.05-.05-.1-.1-.15-.15-.15-.2-.4-.05-.6 0-.05.05-.05.05-.1.2-.2.3-.45.3-.7V9.85c0-1.05-.55-2-1.45-2.5v-.4c.15 0 .25-.1.25-.25s-.1-.25-.25-.25V5.6c0-.35-.25-.6-.6-.6h-1.7c-.35 0-.6.25-.6.6v.85c-.15 0-.25.1-.25.25s.1.25.25.25v.4C7.65 7.8 7.15 8.6 7 9.5V10.95c0 .25.1.5.3.7 0 0 .05.05.05.1.15.2.1.45-.05.6-.05.05-.1.1-.1.15-.15.1-.2.3-.2.5v.1c0 .25.1.5.3.7 0 0 .05.05.05.1.15.2.1.45-.05.6-.05.05-.1.1-.1.15-.15.1-.2.3-.2.5v.1c0 .25.1.5.3.7.2.2.2.5 0 .7-.2.2-.3.45-.3.7v.6c0 .6.45 1.05 1.05 1.05h3.7c.6 0 1.05-.45 1.05-1.05v-.6c0-.2-.05-.4-.2-.55-.05-.05-.05-.1-.1-.15-.15-.15-.2-.4-.05-.6.05-.05.05-.05.05-.1.2-.2.3-.45.3-.7v-.1c0-.2-.05-.4-.2-.55 0-.05-.05-.1-.1-.1-.15-.15-.2-.4-.05-.6.05-.05.05-.1.05-.1zM8.95 5.6c0-.05.05-.1.1-.1h1.7c.05 0 .1.05.1.1v.85h-1.9V5.6zM8.8 7.7c.1-.05.15-.1.15-.2v-.55h1.95v.55c0 .1.05.15.15.2.5.25.9.75 1.1 1.3l-.3.15c-.65.3-1.35.3-2 0-.7-.35-1.5-.35-2.25-.05.2-.6.65-1.1 1.2-1.4zm3.5 3.25c0 .15-.05.25-.15.35-.4.4-.4 1 0 1.35.1.1.15.2.15.35v.1c0 .15-.05.25-.15.35-.4.4-.4 1 0 1.35.1.1.15.2.15.35v.1c0 .15-.05.25-.15.35-.4.4-.4 1 0 1.35.1.1.15.2.15.35v.6c0 .3-.25.55-.55.55h-3.7c-.3.05-.55-.2-.55-.5v-.6c0-.15.05-.25.15-.35.4-.4.4-1 0-1.35a.54.54 0 0 1-.15-.35v-.1c0-.15.05-.25.15-.35.4-.4.4-1 0-1.35-.1-.15-.15-.25-.15-.4V13c0-.15.05-.25.15-.35.4-.4.4-1 0-1.35a.54.54 0 0 1-.15-.35v-1.1-.15l.2-.1c.65-.3 1.35-.3 2 0 .75.35 1.6.35 2.35 0l.25-.1V10.95z" fill="gray"/><path d="M16.7 12.65c.15-.15.25-.35.25-.6v-.95c0-.9-.5-1.75-1.25-2.2v-.3c.1 0 .2-.1.2-.2s-.1-.2-.2-.2v-.75c0-.3-.25-.5-.5-.5h-1.5c-.3 0-.5.25-.5.5V8c.15.2.3.45.4.7v-.1h1.7v.45c0 .1.05.15.1.2.45.25.85.65 1 1.15l-.25.1c-.55.25-1.15.25-1.7 0-.2-.1-.4-.15-.6-.15v.4c.15.05.3.1.4.15.65.3 1.4.3 2.05 0l.2-.1v1.25c0 .1-.05.2-.1.3-.35.35-.35.85 0 1.2.1.1.1.2.1.3v.1c0 .1-.05.2-.1.3-.35.35-.35.85 0 1.2.1.1.1.2.1.3v.1c0 .1-.05.2-.1.3-.35.35-.35.85 0 1.2.1.1.1.2.1.3v.45c0 .25-.2.5-.5.5h-2.45c-.2.25-.5.4-.8.4H16c.5 0 .9-.4.9-.9v-.45c0-.15-.05-.35-.15-.5-.05-.05-.05-.1-.1-.1-.15-.15-.15-.35-.05-.55l.05-.05c.15-.15.25-.35.25-.6v-.1c0-.15-.05-.35-.15-.5-.05-.05-.05-.1-.1-.1-.15-.15-.15-.35-.05-.55l.05-.05c.15-.15.25-.35.25-.6v-.1c0-.15-.05-.35-.15-.5-.05-.05-.05-.1-.1-.1-.15-.15-.15-.35-.05-.55.1 0 .1 0 .1-.05zM15.3 8.2h-1.7v-.75c0-.05.05-.1.1-.1h1.5c.05 0 .1.05.1.1v.75z" fill="gray"/>
    </symbol>
    <symbol id="icon-caret-down" viewBox="0 0 24 24">
      <path d="M12 19L0 6.8 1.8 5 12 15.2 22.2 5 24 6.8 12 19z"/>
    </symbol>
    <symbol id="icon-chain" viewBox="0 0 24 24">
      <g stroke-miterlimit="10" stroke-width=".5"><path d="M22.1 5.6l-2.7-2.7c-1.2-1.2-3.1-1.2-4.3 0l-3 2.9c-1.2 1.2-1.2 3.1 0 4.2l1.7-1.6c-.2-.5 0-1.1.5-1.5L16.2 5c.6-.6 1.6-.6 2.2 0L20 6.6c.6.6.6 1.5 0 2.1l-1.9 1.9c-.4.4-1.1.6-1.6.5l-1.7 1.6c1.2 1.2 3.1 1.2 4.3 0l3-2.9c1.2-1.1 1.2-3 0-4.2zM11.2 16.3c.1.5-.1 1.1-.5 1.5l-1.8 1.7c-.6.6-1.6.6-2.2 0l-1.6-1.6c-.6-.6-.6-1.6 0-2.2L6.9 14c.4-.4 1.1-.6 1.6-.5l1.7-1.7c-1.2-1.2-3.2-1.2-4.4 0l-2.9 2.8c-1.2 1.2-1.2 3.1 0 4.3l2.7 2.7c1.2 1.2 3.2 1.2 4.4 0l2.9-2.8c1.2-1.2 1.2-3.1 0-4.3z"/><path d="M9.3 15.5c.4.4 1.1.4 1.5 0l4.9-4.9c.4-.4.4-1.1 0-1.5s-1.1-.4-1.5 0L9.3 14c-.4.4-.4 1.1 0 1.5z"/></g>
    </symbol>
    <symbol id="icon-clock" viewBox="0 0 24 24">
      <path d="M11.502 10.5c1.1 0 2-.9 2-2s-.9-2-2-2-2 .9-2 2 .9 2 2 2zm0-3.5c.8 0 1.4.6 1.4 1.4 0 .8-.6 1.4-1.4 1.4-.8 0-1.4-.6-1.4-1.4 0-.7.6-1.4 1.4-1.4z"/><path d="M11.502 18.7l4.4-6.3c1.7-2.2 1.4-5.8-.5-7.8-1.1-1-2.5-1.6-3.9-1.6-1.5 0-2.9.6-3.9 1.6-2 1.9-2.2 5.6-.5 7.8l4.4 6.3zM8.002 5c.9-.9 2.2-1.4 3.5-1.4 1.3 0 2.6.5 3.5 1.4 1.7 1.7 2 5 .5 7l-3.9 5.7-4.1-5.7c-1.5-2-1.3-5.2.5-7z"/><path d="M15.002 16.1c-.2 0-.3.1-.3.3 0 .2.1.3.3.3 3 .4 4.6 1.3 4.6 1.9 0 .8-3.1 1.9-8 1.9-5 0-8.1-1.1-8.1-1.9 0-.6 1.6-1.5 4.6-1.9.2 0 .3-.2.3-.3 0-.2-.2-.3-.3-.3-3 .4-5.1 1.4-5.1 2.4-.1 1.3 2.9 2.5 8.5 2.5 5.7 0 8.6-1.2 8.6-2.4 0-1.1-2.1-2.1-5.1-2.5z"/>
    </symbol>
    <symbol id="icon-desk" viewBox="0 0 24 24">
      <path d="M14.55 8.426H2.75c-.45 0-.75.3-.75.7v.8c0 .4.35.75.75.75h1.1v6c0 .2.15.35.3.35.2 0 .35-.15.35-.35v-6h8.25v6c0 .2.15.35.35.35.2 0 .35-.15.35-.35v-6h1.1c.4 0 .75-.35.75-.75v-.8c0-.4-.35-.7-.75-.7zm.05 1.55c0 .05-.05.1-.1.1H2.75l-.1-.1v-.85c0-.05.05-.05.1-.05h11.8c.05 0 .1.05.1.05v.85h-.05z" fill="gray"/><path d="M22.7 6.426c-.1-.15-.2-.25-.35-.3l-.3-.1c-.3-.1-.6.1-.7.4l-.9 2.95c-.05.15-.05.3.05.45.05.1.1.15.15.2l-.55 1.7h-4.7c-.4 0-.7.35-.7.75v.55c0 .4.3.75.7.75h.15l-1.2 2.75c-.05.15 0 .35.2.45h.1c.15 0 .25-.05.3-.25l1.35-3.1h3.45l1.35 3.1c.05.15.15.25.3.25h.1c.15-.05.25-.25.2-.45l-1.2-2.9c.3-.1.55-.4.55-.7v-.55c0-.25-.1-.45-.25-.55l.55-1.65c.25 0 .45-.15.55-.4l.9-2.95c0-.1 0-.25-.1-.4zm-2.35 6.55c0 .05 0 .1-.05.1h-4.9s-.05 0-.05-.05v-.55c0-.05 0-.05.05-.05H20.3s.05 0 .05.05v.5zm.9-3.45h-.1l.85-2.8.1.05-.85 2.75z" fill="gray"/>
    </symbol>
    <symbol id="icon-download" viewBox="0 0 24 24">
      <g clip-path="url(#a)"><path d="M12.8 0h-1.5v18h1.5V0zM24 22.7H0v1.5h24v-1.5z"/><path d="M12 19l-8-8 1.2-1.2 6.8 6.7 6.8-6.7L20 11l-8 8z"/></g>
    </symbol>
    <symbol id="icon-envelope" viewBox="0 0 24 24">
      <g fill="#000"><path d="M17.4 7H7.6C6.7 7 6 7.7 6 8.6v6.7c0 .9.7 1.6 1.6 1.6h9.8c.9 0 1.6-.7 1.6-1.6V8.6c0-.9-.7-1.6-1.6-1.6zm.9 8.3c0 .5-.4.85-.85.85H7.6c-.5 0-.85-.4-.85-.85V8.6c0-.5.4-.85.85-.85h9.8c.5 0 .85.4.85.85z"/><path d="M14.2 11.85L17.4 9c.15-.15.15-.35.05-.5a.385.385 0 0 0-.5-.05L12.5 12.4l-.85-.75-.05-.05-3.5-3.1c-.15-.15-.35-.15-.5 0s-.15.4 0 .5l3.2 2.9-3.2 3c-.15.15-.15.35 0 .5.1.1.2.1.3.1s.2-.05.25-.1l3.25-3.05.9.8c.05.05.15.1.25.1s.2-.05.25-.1l.9-.8 3.25 3.05c.05.05.15.1.25.1s.2-.05.25-.1c.15-.15.15-.4 0-.5z"/></g>
    </symbol>
    <symbol id="icon-facebook" viewBox="0 0 24 24">
      <path d="M17.992 13.13l.571-4.236H14.28V6.071c0-1.271.286-2.118 2.142-2.118h2.284V.14C18.278.141 16.85 0 15.28 0c-3.284 0-5.568 1.976-5.568 5.647v3.106H6v4.235h3.712V24h4.425V13.13z"/>
    </symbol>
    <symbol id="icon-gym" viewBox="0 0 24 24">
      <path d="M20.752 10.3c-.2-.2-.45-.35-.7-.35h-.4v-.3c0-.55-.5-1-1.1-1h-.5v-.6c0-.25-.1-.55-.3-.75-.4-.4-1.1-.4-1.5 0-.2.2-.3.45-.3.75v2.7H9.05v-2.7c0-.25-.1-.55-.3-.75-.4-.4-1.1-.4-1.5 0-.2.2-.35.5-.35.75v.6h-.55c-.25 0-.5.1-.7.25-.2.2-.3.45-.3.7v.35h-.4c-.25 0-.5.1-.701.35-.15.2-.25.45-.25.75v1.55c0 .3.1.55.25.75.2.2.45.35.7.35h.4v.35c0 .25.1.5.3.7.2.2.45.25.7.25h.55v.601c0 .25.1.55.3.7.2.2.45.3.75.3s.55-.1.75-.3c.2-.2.3-.45.3-.7v-2.7h6.901v2.7c0 .25.1.55.3.7.2.2.45.3.75.3s.55-.1.75-.3c.2-.2.3-.45.3-.7v-.6h.5c.6 0 1.1-.45 1.1-1v-.3h.4c.25 0 .5-.1.701-.35.15-.2.25-.45.25-.75v-1.55c.05-.3-.05-.55-.2-.75zM4.95 13.15c-.1 0-.2-.05-.3-.15-.1-.1-.15-.25-.15-.4v-1.55c0-.15.05-.3.15-.4.1-.1.2-.15.3-.15h.4v2.65h-.4zm1.4 1.35c-.15 0-.25-.05-.35-.15-.1-.1-.15-.2-.15-.3V9.6c0-.1.05-.2.15-.3.1-.1.2-.15.35-.15h.55v5.3h-.55v.05zm2.15 1.101c0 .15-.05.25-.15.35-.2.2-.55.2-.75 0-.1-.1-.15-.2-.15-.35V8.051c0-.15.05-.25.15-.35.1-.05.25-.15.4-.15.15 0 .3.05.4.15.05.1.1.25.1.35v7.55zm.55-3.25V11.3h6.901v1.05h-6.9zm8.502 3.25c0 .15-.05.25-.15.35-.2.2-.55.2-.75 0-.1-.1-.15-.2-.15-.35V8.051c0-.15.05-.25.15-.35.1-.05.2-.15.35-.15.15 0 .3.05.4.15.1.1.15.25.15.35V15.6zm1.6-1.6c0 .25-.25.5-.55.5h-.5V9.15h.5c.3 0 .55.2.55.5V14zm1.3-1.4c0 .15-.05.3-.15.4-.1.1-.15.15-.25.15h-.4V10.5h.4c.1 0 .2.05.25.15.1.1.15.25.15.4v1.55z" fill="gray"/>
    </symbol>
    <symbol id="icon-hair-dryer" viewBox="0 0 24 24">
      <path d="M16 6.9L9.05 6H8.6C6.6 6 5 7.6 5 9.6v.1c0 1.35.75 2.5 1.85 3.15l.95 3.9c.1.45.35.8.75 1 .25.15.55.25.85.25.15 0 .25 0 .4-.05h.05c.45-.1.8-.35 1-.75.25-.4.3-.85.2-1.25l-.7-2.8L16 12.4c.15 0 .25-.15.25-.3V7.2c0-.15-.1-.3-.25-.3zm-5.55 9.15c.05.25 0 .55-.1.8a.88.88 0 0 1-.65.45h-.05c-.25.05-.55 0-.8-.1a.88.88 0 0 1-.45-.65l-.85-3.45c.35.1.7.15 1.05.15H9l.7-.1.75 2.9zm5.2-4.2l-6.7.8H8.6c-1.65 0-3-1.35-3-3V9.6c0-1.65 1.35-3 3-3h.35l6.7.85v4.4z" fill="gray"/><path d="M6.75 9.65c0 1.15.9 2.05 2.05 2.05s2.05-.9 2.05-2.05S9.95 7.6 8.8 7.6s-2.05.9-2.05 2.05zm3.5 0a1.451 1.451 0 0 1-2.9 0 1.451 1.451 0 0 1 2.9 0zM17 8.65c.2 0 .25.1.45.3.15.25.4.55.9.55s.75-.3.9-.55c.15-.2.25-.3.45-.3.15 0 .3-.15.3-.3s-.15-.3-.3-.3c-.5 0-.75.3-.9.55-.15.2-.25.3-.45.3s-.25-.1-.45-.3c-.15-.25-.4-.55-.9-.55-.15 0-.3.15-.3.3 0 .2.15.3.3.3zM19.7 9.9c-.5 0-.75.3-.9.55-.15.2-.25.3-.45.3s-.25-.1-.45-.3c-.15-.2-.4-.55-.9-.55-.15 0-.3.15-.3.3s.15.3.3.3c.2 0 .25.1.45.3.2.2.45.55.9.55.5 0 .75-.3.9-.55.15-.2.25-.3.45-.3.15 0 .3-.15.3-.3s-.15-.3-.3-.3z" fill="gray"/>
    </symbol>
    <symbol id="icon-hamburger" viewBox="0 0 24 24">
      <path d="M0 4h24v1H0zM0 11h15v1H0zM0 18h24v1H0z"/>
    </symbol>
    <symbol id="icon-instagram" viewBox="0 0 24 24">
      <path d="M0 16V7.867c0-.934.133-1.867.267-2.8C.8 3.067 2 1.6 4 .667 5.067.267 6.133.133 7.333 0h8.8c.934 0 1.867.133 2.8.267 2 .533 3.467 1.733 4.4 3.6.4 1.066.534 2.133.667 3.333v8.933c0 .934-.133 1.867-.267 2.8-.533 2-1.733 3.467-3.6 4.4-1.066.4-2.133.534-3.333.667H7.867c-.934 0-1.867-.133-2.8-.267-2-.533-3.467-1.733-4.4-3.6C.267 19.067.133 18 0 16.8V16zm21.867-4V9.067c0-.934 0-1.867-.134-2.8-.133-.934-.4-1.734-1.066-2.4-.8-.934-2-1.334-3.2-1.467-1.467-.133-2.8-.267-4.267-.267H8.933c-.933 0-1.866 0-2.8.134-.8.133-1.733.533-2.4 1.066-.933.934-1.333 2-1.466 3.2 0 1.467-.134 2.8-.134 4.267v4.267c0 .933 0 1.866.134 2.8.133.933.4 1.733 1.066 2.4.8.933 2 1.333 3.2 1.466 1.467 0 2.8.134 4.267.134h4.267c1.066 0 2.133 0 3.066-.267 1.734-.267 2.934-1.333 3.334-3.067.133-.533.266-1.2.266-1.733.134-1.6.134-3.2.134-4.8z"/><g clip-rule="evenodd" fill-rule="evenodd"><path d="M18.133 12c0 3.467-2.8 6.133-6.133 6.133S5.867 15.333 5.867 12c0-3.467 2.8-6.133 6.133-6.133 3.467 0 6.133 2.666 6.133 6.133zM12 16c2.133 0 4-1.733 4-4s-1.733-4-4-4c-2.133 0-4 1.733-4 4 0 2.133 1.733 4 4 4zM18.4 4.133c.8 0 1.467.667 1.467 1.467S19.2 7.067 18.4 7.067 16.933 6.4 16.933 5.6 17.6 4.133 18.4 4.133z"/></g>
    </symbol>
    <symbol id="icon-map-marker" viewBox="0 0 24 24">
      <path d="M12.3 20.7C7.7 20.7 4 17 4 12.3S7.7 4 12.3 4c4.6 0 8.3 3.7 8.3 8.3 0 4.6-3.6 8.4-8.3 8.4zm0-16c-4.2 0-7.7 3.4-7.7 7.7 0 4.3 3.5 7.6 7.7 7.6s7.7-3.4 7.7-7.7c0-4.3-3.4-7.6-7.7-7.6z"/><path d="M12.7 12.7h-5V12H12V7h.7v5.7z"/>
    </symbol>
    <symbol id="icon-mapmarker" viewBox="0 0 24 24">
      <g fill="#000" stroke="#000" stroke-miterlimit="10" stroke-width=".7"><path d="M12.3 11.35a1.45 1.45 0 0 0 0-2.9 1.451 1.451 0 0 0 0 2.9zm0-2.5c.55 0 1.05.45 1.05 1.05 0 .55-.45 1.05-1.05 1.05-.55 0-1.05-.45-1.05-1.05.05-.6.5-1.05 1.05-1.05z"/><path d="M12.3 17.349l3.2-4.6c1.199-1.6 1.049-4.2-.35-5.6C14.4 6.4 13.4 6 12.35 6s-2.05.4-2.8 1.15c-1.4 1.4-1.55 4-.4 5.6zm-2.55-9.95c.7-.65 1.55-1.049 2.55-1.049.95 0 1.85.35 2.55 1.05 1.249 1.25 1.399 3.65.35 5.1l-2.85 4.149-2.95-4.2c-1.05-1.45-.9-3.8.35-5.05z"/><path d="M14.85 15.45c-.1 0-.2.05-.25.2 0 .1.05.199.2.249 2.199.25 3.349.95 3.349 1.35 0 .55-2.2 1.35-5.85 1.35-3.6 0-5.849-.8-5.849-1.35 0-.4 1.15-1.1 3.35-1.35.1 0 .2-.1.2-.25 0-.1-.1-.2-.25-.2-2.2.25-3.75 1-3.75 1.75 0 .9 2.15 1.75 6.25 1.75 4.099 0 6.249-.9 6.249-1.75.05-.8-1.45-1.5-3.65-1.75z"/></g>
    </symbol>
    <symbol id="icon-minus-thick" viewBox="0 0 24 24">
      <g clip-path="url(#a)"><path d="M46.65 11H0v1.5h46.65V11z"/></g>
    </symbol>
    <symbol id="icon-minus" viewBox="0 0 24 24">
      <path d="M24 11H0v.772h24V11z"/>
    </symbol>
    <symbol id="icon-playground" viewBox="0 0 24 24">
      <path d="M8.1 6.3H5.55c-.5 0-.95.4-.95.95V9.8c0 .5.4.95.95.95H8.1c.5 0 .95-.4.95-.95V7.2c0-.5-.45-.9-.95-.9zm.35 3.45c0 .2-.15.35-.35.35H5.55c-.2 0-.35-.15-.35-.35V7.2c0-.2.15-.35.35-.35H8.1c.2 0 .35.15.35.35v2.55z" fill="gray"/><path d="M20.55 17.8c-1.6 0-3-1.65-4.4-3.4-1.65-2-3.35-4.1-5.85-4.25V7.2C10.3 6 9.3 5 8.1 5H5.55C4.3 5 3.3 6 3.3 7.2v11.85c-.15 0-.3.15-.3.3s.15.3.3.3h1.9c.15 0 .3-.15.3-.3s-.15-.3-.3-.3v-6.7c0-.2.15-.35.35-.35H8.1c.2 0 .35.15.35.35v6.75c-.15 0-.3.15-.3.3s.15.3.3.3h1.9c.15 0 .3-.15.3-.3s-.15-.3-.3-.3V12c.8.1 1.55.55 2.3 1.2v5.85h-.35c-.15 0-.3.15-.3.3s.15.3.3.3h1.3c.15 0 .3-.15.3-.3s-.15-.3-.3-.3h-.35V13.8c.5.55 1 1.15 1.5 1.75.35.45.7.9 1.1 1.3v2.2h-.35c-.15 0-.3.15-.3.3s.15.3.3.3h1.3c.15 0 .3-.15.3-.3s-.15-.3-.3-.3h-.35V17.5c1.2 1.2 2.5 2.15 4.2 2.15.5 0 .95-.4.95-.95-.1-.5-.5-.9-1.05-.9zm-11.5 1.25v-6.7c0-.5-.4-.95-.95-.95H5.55c-.5 0-.95.4-.95.95v6.75h-.7V7.2c0-.9.75-1.6 1.6-1.6h2.55c.9 0 1.6.75 1.6 1.6v11.85h-.6zm11.5 0c-2.25 0-3.85-2-5.4-3.9-1.5-1.85-2.95-3.6-4.85-3.75v-.7c2.25.15 3.85 2.1 5.4 4 1.55 1.85 2.95 3.65 4.85 3.65.2 0 .35.15.35.35 0 .2-.15.35-.35.35z" fill="gray"/>
    </symbol>
    <symbol id="icon-plus" viewBox="0 0 24 24">
      <g clip-path="url(#a)"><path d="M12.386-.614v24h-1.5v-24h1.5z"/><path d="M24 12.5H0V11h24v1.5z"/></g>
    </symbol>
    <symbol id="icon-pool" viewBox="0 0 24 24">
      <g fill="#000"><path d="M17.9 9.35c-.6 0-.85-.25-1.15-.5-.25-.2-.4-.4-.8-.4s-.6.15-.8.4c-.25.25-.55.5-1.15.5s-.85-.25-1.15-.5c-.25-.2-.4-.4-.8-.4s-.6.15-.8.4c-.25.25-.55.5-1.15.5-.6 0-.85-.25-1.15-.5-.15-.2-.35-.4-.75-.4s-.6.15-.8.4c-.25.25-.55.5-1.15.5s-.85-.25-1.15-.5c-.2-.2-.35-.4-.75-.4-.15 0-.25-.1-.25-.2 0-.15.1-.25.25-.25.6 0 .85.25 1.15.5.25.2.4.4.8.4.35 0 .55-.2.8-.4.25-.25.55-.5 1.15-.5s.85.25 1.15.5c.25.2.4.4.8.4s.6-.15.8-.4c.25-.25.55-.5 1.15-.5s.85.25 1.15.5c.25.2.4.4.8.4s.6-.15.8-.4c.25-.25.55-.5 1.15-.5s.85.25 1.15.5c.25.2.4.4.8.4s.6-.15.8-.4c.25-.25.55-.5 1.15-.5.05 0 .15.1.15.25s-.1.25-.25.25c-.4 0-.6.15-.8.4-.25.2-.55.45-1.15.45zM17.9 11.55c-.6 0-.85-.25-1.15-.5-.25-.2-.4-.4-.8-.4s-.6.15-.8.4c-.25.25-.55.5-1.15.5s-.85-.25-1.15-.5c-.25-.2-.4-.4-.8-.4s-.6.15-.8.4c-.25.25-.55.5-1.15.5-.6 0-.85-.25-1.15-.5-.15-.2-.35-.4-.75-.4s-.6.15-.8.4c-.25.25-.55.5-1.15.5s-.85-.25-1.15-.5c-.2-.2-.35-.4-.75-.4-.15 0-.25-.1-.25-.25s.1-.25.25-.25c.6 0 .85.25 1.15.5.25.2.4.4.8.4s.6-.15.8-.4c.25-.25.55-.5 1.15-.5s.85.25 1.15.5c.25.2.4.4.8.4s.6-.15.8-.4c.25-.25.55-.5 1.15-.5s.85.25 1.15.5c.25.2.4.4.8.4s.6-.15.8-.4c.25-.25.55-.5 1.15-.5s.85.25 1.15.5c.25.2.4.4.8.4s.6-.15.8-.4c.25-.25.55-.5 1.15-.5.15 0 .25.1.25.25s-.1.25-.25.25c-.4 0-.6.15-.8.4-.35.25-.65.5-1.25.5zM17.9 13.75c-.6 0-.85-.25-1.15-.5-.25-.2-.4-.4-.8-.4s-.6.15-.8.4c-.25.25-.55.5-1.15.5s-.85-.25-1.15-.5c-.15-.25-.35-.4-.75-.4s-.6.15-.8.4c-.25.25-.55.5-1.15.5-.6 0-.85-.25-1.15-.5-.2-.25-.4-.4-.8-.4s-.6.15-.8.4c-.25.25-.55.5-1.15.5s-.85-.25-1.15-.5c-.2-.25-.35-.4-.75-.4-.15 0-.25-.1-.25-.25 0-.1.1-.2.25-.2.6 0 .85.25 1.15.5.25.2.4.4.8.4s.6-.15.8-.4c.25-.25.55-.5 1.15-.5s.85.25 1.15.5c.25.2.4.4.8.4s.6-.15.8-.4c.25-.25.55-.5 1.15-.5s.85.25 1.15.5c.25.2.4.4.8.4s.6-.15.8-.4c.25-.25.55-.5 1.15-.5s.85.25 1.15.5c.25.2.4.4.8.4s.6-.15.8-.4c.25-.25.55-.5 1.15-.5.05 0 .15.1.15.2 0 .15-.1.25-.25.25-.4 0-.6.15-.8.4-.25.2-.55.5-1.15.5zM17.9 15.95c-.6 0-.85-.25-1.15-.5-.25-.2-.4-.4-.8-.4s-.6.15-.8.4c-.25.25-.55.5-1.15.5s-.85-.25-1.15-.5c-.25-.2-.4-.4-.8-.4s-.6.15-.8.4c-.25.25-.55.5-1.15.5s-.85-.25-1.15-.5c-.25-.2-.4-.4-.8-.4s-.6.15-.8.4c-.25.25-.55.5-1.15.5s-.85-.25-1.15-.5c-.25-.2-.4-.4-.8-.4-.15 0-.25-.1-.25-.25s.1-.25.25-.25c.6 0 .85.25 1.15.5.25.2.4.4.8.4s.6-.15.8-.4c.25-.25.55-.5 1.15-.5s.85.25 1.15.5c.25.2.4.4.8.4s.6-.15.8-.4c.25-.25.55-.5 1.15-.5s.85.25 1.15.5c.25.2.4.4.8.4s.6-.15.8-.4c.25-.25.55-.5 1.15-.5s.85.25 1.15.5c.25.2.4.4.8.4s.6-.15.8-.4c.25-.25.55-.5 1.15-.5.15 0 .25.1.25.25s-.1.25-.25.25c-.4 0-.6.15-.8.4-.25.2-.55.5-1.15.5z"/></g>
    </symbol>
    <symbol id="icon-spa" viewBox="0 0 24 24">
      <path d="M20.873 12.274l-1.35-1.35c-.35-.35-.75-.6-1.15-.8.25-.55.4-1.2.4-1.8v-1.9c0-.15-.1-.25-.25-.25h-1.85c-.65 0-1.25.15-1.8.4-.2-.45-.5-.85-.8-1.15l-1.35-1.349c-.1-.1-.3-.1-.4 0l-1.349 1.35c-.35.35-.6.75-.8 1.15-.55-.25-1.2-.4-1.8-.4h-1.95c-.15 0-.25.1-.25.25v1.85c0 .65.15 1.25.4 1.8-.45.2-.85.5-1.15.799l-1.349 1.35c-.1.1-.1.3 0 .4l1.35 1.35c.35.35.75.6 1.15.8-.25.55-.4 1.2-.4 1.8v1.849c0 .15.1.25.25.25h1.85c.65 0 1.25-.15 1.8-.4.2.45.5.85.799 1.15l1.35 1.35c.1.1.3.1.4 0l1.35-1.35c.35-.35.6-.75.8-1.15.55.25 1.2.4 1.8.4h1.849c.15 0 .25-.1.25-.25v-1.85c0-.65-.15-1.25-.4-1.8.45-.2.85-.5 1.15-.8l1.35-1.35c.25-.05.25-.25.1-.35zm-5.85-5.2c.5-.25 1.05-.35 1.6-.35h1.6v1.6c0 .55-.1 1.1-.35 1.6-.4-.1-.8-.2-1.25-.2h-.1c-.6 0-1.15.1-1.65.35.25-.55.35-1.1.35-1.65v-.1c0-.45-.05-.85-.2-1.25zm1.5 3.2h.1c.3 0 .65.05.95.15-.15.2-.3.4-.5.6l-.05.05c-.7.7-1.7 1.15-2.7 1.1h-1.2l.9-.85a3.56 3.56 0 0 1 2.5-1.05zm-1.85-1.95v.1c0 .95-.35 1.85-1.05 2.5l-.9.9v-1.2c0-1 .4-2 1.1-2.7l.05-.05c.2-.2.4-.35.6-.5.15.3.2.6.2.95zm-3.349-2.55l1.15-1.15 1.15 1.15c.3.3.55.65.7 1.05-.3.2-.55.4-.8.65l-.05.05c-.45.45-.8 1-1 1.6-.2-.6-.55-1.15-1-1.6l-.05-.05c-.25-.25-.5-.45-.8-.65.15-.4.4-.75.7-1.05zm-1.05 2.55c0-.3.05-.65.15-.95.2.15.4.3.6.5l.05.05c.7.7 1.15 1.7 1.1 2.7v1.2l-.9-.9c-.65-.65-1.05-1.6-1.05-2.5v-.1h.05zm.65 3l.9.85h-1.2c-1 0-2-.4-2.7-1.1l-.05-.05c-.2-.2-.35-.4-.5-.6.3-.1.65-.15.95-.15h.1c.95 0 1.85.4 2.5 1.05zm-4.2-4.6h1.6c.55 0 1.1.1 1.6.35-.1.4-.2.8-.2 1.25v.1c0 .6.1 1.15.35 1.65a3.92 3.92 0 0 0-1.65-.35h-.1c-.4 0-.85.05-1.25.2-.25-.5-.35-1.05-.35-1.6v-1.6zm-.95 6.9l-1.15-1.15 1.15-1.15c.3-.3.65-.55 1.05-.7.2.3.4.55.65.8l.05.05c.45.45 1 .8 1.6 1-.6.2-1.15.55-1.6 1l-.05.05c-.25.25-.45.5-.65.8-.4-.15-.75-.4-1.05-.7zm4.15 4.25c-.5.249-1.05.349-1.6.349h-1.6v-1.6c0-.55.1-1.1.35-1.6.4.1.8.2 1.25.2h.1c.6 0 1.15-.1 1.65-.35-.25.55-.35 1.1-.35 1.65v.1c0 .45.05.85.2 1.25zm-1.5-3.2h-.1c-.3 0-.65-.05-.95-.15.15-.2.3-.4.5-.6l.05-.05c.7-.7 1.7-1.15 2.7-1.1h1.2l-.9.9c-.65.6-1.55 1-2.5 1zm1.85 1.95v-.1c0-.95.35-1.85 1.05-2.5l.85-.9v1.2c0 1-.4 2-1.1 2.7l-.05.05c-.2.2-.4.35-.6.5-.1-.3-.15-.6-.15-.95zm3.35 2.549l-1.15 1.15-1.15-1.15c-.3-.3-.55-.65-.7-1.05.3-.2.55-.4.8-.65l.05-.05c.45-.45.8-1 1-1.6.2.6.55 1.15 1 1.6l.05.05c.25.25.5.45.8.65-.15.4-.4.75-.7 1.05zm1.05-2.55c0 .3-.05.65-.15.95-.2-.15-.4-.3-.6-.5l-.05-.05c-.7-.7-1.15-1.7-1.1-2.7v-1.2l.9.9a3.56 3.56 0 0 1 1.05 2.5v.1h-.05zm-.65-3l-.9-.9h1.2c1 0 2 .4 2.7 1.1l.05.05c.2.2.35.4.5.6-.3.1-.65.15-.95.15h-.1c-.95.05-1.85-.35-2.5-1zm4.199 4.6h-1.6c-.55 0-1.1-.1-1.6-.35.1-.4.2-.8.2-1.25v-.1c0-.6-.1-1.15-.35-1.65.55.25 1.1.35 1.65.35h.1c.4 0 .85-.05 1.25-.2.25.5.35 1.05.35 1.6v1.6zm.95-4.6c-.3.3-.65.55-1.05.7-.2-.3-.4-.55-.65-.8l-.05-.05c-.45-.45-1-.8-1.6-1 .6-.2 1.15-.55 1.6-.999l.05-.05c.25-.25.45-.5.65-.8.4.2.75.4 1.05.7l1.15 1.15-1.15 1.15z" fill="gray"/>
    </symbol>
    <symbol id="icon-television" viewBox="0 0 24 24">
      <path d="M18.15 5H6.85C5.85 5 5 5.85 5 6.85V14c0 1 .85 1.85 1.85 1.85h5.25v1.75H9.45c-.25 0-.4.2-.4.4 0 .25.2.4.4.4h6.05c.25 0 .4-.2.4-.4 0-.25-.2-.4-.4-.4h-2.6v-1.75h5.25c1 0 1.85-.85 1.85-1.85V6.85c0-1-.85-1.85-1.85-1.85zm-11.3.85h11.3c.55 0 1 .45 1 1v6H5.85v-6c0-.55.45-1 1-1zm11.3 9.2H6.85c-.55 0-1-.45-1-1v-.35h13.3v.3c0 .55-.45 1.05-1 1.05z" fill="gray"/>
    </symbol>
    <symbol id="icon-toiletries" viewBox="0 0 24 24">
      <path d="M8.4 14.3v-1a.95.95 0 0 0-.95-.95H6.8a.95.95 0 0 0-.95.95v1c-.5 0-.85.4-.85.85v2.95c0 .5.4.85.85.85h2.6c.5 0 .85-.4.85-.85v-2.95c0-.45-.4-.85-.9-.85zm-1.95-1c0-.2.15-.35.35-.35h.65c.2 0 .35.15.35.35v1H6.45v-1zm2.25 4.85c0 .15-.1.25-.25.25H5.8c-.15 0-.25-.1-.25-.25V15.2c0-.15.1-.25.25-.25h2.6c.15 0 .25.1.25.25v2.95h.05zm7-11.05v.4h2.15c.15 0 .3.15.3.3s-.15.3-.3.3H15.4c-.15 0-.3-.15-.3-.3v-1c0-.15.15-.3.3-.3h2.45c.15 0 .3.15.3.3s-.15.3-.3.3H15.7zm2 6.5c.05.05.1.15.1.25l-.5 4.9c0 .15-.15.3-.3.3h-3.15c-.15 0-.3-.15-.3-.3s.15-.3.3-.3h2.85l.5-4.3h-3.35c-.15 0-.3-.15-.3-.3s.15-.3.3-.3h3.6c.1-.05.15 0 .25.05zm-3.6-.9V6.3c0-.45.35-.8.8-.8h2.95c.15 0 .3.15.3.3s-.15.3-.3.3H14.9c-.1 0-.2.1-.2.2v6.4c0 .15-.15.3-.3.3s-.3-.15-.3-.3zm1.6-3.65v.4h2.15c.15 0 .3.15.3.3s-.15.3-.3.3H15.4c-.15 0-.3-.15-.3-.3v-1c0-.15.15-.3.3-.3h2.45c.15 0 .3.15.3.3s-.15.3-.3.3H15.7zm-3.65.4h-.5V8.6c0-.45-.25-.85-.6-1V6.5c0-.15-.15-.3-.3-.3h-.3v-.9c0-.15-.15-.3-.3-.3h-2.9c-.3 0-.5.25-.5.55v.6c0 .15.15.3.3.3s.3-.15.3-.3V5.6H9.7v.6h-.3c-.15 0-.3.15-.3.3v1.05c-.4.2-.65.6-.65 1.05v.85h-.5c-.5 0-.85.4-.85.85v1c0 .15.15.3.3.3s.3-.15.3-.3v-1c0-.15.1-.25.25-.25h4.1c.15 0 .25.1.25.25v7.85c0 .15-.1.25-.25.25h-2.1c-.15 0-.3.15-.3.3s.15.3.3.3h2.1c.5 0 .85-.4.85-.85V10.3c.05-.5-.35-.85-.85-.85zM9.7 6.8h.65v.65H9.7V6.8zm1.25 2.65H9.1V8.6c0-.3.25-.55.55-.55h.8c.3 0 .55.25.55.55v.85h-.05zm7.2 1.3c0 .15-.15.3-.3.3H15.7v1.65c0 .15-.15.3-.3.3s-.3-.15-.3-.3v-1.95c0-.15.15-.3.3-.3h2.45c.2 0 .3.1.3.3z" fill="gray"/>
    </symbol>
    <symbol id="icon-towel" viewBox="0 0 24 24">
      <path d="M19.85 5.85c-.55 0-.95.35-1.1.85h-.6v-.55C18.15 5.5 17.65 5 17 5H7.95c-.6 0-1.1.45-1.1.95v.75h-.6c-.15-.5-.55-.85-1.1-.85C4.5 5.85 4 6.35 4 7c0 .6.5 1.15 1.15 1.15.55 0 .95-.35 1.1-.85h.6v10.5c0 .5.35.85.85.85h7.95c.5 0 .85-.35.85-.85v-.3h.85c.5 0 .85-.35.85-.85v-9.4h.6c.15.5.55.85 1.1.85.6 0 1.1-.5 1.1-1.1 0-.65-.5-1.15-1.15-1.15zm-14.7 1.7c-.35 0-.6-.25-.6-.55 0-.3.25-.55.55-.55.3 0 .55.25.55.55.05.3-.2.55-.5.55zm12.45-1.4v.55h-1.15v-.55c0-.25.25-.55.55-.55.35-.05.6.2.6.55zm-10.2-.2c0-.25.25-.4.55-.4h8.1c-.1.15-.15.35-.15.5V15.75H7.4v-9.8zm8.5 11.8c0 .15-.1.3-.3.3H7.7c-.15 0-.3-.1-.3-.3v-1.4h8.5v1.4zm1.7-1.15c0 .15-.1.3-.3.3h-.85V7.25h1.15v9.35zm2.25-9.05c-.3 0-.55-.25-.55-.55 0-.3.25-.55.55-.55.3 0 .55.25.55.55.05.3-.2.55-.55.55z" fill="gray"/>
    </symbol>
    <symbol id="icon-twitter" viewBox="0 0 24 24">
      <g clip-path="url(#a)"><path d="M7.543 21.474c9.028 0 14.057-7.543 14.057-14.057v-.686c.914-.685 1.829-1.485 2.4-2.514-.914.457-1.829.686-2.857.8 1.028-.571 1.828-1.6 2.171-2.743a10.33 10.33 0 0 1-3.085 1.257C18.4 1.59 15.2 1.474 13.257 3.303 12 4.56 11.43 6.274 11.886 7.989c-4-.229-7.657-2.058-10.172-5.143C.457 5.13 1.03 7.989 3.2 9.474c-.8 0-1.6-.228-2.286-.571v.114c0 2.4 1.715 4.343 4 4.8-.685.229-1.485.229-2.285.114.685 2.058 2.514 3.43 4.571 3.43-1.6 1.256-3.771 1.942-6.057 1.942-.343 0-.8 0-1.143-.114 2.286 1.485 4.914 2.285 7.543 2.285z"/></g>
    </symbol>
    <symbol id="icon-unit-width" viewBox="0 0 24 24">
      <g clip-path="url(#a)" stroke="gray" stroke-miterlimit="10"><path d="M21.87 8.801L11.956 0 2.13 8.801c-.173.083-.173.333 0 .499.087.166.348.166.522 0l1.13-.997v8.719H20.218V8.303l1.13.997c.088.083.175.083.262.083.087 0 .174 0 .26-.083.175-.166.175-.332 0-.499zm-2.261 7.556H4.39V7.64L11.957.913l7.565 6.726v8.718h.087z" fill="gray" stroke-width=".5"/><path d="M3.783 21.34h16.434M20.217 19.679V23M3.783 19.679V23" stroke-width="1.3" stroke-linecap="round" stroke-linejoin="round"/></g>
    </symbol>
    <symbol id="icon-wifi" viewBox="0 0 24 24">
      <path d="M18.435 9.75c-1.8-1.8-4.15-2.75-6.701-2.75-2.5 0-4.9 1-6.701 2.75-.05.1-.05.25.05.35.1.1.25.1.35 0 1.7-1.7 3.95-2.65 6.35-2.65 2.401 0 4.652.95 6.352 2.6.05.05.1.05.15.05.05 0 .1 0 .15-.05.1-.05.1-.2 0-.3z" fill="gray" stroke="gray" stroke-width=".5" stroke-miterlimit="10"/><path d="M6.533 11.2c-.1.1-.1.25 0 .35.05.05.1.05.15.05.05 0 .15 0 .15-.05 2.75-2.7 7.101-2.7 9.802 0 .1.1.25.1.35 0 .1-.1.1-.25 0-.35a7.365 7.365 0 0 0-10.452 0z" fill="gray" stroke="gray" stroke-width=".5" stroke-miterlimit="10"/><path d="M11.784 11.05c-1.45 0-2.8.55-3.8 1.55-.1.1-.1.25 0 .35.1.101.25.101.35 0 .9-.9 2.15-1.4 3.45-1.4 1.3 0 2.5.5 3.45 1.4.05.051.1.051.15.051.05 0 .15 0 .15-.05.1-.1.1-.25 0-.35-1-1-2.35-1.55-3.75-1.55zM11.784 13.351c-.9 0-1.6.7-1.6 1.6 0 .9.7 1.6 1.6 1.6.9 0 1.6-.7 1.6-1.6 0-.85-.75-1.6-1.6-1.6zm0 2.75c-.6 0-1.1-.5-1.1-1.1 0-.6.5-1.1 1.1-1.1.6 0 1.1.5 1.1 1.1 0 .6-.5 1.1-1.1 1.1z" fill="gray" stroke="gray" stroke-width=".5" stroke-miterlimit="10"/>
    </symbol>
    <symbol id="icon-window" viewBox="0 0 24 24">
      <path d="M23.573 24H.427C.171 24 0 23.83 0 23.574v-1.96c0-.255.17-.425.427-.425h.598v-7.837H.427c-.256 0-.427-.17-.427-.426s.17-.426.427-.426h3.587V1.426c0-.256.256-.426.427-.426h14.947c.256 0 .427.17.427.426V12.33h3.672c.257 0 .428.17.428.426 0 .255-.171.425-.427.425h-.427v7.838h.512c.256 0 .427.17.427.425v1.96c0 .426-.17.596-.427.596zM.94 23.063h22.206v-1.022H.94v1.022zm19.046-1.874h2.135v-7.837h-2.135v7.837zm-2.99 0h1.965v-7.837h-1.965v7.837zm-2.989 0h2.135v-7.837h-2.135v7.837zm-3.075 0h2.136v-7.837h-2.136v7.837zm-2.989 0h2.135v-7.837H7.943v7.837zm-2.99 0H7.09v-7.837H4.954v7.837zm-3.074 0h2.135v-7.837H1.88v7.837zm16.057-8.774h1.025V1.937H4.954v10.478h1.025v-9.03c0-.255.17-.426.427-.426h4.697c.256 0 .427.17.427.426v8.945h.769V3.385c0-.255.17-.426.427-.426h4.697c.257 0 .428.17.428.426v9.03h.085zm-4.698 0h3.758V3.896h-3.758v8.519zm-6.32 0h3.758V3.896H6.918v8.519z" fill="gray"/>
    </symbol></svg>