<svg width="160" height="68" viewBox="0 0 160 68" fill="none" xmlns="http://www.w3.org/2000/svg">
<g clip-path="url(#clip0)">
<path d="M69.7 61.5C69.7 60.9 69.8 60 69.2 59.8H72.1C73.7 59.8 74.7 60.5 74.7 61.6C74.7 62.4 74.2 62.9 73.5 63.2C74.6 63.4 75.5 64.2 75.5 65.4C75.5 66.3 74.8 67.2 74 67.6C73.1 68 72.2 68 71.2 68H69.2C69.8 67.8 69.7 66.9 69.7 66.3V61.5ZM71.4 63C72.2 63 73.3 62.7 73.3 61.7C73.3 60.9 72.5 60.4 71.8 60.5L71 60.6V63H71.4ZM72 67C73 67.1 74 66.6 74 65.5C74 64.3 72.8 63.8 71.8 63.9H70.9V66.9L72 67Z" fill="#8A7965"/>
<path d="M82.5 68C81.7 68 80.9 67.7 80.9 66.7V64.8C80.5 65 80.1 65.1 79.7 65.2C79.1 65.3 78.4 65.5 78.4 66.2C78.4 67 79.1 67.2 79.7 67.2C80 67.2 80.3 67.1 80.6 67L80 68C79.8 68 79.6 68.1 79.4 68.1C78.2 68.1 77.3 67.3 77.3 66.3C77.3 64 81 65.1 81 63.7C81 63.1 80.3 62.9 79.8 62.9C79.2 62.9 78.7 63.1 78.1 63.4L78.9 62.2L79.7 62.1C81 62.1 82 62.5 82.1 64V65.8C82.1 66.8 82.1 67.1 83.1 67.3L82.5 68Z" fill="#8A7965"/>
<path d="M85.3 59.8C85.6 59.8 85.9 59.8 86.1 59.6V66.5C86.1 67.1 86 67.5 86.6 67.8H84.6C85.1 67.5 85.1 67 85.1 66.5V61.1C85.1 60.5 85.2 60.1 84.6 59.8H85.3Z" fill="#8A7965"/>
<path d="M89.5 62.2C89.8 62.2 90.1 62.2 90.3 62V66.5C90.3 67.1 90.2 67.5 90.8 67.8H88.7C89.2 67.5 89.2 67 89.2 66.5V63.6C89.2 63 89.3 62.6 88.7 62.3H89.5V62.2ZM89.8 61.5C89.3 61.5 89 61.1 89 60.7C89 60.3 89.4 60 89.8 60C90.2 60 90.5 60.4 90.5 60.8C90.5 61.1 90.2 61.5 89.8 61.5Z" fill="#8A7965"/>
<path d="M37.1 46.5C37.1 45.9 37.2 45 36.6 44.8H39.5C41.1 44.8 42.1 45.5 42.1 46.6C42.1 47.4 41.6 47.9 40.9 48.2C42 48.4 42.9 49.2 42.9 50.4C42.9 51.3 42.2 52.2 41.4 52.6C40.5 53 39.6 53 38.6 53H36.6C37.2 52.8 37.1 51.9 37.1 51.3V46.5ZM38.8 48.1C39.6 48.1 40.7 47.8 40.7 46.8C40.7 45.9 39.9 45.5 39.2 45.6L38.4 45.7V48.1H38.8ZM39.4 52C40.4 52.1 41.4 51.6 41.4 50.5C41.4 49.3 40.2 48.8 39.2 48.9H38.3V51.9L39.4 52Z" fill="#8A7965"/>
<path d="M46.1 49.9C46.1 51.4 47.2 52.3 48.6 52.3C49.3 52.3 50.1 52.1 50.6 51.6L50 52.8C49.5 53 48.9 53.1 48.3 53.1C46.2 53.1 44.8 51.8 44.8 50.1C44.8 48.4 46 47.1 47.9 47.1C49.6 47.1 50.7 48.3 50.7 49.9H46.1ZM49.3 49.2C49.2 48.3 48.6 47.9 47.7 47.9C46.9 47.9 46.3 48.4 46.1 49.2H49.3Z" fill="#8A7965"/>
<path d="M53.4 47.3C53.7 47.3 54 47.3 54.2 47.1V48C54.5 47.4 55 47.1 55.7 47.1H56.1V48.2C56 48 55.7 48 55.5 48C54.6 48 54.2 48.5 54.2 49.8V51.5C54.2 52.1 54.1 52.5 54.7 52.8H52.6C53.1 52.5 53.1 52 53.1 51.5V48.6C53.1 48 53.2 47.6 52.6 47.3H53.4Z" fill="#8A7965"/>
<path d="M62.8 53.1C62 53.1 61.2 52.8 61.2 51.8V49.9C60.8 50.1 60.4 50.2 60 50.3C59.4 50.4 58.7 50.6 58.7 51.3C58.7 52.1 59.4 52.3 60 52.3C60.3 52.3 60.6 52.2 60.9 52.1L60.2 53C60 53 59.8 53.1 59.6 53.1C58.4 53.1 57.5 52.3 57.5 51.3C57.5 49 61.2 50.1 61.2 48.7C61.2 48.1 60.5 47.9 60 47.9C59.4 47.9 58.9 48.1 58.3 48.4L59.1 47.2L59.9 47.1C61.2 47.1 62.2 47.5 62.3 49V50.8C62.3 51.8 62.3 52.1 63.3 52.3L62.8 53.1Z" fill="#8A7965"/>
<path d="M64.6 47.3C65 47.3 65.4 47.4 65.7 47.1C65.7 47.3 65.8 47.5 65.9 47.7L67.3 51.4L68.4 48.5C68.6 48.1 68.9 47.5 68.3 47.2H70V47.4C70 47.5 70.1 47.8 70.2 48L71.5 51.5L72.6 48.6C72.8 48.2 73.1 47.6 72.4 47.3H74L71.6 53.2C70.8 52.8 70.7 52.5 70.4 51.7L69.3 48.9L67.6 53.2C66.7 52.7 66.6 52.6 66.3 51.7L64.9 48.2C64.7 47.8 64.6 47.5 64.2 47.3H64.6Z" fill="#8A7965"/>
<path d="M80.7 53.1C79.9 53.1 79.1 52.8 79.1 51.8V49.9C78.7 50.1 78.3 50.2 77.9 50.3C77.3 50.4 76.6 50.6 76.6 51.3C76.6 52.1 77.3 52.3 77.9 52.3C78.2 52.3 78.5 52.2 78.8 52.1L78.2 53C78 53 77.8 53.1 77.6 53.1C76.4 53.1 75.5 52.3 75.5 51.3C75.5 49 79.2 50.1 79.2 48.7C79.2 48.1 78.5 47.9 78 47.9C77.4 47.9 76.9 48.1 76.3 48.4L77.1 47.2L77.9 47.1C79.2 47.1 80.2 47.5 80.3 49V50.8C80.3 51.8 80.3 52.1 81.3 52.3L80.7 53.1Z" fill="#8A7965"/>
<path d="M88.1 46.5C88.1 45.9 88.2 45 87.6 44.8H90.5C92.1 44.8 93.1 45.5 93.1 46.6C93.1 47.4 92.6 47.9 91.9 48.2C93 48.4 93.9 49.2 93.9 50.4C93.9 51.3 93.2 52.2 92.4 52.6C91.5 53 90.6 53 89.6 53H87.6C88.2 52.8 88.1 51.9 88.1 51.3V46.5ZM89.8 48.1C90.6 48.1 91.7 47.8 91.7 46.8C91.7 45.9 90.9 45.5 90.2 45.6L89.4 45.7V48.1H89.8ZM90.4 52C91.4 52.1 92.4 51.6 92.4 50.5C92.4 49.3 91.2 48.8 90.2 48.9H89.3V51.9L90.4 52Z" fill="#8A7965"/>
<path d="M97.1 49.9C97.1 51.4 98.2 52.3 99.6 52.3C100.3 52.3 101.1 52.1 101.6 51.6L101 52.8C100.5 53 99.9 53.1 99.3 53.1C97.2 53.1 95.8 51.8 95.8 50.1C95.8 48.4 97 47.1 98.9 47.1C100.6 47.1 101.7 48.3 101.7 49.9H97.1ZM100.3 49.2C100.2 48.3 99.6 47.9 98.7 47.9C97.9 47.9 97.3 48.4 97.1 49.2H100.3Z" fill="#8A7965"/>
<path d="M108.6 53.1C107.8 53.1 107 52.8 107 51.8V49.9C106.6 50.1 106.2 50.2 105.8 50.3C105.2 50.4 104.5 50.6 104.5 51.3C104.5 52.1 105.2 52.3 105.8 52.3C106.1 52.3 106.4 52.2 106.7 52.1L106 53C105.8 53 105.6 53.1 105.4 53.1C104.2 53.1 103.3 52.3 103.3 51.3C103.3 49 107 50.1 107 48.7C107 48.1 106.3 47.9 105.8 47.9C105.2 47.9 104.7 48.1 104.1 48.4L104.9 47.2L105.7 47.1C107 47.1 108 47.5 108.1 49V50.8C108.1 51.8 108.1 52.1 109.1 52.3L108.6 53.1Z" fill="#8A7965"/>
<path d="M115.3 48.5C114.9 48.1 114.3 47.9 113.8 47.9C112.6 47.9 111.7 48.7 111.7 49.9C111.7 51.3 112.9 52.3 114.3 52.3C114.9 52.3 115.6 52.1 116.1 51.7L115.5 52.9C115 53.1 114.4 53.1 113.9 53.1C112 53.1 110.5 51.9 110.5 50.3C110.5 48.2 112.2 47.2 114 47.2C114.4 47.2 114.9 47.2 115.3 47.3V48.5Z" fill="#8A7965"/>
<path d="M118.3 44.8C118.6 44.8 118.9 44.8 119 44.6V47.8C119.4 47.3 120.2 47 120.8 47C122.5 47 122.9 48 122.9 49.2V51.4C122.9 52 122.8 52.4 123.4 52.7H121.4C121.9 52.4 121.9 51.9 121.9 51.4V49.5C121.9 48.5 121.6 47.7 120.5 47.7C119.4 47.7 119.1 48.3 119.1 49.4V51.3C119.1 51.9 119 52.3 119.6 52.6H117.5C118 52.3 118 51.8 118 51.3V45.9C118 45.3 118.1 44.9 117.5 44.6H118.3V44.8Z" fill="#8A7965"/>
<path d="M28.7 6.7C28.7 8.1 27.6 9.2 26.2 9.2C24.8 9.2 23.7 8.1 23.7 6.7C23.7 5.3 24.8 4.2 26.2 4.2C27.6 4.2 28.7 5.3 28.7 6.7Z" fill="#8A7965"/>
<path d="M99.3 6.7C99.3 8.1 98.2 9.2 96.8 9.2C95.4 9.2 94.3 8.1 94.3 6.7C94.3 5.3 95.4 4.2 96.8 4.2C98.2 4.2 99.3 5.3 99.3 6.7Z" fill="#8A7965"/>
<path d="M28.2 30C28.2 31.6 29.2 31.5 31.1 31.5V32.4H22V31.5C24.1 31.5 24.8 31.7 24.8 29.2V17.9C24.8 16.1 22.6 15.5 22.6 15.5V14.8L27.5 13.1H28.1V30H28.2Z" fill="#8A7965"/>
<path d="M98.8 30C98.8 31.6 99.8 31.5 101.7 31.5V32.4H92.6V31.5C94.7 31.5 95.4 31.7 95.4 29.2V17.9C95.4 16.1 93.2 15.5 93.2 15.5V14.8L98.1 13.1H98.7V30H98.8Z" fill="#8A7965"/>
<path d="M46.2 13.7V16H39.8V26.9C39.8 30.5 41.4 30.9 42.2 31C43 31.1 44.2 31 45.6 29.7L46.2 30.3C44.3 32.3 42.7 33.1 40.6 33.1C37.5 33.1 36.4 31.6 36.5 27.5V16H33.8V15.3C35.6 14.1 38 12.3 39.3 9.4H39.9V13.8H46.2V13.7Z" fill="#8A7965"/>
<path d="M60.3 23C59.5 23.3 58.3 23.6 56.9 24.1C53.7 25.2 52.3 26.4 52.3 28.4C52.3 30.2 54 31.3 55.7 31.3C56.7 31.3 57.4 31.1 60.3 28.9V23ZM50.3 20.1C49 20.1 49.8 18.2 49.9 18C50.7 16.3 54.5 13.6 57.6 13.4C59.1 13.3 61.1 13.2 62.5 15.1C63.3 16.1 63.5 16.6 63.5 19.1V25.7C63.5 29.6 63.8 30.5 64.3 30.8C65.6 31.5 66.6 30.3 66.6 30.3L67 30.9C65.6 32.4 64.1 33.2 62.9 33.2C61 33.2 60.2 31.6 60.2 30C60.2 30 57.1 33.2 54 33.2C50.9 33.2 48.9 31.6 48.9 29.2C48.9 26.1 51.6 24.9 54.7 23.8C55.8 23.4 58 22.6 60.2 21.9V19.8C60.2 18.4 60.3 17.6 59.4 16.6C58.7 15.8 57.1 15.3 56 15.3C54.5 15.3 52.9 16.3 52.7 17.3C52.6 18.1 52.6 18.8 52.3 19.1C52.2 19.3 51.6 20.1 50.3 20.1Z" fill="#8A7965"/>
<path d="M83.7 18C83.5 15.1 81.3 14.4 78.8 14.4C75.1 14.4 72.7 17.8 72.7 22.4C72.7 27.1 75.3 31 80 30.8C81.4 30.7 83.4 29.6 83.7 28.6V18ZM83.7 4.9C83.7 2.9 81.5 2.9 81.5 2.9V2.3L86.5 0H87.1V28.2C87.1 29.8 86.8 30.8 88.7 30.8H90V31.5L84.7 33H83.8L83.7 30.1H83.4C81.1 32.6 78.6 33.1 76.5 33.1C71.8 33.1 69 28.7 69 23.7C69 17.9 74.1 13 79.1 13C80.5 13 82.3 13.1 83.6 13.8V4.9H83.7Z" fill="#8A7965"/>
<path d="M110.7 29.1C110.7 31.7 110.9 31.5 113.7 31.5V32.5H104.5V31.6C106.7 31.6 107.3 31.6 107.3 29.7V17.9C107.2 16.4 104.8 15.8 104.8 15.8V15.2L110.2 13.1H110.7V16.2C113.5 14.4 115 13 118.2 13C121.4 13 123.2 14.7 123.2 19.9C123.2 26.1 123.2 28.5 123.2 30.4C123.2 31.7 126.2 31.5 126.2 31.5V32.4H116.9V31.4C117.7 31.4 119 31.5 119.5 31C119.7 30.8 119.7 30.5 119.7 29.8V19.9C119.7 15.7 118 15.3 116 15.2C114 15.1 112.3 16.3 110.7 17.2V29.1Z" fill="#8A7965"/>
<path d="M139.1 19.3C139.5 19.3 139.8 18.9 139.8 18.6C140.2 15.8 138.4 14.2 136.1 14.2C134.6 14.2 132.1 14.9 131.1 19.3H139.1ZM143.4 20.4C143.3 20.6 143.2 20.6 143.1 20.6H131.1C131.1 21 130.4 29.4 136.6 30.5C139.2 31 141.8 29.3 143.2 27.6L143.8 28.2C142.4 30.3 139.4 33 135.9 33C130.3 33 127.7 28.5 127.8 23.1C127.9 18.1 130.8 12.9 136.5 12.9C142.4 12.9 143.7 17.7 143.6 19.3C143.5 19.4 143.5 20 143.4 20.4Z" fill="#8A7965"/>
<path d="M147.9 26.5C148.5 29.3 150.2 31.8 153 31.8C154.9 31.8 156.4 30.8 156.5 29C156.5 28.3 156.6 27.2 155.4 26.1C152.4 23.5 147.7 23.8 147.3 18.7C147.1 15.8 149.6 13 153.9 13C155.5 13 157.5 13.5 158.7 14.2L159 18.3H158C157.3 15 155.5 14.2 153.6 14.2C152.1 14.2 150.1 15 150.1 16.9C150.1 22 160 20.7 160 27C160 30.7 156.3 32.9 153.1 32.9C149.4 32.9 147.5 31.5 147.5 31.5L147 26.6L147.9 26.5Z" fill="#8A7965"/>
<path d="M18.5 18.2C18.3 18.4 17.7 18.5 17.5 18.3C17 16.4 15.6 13.9 11.7 13.9C7.9 13.9 4 16.6 4 22.8C4 29.2 8 32.3 11.9 32.3C15.7 32.3 17.3 29.8 18.2 27.8C18.5 27.5 18.9 27.7 19.1 27.9C18.9 29.9 18.1 31.9 17.7 32.5C17.3 32.6 17 32.7 16.7 32.8C16 33 14 33.5 12 33.5C9 33.5 6.5 32.9 4.3 31.5C1.8 29.8 0 27.1 0 23.1C0 19.6 1.6 16.8 3.8 15.1C6 13.4 9.1 12.6 12.1 12.6C13.8 12.6 15.9 12.9 17.3 13.3C17.7 13.4 17.9 13.4 18.1 13.5C18.2 14.2 18.2 15.9 18.5 18.2Z" fill="#8A7965"/>
<path d="M28.7 6.7C28.7 8.1 27.6 9.2 26.2 9.2C24.8 9.2 23.7 8.1 23.7 6.7C23.7 5.3 24.8 4.2 26.2 4.2C27.6 4.2 28.7 5.3 28.7 6.7Z" fill="#8A7965"/>
<path d="M99.3 6.7C99.3 8.1 98.2 9.2 96.8 9.2C95.4 9.2 94.3 8.1 94.3 6.7C94.3 5.3 95.4 4.2 96.8 4.2C98.2 4.2 99.3 5.3 99.3 6.7Z" fill="#8A7965"/>
<path d="M28.2 30C28.2 31.6 29.2 31.5 31.1 31.5V32.4H22V31.5C24.1 31.5 24.8 31.7 24.8 29.2V17.9C24.8 16.1 22.6 15.5 22.6 15.5V14.8L27.5 13.1H28.1V30H28.2Z" fill="#8A7965"/>
<path d="M98.8 30C98.8 31.6 99.8 31.5 101.7 31.5V32.4H92.6V31.5C94.7 31.5 95.4 31.7 95.4 29.2V17.9C95.4 16.1 93.2 15.5 93.2 15.5V14.8L98.1 13.1H98.7V30H98.8Z" fill="#8A7965"/>
<path d="M46.2 13.7V16H39.8V26.9C39.8 30.5 41.4 30.9 42.2 31C43 31.1 44.2 31 45.6 29.7L46.2 30.3C44.3 32.3 42.7 33.1 40.6 33.1C37.5 33.1 36.4 31.6 36.5 27.5V16H33.8V15.3C35.6 14.1 38 12.3 39.3 9.4H39.9V13.8H46.2V13.7Z" fill="#8A7965"/>
<path d="M60.3 23C59.5 23.3 58.3 23.6 56.9 24.1C53.7 25.2 52.3 26.4 52.3 28.4C52.3 30.2 54 31.3 55.7 31.3C56.7 31.3 57.4 31.1 60.3 28.9V23ZM50.3 20.1C49 20.1 49.8 18.2 49.9 18C50.7 16.3 54.5 13.6 57.6 13.4C59.1 13.3 61.1 13.2 62.5 15.1C63.3 16.1 63.5 16.6 63.5 19.1V25.7C63.5 29.6 63.8 30.5 64.3 30.8C65.6 31.5 66.6 30.3 66.6 30.3L67 30.9C65.6 32.4 64.1 33.2 62.9 33.2C61 33.2 60.2 31.6 60.2 30C60.2 30 57.1 33.2 54 33.2C50.9 33.2 48.9 31.6 48.9 29.2C48.9 26.1 51.6 24.9 54.7 23.8C55.8 23.4 58 22.6 60.2 21.9V19.8C60.2 18.4 60.3 17.6 59.4 16.6C58.7 15.8 57.1 15.3 56 15.3C54.5 15.3 52.9 16.3 52.7 17.3C52.6 18.1 52.6 18.8 52.3 19.1C52.2 19.3 51.6 20.1 50.3 20.1Z" fill="#8A7965"/>
<path d="M83.7 18C83.5 15.1 81.3 14.4 78.8 14.4C75.1 14.4 72.7 17.8 72.7 22.4C72.7 27.1 75.3 31 80 30.8C81.4 30.7 83.4 29.6 83.7 28.6V18ZM83.7 4.9C83.7 2.9 81.5 2.9 81.5 2.9V2.3L86.5 0H87.1V28.2C87.1 29.8 86.8 30.8 88.7 30.8H90V31.5L84.7 33H83.8L83.7 30.1H83.4C81.1 32.6 78.6 33.1 76.5 33.1C71.8 33.1 69 28.7 69 23.7C69 17.9 74.1 13 79.1 13C80.5 13 82.3 13.1 83.6 13.8V4.9H83.7Z" fill="#8A7965"/>
<path d="M110.7 29.1C110.7 31.7 110.9 31.5 113.7 31.5V32.5H104.5V31.6C106.7 31.6 107.3 31.6 107.3 29.7V17.9C107.2 16.4 104.8 15.8 104.8 15.8V15.2L110.2 13.1H110.7V16.2C113.5 14.4 115 13 118.2 13C121.4 13 123.2 14.7 123.2 19.9C123.2 26.1 123.2 28.5 123.2 30.4C123.2 31.7 126.2 31.5 126.2 31.5V32.4H116.9V31.4C117.7 31.4 119 31.5 119.5 31C119.7 30.8 119.7 30.5 119.7 29.8V19.9C119.7 15.7 118 15.3 116 15.2C114 15.1 112.3 16.3 110.7 17.2V29.1Z" fill="#8A7965"/>
<path d="M139.1 19.3C139.5 19.3 139.8 18.9 139.8 18.6C140.2 15.8 138.4 14.2 136.1 14.2C134.6 14.2 132.1 14.9 131.1 19.3H139.1ZM143.4 20.4C143.3 20.6 143.2 20.6 143.1 20.6H131.1C131.1 21 130.4 29.4 136.6 30.5C139.2 31 141.8 29.3 143.2 27.6L143.8 28.2C142.4 30.3 139.4 33 135.9 33C130.3 33 127.7 28.5 127.8 23.1C127.9 18.1 130.8 12.9 136.5 12.9C142.4 12.9 143.7 17.7 143.6 19.3C143.5 19.4 143.5 20 143.4 20.4Z" fill="#8A7965"/>
<path d="M147.9 26.5C148.5 29.3 150.2 31.8 153 31.8C154.9 31.8 156.4 30.8 156.5 29C156.5 28.3 156.6 27.2 155.4 26.1C152.4 23.5 147.7 23.8 147.3 18.7C147.1 15.8 149.6 13 153.9 13C155.5 13 157.5 13.5 158.7 14.2L159 18.3H158C157.3 15 155.5 14.2 153.6 14.2C152.1 14.2 150.1 15 150.1 16.9C150.1 22 160 20.7 160 27C160 30.7 156.3 32.9 153.1 32.9C149.4 32.9 147.5 31.5 147.5 31.5L147 26.6L147.9 26.5Z" fill="#8A7965"/>
<path d="M18.5 18.2C18.3 18.4 17.7 18.5 17.5 18.3C17 16.4 15.6 13.9 11.7 13.9C7.9 13.9 4 16.6 4 22.8C4 29.2 8 32.3 11.9 32.3C15.7 32.3 17.3 29.8 18.2 27.8C18.5 27.5 18.9 27.7 19.1 27.9C18.9 29.9 18.1 31.9 17.7 32.5C17.3 32.6 17 32.7 16.7 32.8C16 33 14 33.5 12 33.5C9 33.5 6.5 32.9 4.3 31.5C1.8 29.8 0 27.1 0 23.1C0 19.6 1.6 16.8 3.8 15.1C6 13.4 9.1 12.6 12.1 12.6C13.8 12.6 15.9 12.9 17.3 13.3C17.7 13.4 17.9 13.4 18.1 13.5C18.2 14.2 18.2 15.9 18.5 18.2Z" fill="#8A7965"/>
</g>
<defs>
<clipPath id="clip0">
<rect width="160" height="68" fill="white"/>
</clipPath>
</defs>
</svg>
