<?xml version="1.0" encoding="utf-8"?>
<!-- Generator: Adobe Illustrator 22.1.0, SVG Export Plug-In . SVG Version: 6.00 Build 0)  -->
<svg version="1.1" id="Layer_1" xmlns="http://www.w3.org/2000/svg" xmlns:xlink="http://www.w3.org/1999/xlink" x="0px" y="0px"
	 viewBox="0 0 157.8 68" style="enable-background:new 0 0 157.8 68;" xml:space="preserve">
<style type="text/css">
	.st0{fill:#847362;}
</style>
<g>
	<g>
		<g>
			<path class="st0" d="M72.5,41.3c0-0.4,0.1-1-0.4-1.1v0h2c1.1,0,1.7,0.5,1.7,1.2c0,0.6-0.4,0.9-0.8,1.1c0.7,0.2,1.3,0.7,1.3,1.5
				c0,0.6-0.4,1.2-1,1.4c-0.6,0.3-1.2,0.3-1.9,0.3h-1.4v0c0.4-0.2,0.4-0.8,0.4-1.1V41.3z M73.7,42.3c0.5,0,1.3-0.2,1.3-0.9
				c0-0.6-0.5-0.9-1-0.8l-0.6,0.1v1.6H73.7z M74.1,45c0.7,0.1,1.4-0.2,1.4-1c0-0.8-0.8-1.1-1.5-1.1l-0.6,0v2L74.1,45z"/>
			<path class="st0" d="M81.2,45.7c-0.5,0-1.1-0.2-1.1-0.9v-1.3c-0.2,0.1-0.5,0.2-0.8,0.3c-0.4,0.1-0.8,0.2-0.8,0.7
				c0,0.5,0.5,0.7,0.9,0.7c0.2,0,0.4-0.1,0.6-0.1l-0.5,0.6c-0.1,0-0.3,0-0.4,0c-0.8,0-1.4-0.5-1.4-1.2c0-1.5,2.5-0.8,2.5-1.7
				c0-0.4-0.5-0.5-0.8-0.5c-0.4,0-0.8,0.2-1.1,0.3l0.6-0.8l0.5,0c0.9,0,1.6,0.3,1.6,1.3v1.2c0,0.7,0,0.9,0.7,1L81.2,45.7z"/>
			<path class="st0" d="M83,40.1c0.2,0,0.4,0,0.5-0.1h0v4.7c0,0.4-0.1,0.7,0.3,0.9v0h-1.4v0c0.4-0.2,0.3-0.5,0.3-0.9V41
				c0-0.4,0-0.7-0.3-0.9v0H83z"/>
			<path class="st0" d="M85.9,41.7c0.2,0,0.4,0,0.5-0.1h0v3c0,0.4,0,0.7,0.3,0.9v0h-1.4v0c0.4-0.2,0.3-0.5,0.3-0.9v-2
				c0-0.4,0-0.7-0.3-0.9v0H85.9z M86,41.2c-0.3,0-0.5-0.2-0.5-0.5c0-0.3,0.3-0.5,0.5-0.5c0.3,0,0.5,0.2,0.5,0.5
				C86.5,41,86.3,41.2,86,41.2z"/>
		</g>
		<g>
			<path class="st0" d="M50.7,31.2c0-0.4,0.1-1-0.4-1.1v0h2c1.1,0,1.7,0.5,1.7,1.2c0,0.6-0.4,0.9-0.8,1.1c0.7,0.2,1.3,0.7,1.3,1.5
				c0,0.6-0.4,1.2-1,1.4c-0.6,0.3-1.2,0.3-1.9,0.3h-1.4v0c0.4-0.2,0.4-0.8,0.4-1.1V31.2z M51.8,32.3c0.5,0,1.3-0.2,1.3-0.9
				c0-0.6-0.5-0.9-1-0.8l-0.6,0.1v1.6H51.8z M52.2,34.9c0.7,0.1,1.4-0.2,1.4-1c0-0.8-0.8-1.1-1.5-1.1l-0.6,0v2L52.2,34.9z"/>
			<path class="st0" d="M56.7,33.5c0,1,0.7,1.6,1.7,1.6c0.5,0,1-0.1,1.4-0.4h0l-0.4,0.8c-0.4,0.1-0.8,0.2-1.1,0.2
				c-1.4,0-2.4-0.9-2.4-2s0.8-2,2.1-2c1.1,0,1.9,0.8,1.9,1.9H56.7z M58.9,33c-0.1-0.6-0.5-0.9-1.1-0.9c-0.6,0-1,0.3-1.1,0.9H58.9z"
				/>
			<path class="st0" d="M61.6,31.7c0.2,0,0.4,0,0.5-0.1h0v0.6c0.2-0.4,0.6-0.6,1-0.6l0.3,0v0.8c-0.1-0.1-0.2-0.1-0.4-0.1
				c-0.6,0-0.9,0.3-0.9,1.2v1.2c0,0.4,0,0.7,0.3,0.9v0H61v0c0.4-0.2,0.3-0.5,0.3-0.9v-2c0-0.4,0-0.7-0.3-0.9v0H61.6z"/>
			<path class="st0" d="M67.9,35.6c-0.5,0-1.1-0.2-1.1-0.9v-1.3c-0.2,0.1-0.5,0.2-0.8,0.3c-0.4,0.1-0.8,0.2-0.8,0.7
				c0,0.5,0.5,0.7,0.9,0.7c0.2,0,0.4-0.1,0.6-0.1l-0.5,0.6c-0.1,0-0.3,0-0.4,0c-0.8,0-1.4-0.5-1.4-1.2c0-1.5,2.5-0.8,2.5-1.7
				c0-0.4-0.5-0.5-0.8-0.5c-0.4,0-0.8,0.2-1.1,0.3l0.6-0.8l0.5,0c0.9,0,1.6,0.3,1.6,1.3v1.2c0,0.7,0,0.9,0.7,1L67.9,35.6z"/>
			<path class="st0" d="M69.1,31.7c0.3,0,0.6,0,0.8-0.1h0c0,0.1,0,0.3,0.1,0.4l1,2.5l0.8-1.9c0.1-0.3,0.3-0.7-0.1-0.9v0h1.1v0.1
				c0,0.1,0.1,0.3,0.1,0.4l0.9,2.3l0.8-1.9c0.1-0.3,0.3-0.7-0.1-0.9v0h1.1l-1.6,4c-0.6-0.3-0.6-0.4-0.8-1l-0.7-1.9l-1.1,2.9
				c-0.6-0.3-0.7-0.4-0.9-1l-0.9-2.3c-0.1-0.3-0.2-0.5-0.4-0.6v0H69.1z"/>
			<path class="st0" d="M79.9,35.6c-0.5,0-1.1-0.2-1.1-0.9v-1.3c-0.2,0.1-0.5,0.2-0.8,0.3c-0.4,0.1-0.8,0.2-0.8,0.7
				c0,0.5,0.5,0.7,0.9,0.7c0.2,0,0.4-0.1,0.6-0.1l-0.5,0.6c-0.1,0-0.3,0-0.4,0c-0.8,0-1.4-0.5-1.4-1.2c0-1.5,2.5-0.8,2.5-1.7
				c0-0.4-0.5-0.5-0.8-0.5c-0.4,0-0.8,0.2-1.1,0.3l0.6-0.8l0.5,0c0.9,0,1.6,0.3,1.6,1.3v1.2c0,0.7,0,0.9,0.7,1L79.9,35.6z"/>
			<path class="st0" d="M84.9,31.2c0-0.4,0.1-1-0.4-1.1v0h2c1.1,0,1.7,0.5,1.7,1.2c0,0.6-0.4,0.9-0.8,1.1c0.7,0.2,1.3,0.7,1.3,1.5
				c0,0.6-0.4,1.2-1,1.4c-0.6,0.3-1.2,0.3-1.9,0.3h-1.4v0c0.4-0.2,0.4-0.8,0.4-1.1V31.2z M86,32.3c0.5,0,1.3-0.2,1.3-0.9
				c0-0.6-0.5-0.9-1-0.8l-0.6,0.1v1.6H86z M86.4,34.9c0.7,0.1,1.4-0.2,1.4-1c0-0.8-0.8-1.1-1.5-1.1l-0.6,0v2L86.4,34.9z"/>
			<path class="st0" d="M90.9,33.5c0,1,0.7,1.6,1.7,1.6c0.5,0,1-0.1,1.4-0.4h0l-0.4,0.8c-0.4,0.1-0.8,0.2-1.1,0.2
				c-1.4,0-2.4-0.9-2.4-2s0.8-2,2.1-2c1.1,0,1.9,0.8,1.9,1.9H90.9z M93.1,33c-0.1-0.6-0.5-0.9-1.1-0.9c-0.6,0-1,0.3-1.1,0.9H93.1z"
				/>
			<path class="st0" d="M98.6,35.6c-0.5,0-1.1-0.2-1.1-0.9v-1.3c-0.2,0.1-0.5,0.2-0.8,0.3c-0.4,0.1-0.8,0.2-0.8,0.7
				c0,0.5,0.5,0.7,0.9,0.7c0.2,0,0.4-0.1,0.6-0.1l-0.5,0.6c-0.1,0-0.3,0-0.4,0c-0.8,0-1.4-0.5-1.4-1.2c0-1.5,2.5-0.8,2.5-1.7
				c0-0.4-0.5-0.5-0.8-0.5c-0.4,0-0.8,0.2-1.1,0.3l0.6-0.8l0.5,0c0.9,0,1.6,0.3,1.6,1.3v1.2c0,0.7,0,0.9,0.7,1L98.6,35.6z"/>
			<path class="st0" d="M103.2,32.6L103.2,32.6c-0.3-0.3-0.7-0.4-1-0.4c-0.8,0-1.4,0.6-1.4,1.3c0,1,0.8,1.6,1.7,1.6
				c0.4,0,0.9-0.2,1.2-0.4h0l-0.4,0.8c-0.3,0.1-0.7,0.2-1.1,0.2c-1.3,0-2.3-0.8-2.3-1.9c0-1.4,1.1-2.1,2.4-2.1c0.3,0,0.6,0,0.9,0.1
				V32.6z"/>
			<path class="st0" d="M105.1,30.1c0.2,0,0.4,0,0.5-0.1h0v2.2c0.2-0.4,0.8-0.5,1.2-0.5c1.1,0,1.4,0.7,1.4,1.5v1.5
				c0,0.4,0,0.7,0.3,0.9v0h-1.4v0c0.4-0.2,0.3-0.5,0.3-0.9v-1.3c0-0.7-0.2-1.2-0.9-1.2c-0.7,0-1,0.4-1,1.1v1.3c0,0.4,0,0.7,0.3,0.9
				v0h-1.4v0c0.4-0.2,0.3-0.5,0.3-0.9V31c0-0.4,0-0.7-0.3-0.9v0H105.1z"/>
		</g>
		<g>
			<path class="st0" d="M45,4.5c0,0.9-0.7,1.7-1.7,1.7c-0.9,0-1.7-0.8-1.7-1.7s0.7-1.7,1.7-1.7C44.3,2.8,45,3.5,45,4.5"/>
			<path class="st0" d="M92.4,4.5c0,0.9-0.7,1.7-1.7,1.7c-0.9,0-1.7-0.8-1.7-1.7s0.7-1.7,1.7-1.7C91.7,2.8,92.4,3.5,92.4,4.5"/>
			<path class="st0" d="M44.7,20.2c0,1.1,0.7,1,2,1v0.6h-6.1v-0.6c1.4,0,1.9,0.1,1.9-1.5V12c0-1.2-1.5-1.6-1.5-1.6V10l3.3-1.1h0.4
				V20.2z"/>
			<path class="st0" d="M92.1,20.2c0,1.1,0.7,1,2,1v0.6H88v-0.6c1.4,0,1.9,0.1,1.9-1.5V12c0-1.2-1.5-1.6-1.5-1.6V10l3.3-1.1h0.4
				V20.2z"/>
			<path class="st0" d="M56.8,9.2v1.5h-4.3V18c0,2.4,1.1,2.7,1.6,2.7c0.5,0.1,1.3,0,2.3-0.8l0.4,0.4c-1.3,1.3-2.4,1.9-3.8,1.9
				c-2.1,0-2.8-1-2.8-3.7v-7.8h-1.8v-0.5c1.2-0.8,2.8-2,3.7-4h0.4v3H56.8z"/>
			<path class="st0" d="M66.2,15.4c-0.6,0.2-1.3,0.4-2.3,0.8c-2.1,0.8-3.1,1.5-3.1,2.9c0,1.2,1.2,1.9,2.3,1.9c0.7,0,1.2-0.1,3.1-1.6
				L66.2,15.4z M59.5,13.5c-0.9,0-0.3-1.3-0.3-1.4c0.6-1.1,3.1-3,5.2-3.1c1-0.1,2.3-0.1,3.3,1.2c0.5,0.7,0.7,1,0.7,2.7v4.4
				c0,2.6,0.2,3.2,0.6,3.4c0.9,0.5,1.5-0.3,1.5-0.3l0.3,0.4c-1,1-2,1.5-2.8,1.5c-1.3,0-1.8-1.1-1.8-2.2c0,0-2.1,2.2-4.2,2.2
				c-2.1,0-3.4-1.1-3.4-2.7c0-2.1,1.8-2.9,3.9-3.7c0.7-0.3,2.2-0.8,3.7-1.3v-1.4c0-0.9,0.1-1.5-0.5-2.1c-0.4-0.5-1.5-0.9-2.3-0.9
				c-1,0-2.1,0.6-2.2,1.4c-0.1,0.5-0.1,1-0.3,1.2C60.8,13,60.4,13.5,59.5,13.5"/>
			<path class="st0" d="M81.9,12c-0.1-2-1.6-2.4-3.3-2.4c-2.5,0-4.1,2.3-4.1,5.3c0,3.1,1.7,5.8,4.9,5.6c1-0.1,2.3-0.8,2.5-1.5V12z
				 M81.9,3.3c0-1.4-1.5-1.3-1.5-1.3V1.6L83.8,0h0.4l0,18.9c0,1.1-0.2,1.7,1,1.7l0.8,0l0,0.4l-3.5,1.1l-0.6,0l0-1.9h-0.2
				c-1.5,1.7-3.2,2-4.6,2c-3.2,0-5.1-3-5.1-6.3c0-3.9,3.4-7.2,6.8-7.2c0.9,0,2.1,0.1,3,0.5V3.3z"/>
			<path class="st0" d="M100,19.5c0,1.8,0.1,1.6,2,1.6v0.7h-6.1v-0.6c1.5,0,1.9,0,1.9-1.3V12c-0.1-1-1.7-1.4-1.7-1.4v-0.4l3.6-1.4
				h0.3v2.1c1.9-1.2,2.9-2.2,5-2.2c2.2,0,3.4,1.1,3.4,4.7c0,4.2,0,5.8,0,7c0,0.9,2,0.7,2,0.7l0,0.6h-6.3v-0.7c0.5,0,1.4,0,1.7-0.3
				c0.1-0.1,0.2-0.4,0.2-0.8v-6.7c0-2.8-1.2-3.1-2.5-3.1c-1.3-0.1-2.5,0.8-3.5,1.3V19.5z"/>
			<path class="st0" d="M119.1,13c0.3,0,0.4-0.3,0.5-0.5c0.3-1.8-0.9-2.9-2.5-2.9c-1,0-2.7,0.5-3.4,3.4H119.1z M122,13.7
				c-0.1,0.1-0.1,0.2-0.2,0.2h-8.1c0,0.3-0.5,5.9,3.7,6.7c1.7,0.3,3.5-0.8,4.4-1.9l0.4,0.4c-1,1.4-3,3.2-5.3,3.2
				c-3.8,0-5.5-3-5.5-6.6c0.1-3.3,2-6.8,5.8-6.8c3.9,0,4.8,3.2,4.8,4.3C122.1,13,122.1,13.4,122,13.7"/>
			<path class="st0" d="M125,17.8c0.4,1.9,1.5,3.6,3.4,3.6c1.3,0,2.3-0.7,2.4-1.9c0-0.4,0.1-1.2-0.8-1.9c-2-1.7-5.2-1.6-5.4-5
				c-0.1-1.9,1.5-3.8,4.4-3.8c1.1,0,2.4,0.3,3.2,0.8l0.2,2.8h-0.7c-0.5-2.2-1.7-2.8-2.9-2.8c-1,0-2.4,0.6-2.4,1.8
				c0,3.4,6.7,2.6,6.7,6.8c0,2.5-2.5,4-4.6,4c-2.5,0-3.8-1-3.8-1l-0.3-3.3L125,17.8z"/>
			<path class="st0" d="M38.2,12.2c-0.1,0.2-0.5,0.2-0.6,0c-0.3-1.3-1.2-2.9-3.9-2.9c-2.6,0-5.1,1.8-5.1,5.9c0,4.3,2.7,6.4,5.3,6.4
				c2.5,0,3.6-1.7,4.2-3c0.2-0.2,0.5-0.1,0.6,0.1c-0.1,1.4-0.7,2.7-1,3.1c-0.2,0-0.5,0.1-0.7,0.2c-0.4,0.1-1.8,0.5-3.1,0.5
				c-2,0-3.7-0.4-5.2-1.4c-1.6-1.1-2.9-2.9-2.9-5.5c0-2.4,1-4.2,2.5-5.3c1.5-1.1,3.5-1.7,5.6-1.7c1.1,0,2.5,0.2,3.5,0.4
				C37.6,9,37.7,9,37.9,9C38,9.5,38,10.7,38.2,12.2"/>
			<path class="st0" d="M45,4.5c0,0.9-0.7,1.7-1.7,1.7c-0.9,0-1.7-0.8-1.7-1.7s0.7-1.7,1.7-1.7C44.3,2.8,45,3.5,45,4.5"/>
			<path class="st0" d="M92.4,4.5c0,0.9-0.7,1.7-1.7,1.7c-0.9,0-1.7-0.8-1.7-1.7s0.7-1.7,1.7-1.7C91.7,2.8,92.4,3.5,92.4,4.5"/>
			<path class="st0" d="M44.7,20.2c0,1.1,0.7,1,2,1v0.6h-6.1v-0.6c1.4,0,1.9,0.1,1.9-1.5V12c0-1.2-1.5-1.6-1.5-1.6V10l3.3-1.1h0.4
				V20.2z"/>
			<path class="st0" d="M92.1,20.2c0,1.1,0.7,1,2,1v0.6H88v-0.6c1.4,0,1.9,0.1,1.9-1.5V12c0-1.2-1.5-1.6-1.5-1.6V10l3.3-1.1h0.4
				V20.2z"/>
			<path class="st0" d="M56.8,9.2v1.5h-4.3V18c0,2.4,1.1,2.7,1.6,2.7c0.5,0.1,1.3,0,2.3-0.8l0.4,0.4c-1.3,1.3-2.4,1.9-3.8,1.9
				c-2.1,0-2.8-1-2.8-3.7v-7.8h-1.8v-0.5c1.2-0.8,2.8-2,3.7-4h0.4v3H56.8z"/>
			<path class="st0" d="M66.2,15.4c-0.6,0.2-1.3,0.4-2.3,0.8c-2.1,0.8-3.1,1.5-3.1,2.9c0,1.2,1.2,1.9,2.3,1.9c0.7,0,1.2-0.1,3.1-1.6
				L66.2,15.4z M59.5,13.5c-0.9,0-0.3-1.3-0.3-1.4c0.6-1.1,3.1-3,5.2-3.1c1-0.1,2.3-0.1,3.3,1.2c0.5,0.7,0.7,1,0.7,2.7v4.4
				c0,2.6,0.2,3.2,0.6,3.4c0.9,0.5,1.5-0.3,1.5-0.3l0.3,0.4c-1,1-2,1.5-2.8,1.5c-1.3,0-1.8-1.1-1.8-2.2c0,0-2.1,2.2-4.2,2.2
				c-2.1,0-3.4-1.1-3.4-2.7c0-2.1,1.8-2.9,3.9-3.7c0.7-0.3,2.2-0.8,3.7-1.3v-1.4c0-0.9,0.1-1.5-0.5-2.1c-0.4-0.5-1.5-0.9-2.3-0.9
				c-1,0-2.1,0.6-2.2,1.4c-0.1,0.5-0.1,1-0.3,1.2C60.8,13,60.4,13.5,59.5,13.5"/>
			<path class="st0" d="M81.9,12c-0.1-2-1.6-2.4-3.3-2.4c-2.5,0-4.1,2.3-4.1,5.3c0,3.1,1.7,5.8,4.9,5.6c1-0.1,2.3-0.8,2.5-1.5V12z
				 M81.9,3.3c0-1.4-1.5-1.3-1.5-1.3V1.6L83.8,0h0.4l0,18.9c0,1.1-0.2,1.7,1,1.7l0.8,0l0,0.4l-3.5,1.1l-0.6,0l0-1.9h-0.2
				c-1.5,1.7-3.2,2-4.6,2c-3.2,0-5.1-3-5.1-6.3c0-3.9,3.4-7.2,6.8-7.2c0.9,0,2.1,0.1,3,0.5V3.3z"/>
			<path class="st0" d="M100,19.5c0,1.8,0.1,1.6,2,1.6v0.7h-6.1v-0.6c1.5,0,1.9,0,1.9-1.3V12c-0.1-1-1.7-1.4-1.7-1.4v-0.4l3.6-1.4
				h0.3v2.1c1.9-1.2,2.9-2.2,5-2.2c2.2,0,3.4,1.1,3.4,4.7c0,4.2,0,5.8,0,7c0,0.9,2,0.7,2,0.7l0,0.6h-6.3v-0.7c0.5,0,1.4,0,1.7-0.3
				c0.1-0.1,0.2-0.4,0.2-0.8v-6.7c0-2.8-1.2-3.1-2.5-3.1c-1.3-0.1-2.5,0.8-3.5,1.3V19.5z"/>
			<path class="st0" d="M119.1,13c0.3,0,0.4-0.3,0.5-0.5c0.3-1.8-0.9-2.9-2.5-2.9c-1,0-2.7,0.5-3.4,3.4H119.1z M122,13.7
				c-0.1,0.1-0.1,0.2-0.2,0.2h-8.1c0,0.3-0.5,5.9,3.7,6.7c1.7,0.3,3.5-0.8,4.4-1.9l0.4,0.4c-1,1.4-3,3.2-5.3,3.2
				c-3.8,0-5.5-3-5.5-6.6c0.1-3.3,2-6.8,5.8-6.8c3.9,0,4.8,3.2,4.8,4.3C122.1,13,122.1,13.4,122,13.7"/>
			<path class="st0" d="M125,17.8c0.4,1.9,1.5,3.6,3.4,3.6c1.3,0,2.3-0.7,2.4-1.9c0-0.4,0.1-1.2-0.8-1.9c-2-1.7-5.2-1.6-5.4-5
				c-0.1-1.9,1.5-3.8,4.4-3.8c1.1,0,2.4,0.3,3.2,0.8l0.2,2.8h-0.7c-0.5-2.2-1.7-2.8-2.9-2.8c-1,0-2.4,0.6-2.4,1.8
				c0,3.4,6.7,2.6,6.7,6.8c0,2.5-2.5,4-4.6,4c-2.5,0-3.8-1-3.8-1l-0.3-3.3L125,17.8z"/>
			<path class="st0" d="M38.2,12.2c-0.1,0.2-0.5,0.2-0.6,0c-0.3-1.3-1.2-2.9-3.9-2.9c-2.6,0-5.1,1.8-5.1,5.9c0,4.3,2.7,6.4,5.3,6.4
				c2.5,0,3.6-1.7,4.2-3c0.2-0.2,0.5-0.1,0.6,0.1c-0.1,1.4-0.7,2.7-1,3.1c-0.2,0-0.5,0.1-0.7,0.2c-0.4,0.1-1.8,0.5-3.1,0.5
				c-2,0-3.7-0.4-5.2-1.4c-1.6-1.1-2.9-2.9-2.9-5.5c0-2.4,1-4.2,2.5-5.3c1.5-1.1,3.5-1.7,5.6-1.7c1.1,0,2.5,0.2,3.5,0.4
				C37.6,9,37.7,9,37.9,9C38,9.5,38,10.7,38.2,12.2"/>
		</g>
	</g>
	<g>
		<path class="st0" d="M2.7,59.8h0.9l2.6,6.4h-1l-0.7-1.7h-3l-0.7,1.7H0L2.7,59.8z M1.9,63.9h2.4l-1.2-3.1L1.9,63.9z"/>
		<path class="st0" d="M13.1,59.9h0.8v5.7c0,0.1,0,0.5,0,0.7h-0.8l0-0.7c-0.1,0.1-0.2,0.3-0.4,0.5c-0.4,0.2-0.8,0.3-1.1,0.3
			c-0.6,0-1.9-0.3-1.9-2.3c0-1.7,1-2.4,2-2.4c1,0,1.3,0.6,1.4,0.8V59.9z M12.8,62.7c-0.2-0.2-0.5-0.5-1-0.5c-1.2,0-1.2,1.5-1.2,1.8
			c0,0.8,0.2,1.7,1.2,1.7c1.3,0,1.3-1.4,1.3-1.8C13.1,63.3,13,63,12.8,62.7z"/>
		<path class="st0" d="M16.2,64.2c0,0.9,0.4,1.6,1.3,1.6c0.5,0,1-0.3,1-0.9h0.8c0,0.2-0.1,0.6-0.4,0.9c-0.2,0.2-0.6,0.6-1.5,0.6
			c-1.4,0-2.1-0.9-2.1-2.3c0-0.9,0.2-1.6,0.9-2.1c0.4-0.3,1-0.3,1.2-0.3c2,0,2,1.8,1.9,2.5H16.2z M18.5,63.6c0-0.4-0.1-1.3-1.1-1.3
			c-0.5,0-1.2,0.3-1.2,1.3H18.5z"/>
		<path class="st0" d="M20.1,61.8h0.9l1.4,3.5l1.4-3.5h0.9l-2,4.5H22L20.1,61.8z"/>
		<path class="st0" d="M26.5,64.2c0,0.9,0.4,1.6,1.3,1.6c0.5,0,1-0.3,1-0.9h0.8c0,0.2-0.1,0.6-0.4,0.9c-0.2,0.2-0.6,0.6-1.5,0.6
			c-1.4,0-2.1-0.9-2.1-2.3c0-0.9,0.2-1.6,0.9-2.1c0.4-0.3,1-0.3,1.2-0.3c2,0,2,1.8,1.9,2.5H26.5z M28.8,63.6c0-0.4-0.1-1.3-1.1-1.3
			c-0.5,0-1.2,0.3-1.2,1.3H28.8z"/>
		<path class="st0" d="M31.2,59.9H32v6.4h-0.8V59.9z"/>
		<path class="st0" d="M35.8,61.7c1.8,0,2.2,1.4,2.2,2.3c0,1.3-0.7,2.4-2.3,2.4c-1.5,0-2.2-1-2.2-2.3C33.5,63,34,61.7,35.8,61.7z
			 M35.7,65.8c0.6,0,1.3-0.5,1.3-1.8c0-1.1-0.5-1.7-1.3-1.7c-0.5,0-1.4,0.3-1.4,1.7C34.4,64.9,34.8,65.8,35.7,65.8z"/>
		<path class="st0" d="M39.4,62.5c0-0.2,0-0.3,0-0.7h0.8l0,0.7c0.4-0.7,1.2-0.8,1.5-0.8c1,0,1.9,0.7,1.9,2.3c0,1.7-1,2.4-2,2.4
			c-0.6,0-1.1-0.3-1.4-0.7V68h-0.8V62.5z M41.5,65.8c0.2,0,0.7,0,0.9-0.4c0.3-0.4,0.4-1.1,0.4-1.4c0-0.8-0.2-1.6-1.2-1.6
			c-1.3,0-1.3,1.4-1.3,1.8C40.2,64.7,40.3,65.8,41.5,65.8z"/>
		<path class="st0" d="M45.1,62.4l0-0.6h0.8v0.6c0.4-0.7,1-0.8,1.4-0.8c1,0,1.3,0.5,1.5,0.8c0.2-0.2,0.5-0.8,1.5-0.8
			c0.6,0,1.6,0.3,1.6,1.6v3h-0.8v-2.9c0-0.4-0.1-0.6-0.2-0.7c-0.1-0.2-0.4-0.4-0.9-0.4c-0.5,0-0.8,0.3-0.9,0.5
			c-0.2,0.3-0.2,0.8-0.2,1v2.5h-0.8v-2.9c0-0.6-0.3-1-1-1c-0.6,0-0.9,0.4-1,0.5c-0.2,0.3-0.2,0.6-0.2,0.9v2.5h-0.8V62.4z"/>
		<path class="st0" d="M54.2,64.2c0,0.9,0.4,1.6,1.3,1.6c0.5,0,1-0.3,1-0.9h0.8c0,0.2-0.1,0.6-0.4,0.9c-0.2,0.2-0.6,0.6-1.5,0.6
			c-1.4,0-2.1-0.9-2.1-2.3c0-0.9,0.2-1.6,0.9-2.1c0.4-0.3,1-0.3,1.2-0.3c2,0,2,1.8,1.9,2.5H54.2z M56.6,63.6c0-0.4-0.1-1.3-1.1-1.3
			c-0.5,0-1.2,0.3-1.2,1.3H56.6z"/>
		<path class="st0" d="M58.9,62.3l0-0.5h0.8l0,0.7c0.1-0.2,0.4-0.8,1.4-0.8c0.4,0,1.6,0.2,1.6,1.5v3h-0.9v-2.8c0-0.3,0-0.6-0.2-0.8
			c-0.2-0.2-0.5-0.3-0.8-0.3c-0.6,0-1.2,0.4-1.2,1.3v2.6h-0.8V62.3z"/>
		<path class="st0" d="M63.8,61.8h0.8v-0.9l0.8-0.3v1.2h1v0.6h-1v2.7c0,0.2,0,0.6,0.6,0.6c0.2,0,0.3,0,0.4,0v0.6
			c-0.2,0-0.4,0.1-0.7,0.1c-0.8,0-1.1-0.2-1.1-0.9v-3h-0.8V61.8z"/>
		<path class="st0" d="M71.2,62.4c0.1-0.2,0.4-0.8,1.5-0.8c0.4,0,1,0.1,1.4,0.6c0.2,0.3,0.5,0.7,0.5,1.7c0,0.9-0.2,1.3-0.4,1.6
			c-0.4,0.5-0.9,0.8-1.6,0.8c-0.2,0-0.6,0-1-0.3c-0.2-0.2-0.3-0.3-0.4-0.5l0,0.7h-0.8l0-0.8v-5.6h0.8V62.4z M72.5,62.2
			c-1.3,0-1.3,1.5-1.3,1.8c0,0.3,0,1.7,1.2,1.7c1,0,1.3-1,1.3-1.7C73.7,63.5,73.6,62.2,72.5,62.2z"/>
		<path class="st0" d="M78,66.3l-0.6,1.7h-0.9l0.7-1.7l-1.9-4.4h0.9l1.4,3.5l1.4-3.5H80L78,66.3z"/>
		<path class="st0" d="M88.2,61.4c-0.1-0.6-0.6-1-1.4-1c-0.6,0-1.1,0.2-1.4,0.5c-0.6,0.6-0.7,1.5-0.7,2.1c0,0.5,0.1,1.5,0.6,2
			c0.4,0.5,1.1,0.6,1.7,0.6c0.7,0,1.2-0.1,1.4-0.2v-1.9h-1.5v-0.7h2.4V66c-0.4,0.1-1.2,0.4-2.3,0.4c-1.2,0-1.9-0.3-2.3-0.8
			c-0.6-0.6-0.9-1.5-0.9-2.4c0-0.6,0.2-2.1,1.4-3c0.6-0.4,1.5-0.5,1.8-0.5c0.5,0,1.3,0.1,1.9,0.7c0.4,0.4,0.4,0.8,0.4,1H88.2z"/>
		<path class="st0" d="M91.5,64.2c0,0.9,0.4,1.6,1.3,1.6c0.5,0,1-0.3,1-0.9h0.8c0,0.2-0.1,0.6-0.4,0.9c-0.2,0.2-0.6,0.6-1.5,0.6
			c-1.4,0-2.1-0.9-2.1-2.3c0-0.9,0.2-1.6,0.9-2.1c0.4-0.3,1-0.3,1.2-0.3c2,0,2,1.8,1.9,2.5H91.5z M93.9,63.6c0-0.4-0.1-1.3-1.1-1.3
			c-0.5,0-1.2,0.3-1.2,1.3H93.9z"/>
		<path class="st0" d="M96.2,62.3l0-0.5H97l0,0.7c0.1-0.2,0.4-0.8,1.4-0.8c0.4,0,1.6,0.2,1.6,1.5v3h-0.9v-2.8c0-0.3,0-0.6-0.2-0.8
			c-0.2-0.2-0.5-0.3-0.8-0.3c-0.6,0-1.2,0.4-1.2,1.3v2.6h-0.8V62.3z"/>
		<path class="st0" d="M102.3,64.2c0,0.9,0.4,1.6,1.3,1.6c0.5,0,1-0.3,1-0.9h0.8c0,0.2-0.1,0.6-0.4,0.9c-0.2,0.2-0.6,0.6-1.5,0.6
			c-1.4,0-2.1-0.9-2.1-2.3c0-0.9,0.2-1.6,0.9-2.1c0.4-0.3,1-0.3,1.2-0.3c2,0,2,1.8,1.9,2.5H102.3z M104.7,63.6
			c0-0.4-0.1-1.3-1.1-1.3c-0.5,0-1.2,0.3-1.2,1.3H104.7z"/>
		<path class="st0" d="M107.4,64.9c0,0.3,0.2,0.8,1,0.8c0.3,0,0.6-0.1,0.8-0.3c0.1-0.1,0.1-0.3,0.1-0.4c0-0.4-0.3-0.5-1-0.7
			c-0.9-0.2-1.7-0.4-1.7-1.3c0-0.8,0.7-1.3,1.7-1.3c0.6,0,1.3,0.2,1.6,0.7c0.1,0.2,0.1,0.5,0.1,0.6h-0.9c0-0.7-0.6-0.7-0.9-0.7
			c-0.1,0-0.9,0-0.9,0.6c0,0.4,0.4,0.5,0.6,0.6c1.2,0.3,1.5,0.4,1.8,0.6c0.2,0.2,0.3,0.5,0.3,0.8c0,0.5-0.3,0.9-0.6,1.1
			c-0.4,0.2-0.9,0.3-1.3,0.3c-0.9,0-1.7-0.4-1.7-1.4H107.4z"/>
		<path class="st0" d="M111.5,59.9h1v0.9h-1V59.9z M111.6,61.8h0.8v4.5h-0.8V61.8z"/>
		<path class="st0" d="M114.8,64.9c0,0.3,0.2,0.8,1,0.8c0.3,0,0.6-0.1,0.8-0.3c0.1-0.1,0.1-0.3,0.1-0.4c0-0.4-0.3-0.5-1-0.7
			c-0.9-0.2-1.7-0.4-1.7-1.3c0-0.8,0.7-1.3,1.7-1.3c0.6,0,1.3,0.2,1.6,0.7c0.1,0.2,0.1,0.5,0.1,0.6h-0.9c0-0.7-0.6-0.7-0.9-0.7
			c-0.1,0-0.9,0-0.9,0.6c0,0.4,0.4,0.5,0.6,0.6c1.2,0.3,1.5,0.4,1.8,0.6c0.2,0.2,0.3,0.5,0.3,0.8c0,0.5-0.3,0.9-0.6,1.1
			c-0.4,0.2-0.9,0.3-1.3,0.3c-0.9,0-1.7-0.4-1.7-1.4H114.8z"/>
		<path class="st0" d="M121.7,59.8h0.9v6.4h-0.9V59.8z"/>
		<path class="st0" d="M124.4,62.3l0-0.5h0.8l0,0.7c0.1-0.2,0.4-0.8,1.4-0.8c0.4,0,1.6,0.2,1.6,1.5v3h-0.9v-2.8c0-0.3,0-0.6-0.2-0.8
			c-0.2-0.2-0.5-0.3-0.8-0.3c-0.6,0-1.2,0.4-1.2,1.3v2.6h-0.8V62.3z"/>
		<path class="st0" d="M133.1,59.9h0.8v5.7c0,0.1,0,0.5,0,0.7h-0.8l0-0.7c-0.1,0.1-0.2,0.3-0.4,0.5c-0.4,0.2-0.8,0.3-1.1,0.3
			c-0.6,0-1.9-0.3-1.9-2.3c0-1.7,1-2.4,2-2.4c1,0,1.3,0.6,1.4,0.8V59.9z M132.8,62.7c-0.2-0.2-0.5-0.5-1-0.5c-1.2,0-1.2,1.5-1.2,1.8
			c0,0.8,0.2,1.7,1.2,1.7c1.3,0,1.3-1.4,1.3-1.8C133.1,63.3,133,63,132.8,62.7z"/>
		<path class="st0" d="M137.6,61.7c1.8,0,2.2,1.4,2.2,2.3c0,1.3-0.7,2.4-2.3,2.4c-1.5,0-2.2-1-2.2-2.3
			C135.3,63,135.8,61.7,137.6,61.7z M137.5,65.8c0.6,0,1.3-0.5,1.3-1.8c0-1.1-0.5-1.7-1.3-1.7c-0.5,0-1.4,0.3-1.4,1.7
			C136.2,64.9,136.6,65.8,137.5,65.8z"/>
		<path class="st0" d="M140.5,67.4c0.7,0,0.8-0.1,0.8-0.8v-4.8h0.8v4.9c0,0.4,0,1.3-1.1,1.3c-0.1,0-0.3,0-0.5,0V67.4z M141.2,59.9h1
			v0.9h-1V59.9z"/>
		<path class="st0" d="M146.7,66.3c-0.1-0.2-0.1-0.4-0.1-0.7c-0.4,0.7-1,0.8-1.4,0.8c-1,0-1.6-0.6-1.6-1.3c0-0.4,0.1-0.9,0.8-1.3
			c0.5-0.3,1.2-0.3,1.5-0.3c0.2,0,0.3,0,0.6,0c0-0.6,0-0.8-0.2-1c-0.2-0.2-0.5-0.3-0.8-0.3c-0.8,0-0.9,0.6-0.9,0.8h-0.8
			c0-0.2,0.1-0.5,0.3-0.8c0.3-0.4,1-0.5,1.4-0.5c0.6,0,1.3,0.2,1.6,0.7c0.1,0.3,0.2,0.5,0.2,0.7l0,2.1c0,0.1,0,0.7,0.1,1.1H146.7z
			 M146.1,64.1c-0.3,0-1.6,0-1.6,0.9c0,0.3,0.2,0.8,0.9,0.8c0.4,0,0.7-0.2,0.9-0.5c0.2-0.3,0.2-0.6,0.2-1.2
			C146.4,64.1,146.3,64.1,146.1,64.1z"/>
		<path class="st0" d="M151.1,66.3l-0.6,1.7h-0.9l0.7-1.7l-1.9-4.4h0.9l1.4,3.5l1.4-3.5h0.9L151.1,66.3z"/>
		<path class="st0" d="M157,66.3c-0.1-0.2-0.1-0.4-0.1-0.7c-0.4,0.7-1,0.8-1.4,0.8c-1,0-1.6-0.6-1.6-1.3c0-0.4,0.1-0.9,0.8-1.3
			c0.5-0.3,1.2-0.3,1.5-0.3c0.2,0,0.3,0,0.6,0c0-0.6,0-0.8-0.2-1c-0.2-0.2-0.5-0.3-0.8-0.3c-0.8,0-0.9,0.6-0.9,0.8h-0.8
			c0-0.2,0.1-0.5,0.3-0.8c0.3-0.4,1-0.5,1.4-0.5c0.6,0,1.3,0.2,1.6,0.7c0.1,0.3,0.2,0.5,0.2,0.7l0,2.1c0,0.1,0,0.7,0.1,1.1H157z
			 M156.4,64.1c-0.3,0-1.6,0-1.6,0.9c0,0.3,0.2,0.8,0.9,0.8c0.4,0,0.7-0.2,0.9-0.5c0.2-0.3,0.2-0.6,0.2-1.2
			C156.8,64.1,156.6,64.1,156.4,64.1z"/>
	</g>
</g>
</svg>
