<svg width="462" height="369" viewBox="0 0 462 369" fill="none" xmlns="http://www.w3.org/2000/svg">
<path d="M91.6514 19.4023H87.4814L86.5449 22H85.1914L88.9922 12.0469H90.1406L93.9482 22H92.6016L91.6514 19.4023ZM87.8779 18.3223H91.2617L89.5664 13.667L87.8779 18.3223ZM96.2861 14.6035L96.3271 15.5332C96.8923 14.8223 97.6305 14.4668 98.542 14.4668C100.105 14.4668 100.894 15.3486 100.907 17.1123V22H99.6426V17.1055C99.638 16.5723 99.515 16.1781 99.2734 15.9229C99.0365 15.6676 98.665 15.54 98.1592 15.54C97.749 15.54 97.389 15.6494 97.0791 15.8682C96.7692 16.0869 96.5277 16.374 96.3545 16.7295V22H95.0898V14.6035H96.2861ZM104.011 14.6035L104.052 15.5332C104.617 14.8223 105.355 14.4668 106.267 14.4668C107.83 14.4668 108.618 15.3486 108.632 17.1123V22H107.367V17.1055C107.363 16.5723 107.24 16.1781 106.998 15.9229C106.761 15.6676 106.39 15.54 105.884 15.54C105.474 15.54 105.114 15.6494 104.804 15.8682C104.494 16.0869 104.252 16.374 104.079 16.7295V22H102.814V14.6035H104.011ZM115.105 21.2686C114.613 21.8473 113.891 22.1367 112.938 22.1367C112.15 22.1367 111.549 21.9089 111.134 21.4531C110.724 20.9928 110.516 20.3138 110.512 19.416V14.6035H111.776V19.3818C111.776 20.5029 112.232 21.0635 113.144 21.0635C114.11 21.0635 114.752 20.7035 115.071 19.9834V14.6035H116.336V22H115.133L115.105 21.2686ZM122.83 22C122.757 21.8542 122.698 21.5944 122.652 21.2207C122.064 21.8314 121.363 22.1367 120.547 22.1367C119.818 22.1367 119.218 21.9316 118.749 21.5215C118.284 21.1068 118.052 20.5827 118.052 19.9492C118.052 19.179 118.343 18.582 118.927 18.1582C119.515 17.7298 120.34 17.5156 121.401 17.5156H122.632V16.9346C122.632 16.4925 122.5 16.1416 122.235 15.8818C121.971 15.6175 121.581 15.4854 121.066 15.4854C120.615 15.4854 120.237 15.5993 119.932 15.8271C119.626 16.055 119.474 16.3307 119.474 16.6543H118.202C118.202 16.2852 118.332 15.9297 118.592 15.5879C118.856 15.2415 119.212 14.9681 119.658 14.7676C120.109 14.5671 120.604 14.4668 121.142 14.4668C121.994 14.4668 122.661 14.681 123.145 15.1094C123.628 15.5332 123.878 16.1188 123.896 16.8662V20.2705C123.896 20.9495 123.983 21.4896 124.156 21.8906V22H122.83ZM120.731 21.0361C121.128 21.0361 121.504 20.9336 121.859 20.7285C122.215 20.5234 122.472 20.2568 122.632 19.9287V18.4111H121.641C120.091 18.4111 119.316 18.8646 119.316 19.7715C119.316 20.168 119.449 20.4779 119.713 20.7012C119.977 20.9245 120.317 21.0361 120.731 21.0361ZM127.253 22H125.988V11.5H127.253V22ZM138.443 17.6045H134.267V22H132.954V12.0469H139.12V13.127H134.267V16.5312H138.443V17.6045ZM140.009 18.2334C140.009 17.5088 140.15 16.8571 140.433 16.2783C140.72 15.6995 141.116 15.2529 141.622 14.9385C142.132 14.624 142.714 14.4668 143.365 14.4668C144.372 14.4668 145.186 14.8154 145.806 15.5127C146.43 16.21 146.742 17.1374 146.742 18.2949V18.3838C146.742 19.1038 146.603 19.751 146.325 20.3252C146.052 20.8949 145.658 21.3392 145.143 21.6582C144.632 21.9772 144.044 22.1367 143.379 22.1367C142.376 22.1367 141.563 21.7881 140.938 21.0908C140.319 20.3936 140.009 19.4707 140.009 18.3223V18.2334ZM141.28 18.3838C141.28 19.2041 141.469 19.8626 141.848 20.3594C142.23 20.8561 142.741 21.1045 143.379 21.1045C144.021 21.1045 144.532 20.8538 144.91 20.3525C145.288 19.8467 145.478 19.1403 145.478 18.2334C145.478 17.4222 145.284 16.766 144.896 16.2646C144.514 15.7588 144.003 15.5059 143.365 15.5059C142.741 15.5059 142.237 15.7542 141.854 16.251C141.472 16.7477 141.28 17.4587 141.28 18.3838ZM151.903 15.7383C151.712 15.7064 151.505 15.6904 151.281 15.6904C150.452 15.6904 149.889 16.0436 149.593 16.75V22H148.328V14.6035H149.559L149.579 15.458C149.994 14.7972 150.582 14.4668 151.343 14.4668C151.589 14.4668 151.776 14.4987 151.903 14.5625V15.7383ZM156.005 22.1367C155.002 22.1367 154.187 21.8086 153.558 21.1523C152.929 20.4915 152.614 19.6097 152.614 18.5068V18.2744C152.614 17.5407 152.753 16.8867 153.031 16.3125C153.314 15.7337 153.706 15.2826 154.207 14.959C154.713 14.6309 155.26 14.4668 155.848 14.4668C156.809 14.4668 157.557 14.7835 158.09 15.417C158.623 16.0505 158.89 16.9574 158.89 18.1377V18.6641H153.879C153.897 19.3932 154.109 19.9834 154.515 20.4346C154.925 20.8812 155.444 21.1045 156.073 21.1045C156.52 21.1045 156.898 21.0133 157.208 20.8311C157.518 20.6488 157.789 20.4072 158.021 20.1064L158.794 20.708C158.174 21.6605 157.244 22.1367 156.005 22.1367ZM155.848 15.5059C155.337 15.5059 154.909 15.6927 154.562 16.0664C154.216 16.4355 154.002 16.9551 153.92 17.625H157.625V17.5293C157.589 16.8867 157.415 16.39 157.105 16.0391C156.796 15.6836 156.376 15.5059 155.848 15.5059ZM161.733 22H160.469V14.6035H161.733V22ZM160.366 12.6416C160.366 12.4365 160.428 12.2633 160.551 12.1221C160.678 11.9808 160.865 11.9102 161.111 11.9102C161.357 11.9102 161.544 11.9808 161.672 12.1221C161.799 12.2633 161.863 12.4365 161.863 12.6416C161.863 12.8467 161.799 13.0176 161.672 13.1543C161.544 13.291 161.357 13.3594 161.111 13.3594C160.865 13.3594 160.678 13.291 160.551 13.1543C160.428 13.0176 160.366 12.8467 160.366 12.6416ZM163.463 18.2402C163.463 17.0872 163.729 16.1712 164.263 15.4922C164.796 14.8086 165.502 14.4668 166.382 14.4668C167.284 14.4668 167.988 14.7858 168.494 15.4238L168.556 14.6035H169.711V21.8223C169.711 22.7793 169.426 23.5335 168.856 24.085C168.291 24.6364 167.53 24.9121 166.573 24.9121C166.04 24.9121 165.518 24.7982 165.008 24.5703C164.497 24.3424 164.108 24.0303 163.839 23.6338L164.495 22.875C165.037 23.5449 165.701 23.8799 166.484 23.8799C167.1 23.8799 167.578 23.7067 167.92 23.3604C168.266 23.014 168.439 22.5264 168.439 21.8975V21.2617C167.934 21.8451 167.243 22.1367 166.368 22.1367C165.502 22.1367 164.8 21.7881 164.263 21.0908C163.729 20.3936 163.463 19.4434 163.463 18.2402ZM164.734 18.3838C164.734 19.2178 164.905 19.874 165.247 20.3525C165.589 20.8265 166.067 21.0635 166.683 21.0635C167.48 21.0635 168.066 20.7012 168.439 19.9766V16.5996C168.052 15.8932 167.471 15.54 166.696 15.54C166.081 15.54 165.6 15.7793 165.254 16.2578C164.908 16.7363 164.734 17.445 164.734 18.3838ZM172.821 14.6035L172.862 15.5332C173.427 14.8223 174.166 14.4668 175.077 14.4668C176.64 14.4668 177.429 15.3486 177.442 17.1123V22H176.178V17.1055C176.173 16.5723 176.05 16.1781 175.809 15.9229C175.572 15.6676 175.2 15.54 174.694 15.54C174.284 15.54 173.924 15.6494 173.614 15.8682C173.304 16.0869 173.063 16.374 172.89 16.7295V22H171.625V14.6035H172.821ZM186.315 20.2568L189.159 12.0469H190.595L186.903 22H185.741L182.057 12.0469H183.485L186.315 20.2568ZM193.11 22H191.846V14.6035H193.11V22ZM191.743 12.6416C191.743 12.4365 191.805 12.2633 191.928 12.1221C192.055 11.9808 192.242 11.9102 192.488 11.9102C192.734 11.9102 192.921 11.9808 193.049 12.1221C193.176 12.2633 193.24 12.4365 193.24 12.6416C193.24 12.8467 193.176 13.0176 193.049 13.1543C192.921 13.291 192.734 13.3594 192.488 13.3594C192.242 13.3594 192.055 13.291 191.928 13.1543C191.805 13.0176 191.743 12.8467 191.743 12.6416ZM199.447 20.0381C199.447 19.6963 199.317 19.432 199.058 19.2451C198.802 19.0537 198.354 18.8896 197.711 18.7529C197.073 18.6162 196.565 18.4521 196.187 18.2607C195.813 18.0693 195.535 17.8415 195.353 17.5771C195.175 17.3128 195.086 16.9984 195.086 16.6338C195.086 16.0277 195.341 15.515 195.852 15.0957C196.367 14.6764 197.023 14.4668 197.82 14.4668C198.659 14.4668 199.338 14.6833 199.857 15.1162C200.382 15.5492 200.644 16.1029 200.644 16.7773H199.372C199.372 16.431 199.224 16.1325 198.928 15.8818C198.636 15.6312 198.267 15.5059 197.82 15.5059C197.36 15.5059 197 15.6061 196.74 15.8066C196.48 16.0072 196.351 16.2692 196.351 16.5928C196.351 16.8981 196.471 17.1283 196.713 17.2832C196.954 17.4382 197.39 17.5863 198.019 17.7275C198.652 17.8688 199.165 18.0374 199.557 18.2334C199.949 18.4294 200.238 18.6663 200.425 18.9443C200.616 19.2178 200.712 19.5527 200.712 19.9492C200.712 20.61 200.448 21.141 199.919 21.542C199.39 21.9385 198.704 22.1367 197.861 22.1367C197.269 22.1367 196.745 22.0319 196.289 21.8223C195.833 21.6126 195.476 21.321 195.216 20.9473C194.961 20.569 194.833 20.1611 194.833 19.7236H196.098C196.12 20.1475 196.289 20.4847 196.604 20.7354C196.923 20.9814 197.342 21.1045 197.861 21.1045C198.34 21.1045 198.723 21.0088 199.01 20.8174C199.301 20.6214 199.447 20.3617 199.447 20.0381ZM203.733 22H202.469V14.6035H203.733V22ZM202.366 12.6416C202.366 12.4365 202.428 12.2633 202.551 12.1221C202.678 11.9808 202.865 11.9102 203.111 11.9102C203.357 11.9102 203.544 11.9808 203.672 12.1221C203.799 12.2633 203.863 12.4365 203.863 12.6416C203.863 12.8467 203.799 13.0176 203.672 13.1543C203.544 13.291 203.357 13.3594 203.111 13.3594C202.865 13.3594 202.678 13.291 202.551 13.1543C202.428 13.0176 202.366 12.8467 202.366 12.6416ZM207.479 12.8125V14.6035H208.86V15.5811H207.479V20.168C207.479 20.4642 207.541 20.6875 207.664 20.8379C207.787 20.9837 207.997 21.0566 208.293 21.0566C208.439 21.0566 208.639 21.0293 208.895 20.9746V22C208.562 22.0911 208.238 22.1367 207.924 22.1367C207.359 22.1367 206.933 21.9658 206.646 21.624C206.358 21.2822 206.215 20.7969 206.215 20.168V15.5811H204.868V14.6035H206.215V12.8125H207.479ZM209.872 18.2334C209.872 17.5088 210.013 16.8571 210.296 16.2783C210.583 15.6995 210.979 15.2529 211.485 14.9385C211.996 14.624 212.577 14.4668 213.229 14.4668C214.236 14.4668 215.049 14.8154 215.669 15.5127C216.293 16.21 216.605 17.1374 216.605 18.2949V18.3838C216.605 19.1038 216.466 19.751 216.188 20.3252C215.915 20.8949 215.521 21.3392 215.006 21.6582C214.495 21.9772 213.908 22.1367 213.242 22.1367C212.24 22.1367 211.426 21.7881 210.802 21.0908C210.182 20.3936 209.872 19.4707 209.872 18.3223V18.2334ZM211.144 18.3838C211.144 19.2041 211.333 19.8626 211.711 20.3594C212.094 20.8561 212.604 21.1045 213.242 21.1045C213.885 21.1045 214.395 20.8538 214.773 20.3525C215.152 19.8467 215.341 19.1403 215.341 18.2334C215.341 17.4222 215.147 16.766 214.76 16.2646C214.377 15.7588 213.867 15.5059 213.229 15.5059C212.604 15.5059 212.101 15.7542 211.718 16.251C211.335 16.7477 211.144 17.4587 211.144 18.3838ZM221.767 15.7383C221.575 15.7064 221.368 15.6904 221.145 15.6904C220.315 15.6904 219.752 16.0436 219.456 16.75V22H218.191V14.6035H219.422L219.442 15.458C219.857 14.7972 220.445 14.4668 221.206 14.4668C221.452 14.4668 221.639 14.4987 221.767 14.5625V15.7383ZM232.103 19.4023H227.933L226.996 22H225.643L229.443 12.0469H230.592L234.399 22H233.053L232.103 19.4023ZM228.329 18.3223H231.713L230.018 13.667L228.329 18.3223ZM239.116 15.7383C238.925 15.7064 238.717 15.6904 238.494 15.6904C237.665 15.6904 237.102 16.0436 236.806 16.75V22H235.541V14.6035H236.771L236.792 15.458C237.207 14.7972 237.795 14.4668 238.556 14.4668C238.802 14.4668 238.989 14.4987 239.116 14.5625V15.7383ZM243.86 15.7383C243.669 15.7064 243.462 15.6904 243.238 15.6904C242.409 15.6904 241.846 16.0436 241.55 16.75V22H240.285V14.6035H241.516L241.536 15.458C241.951 14.7972 242.539 14.4668 243.3 14.4668C243.546 14.4668 243.733 14.4987 243.86 14.5625V15.7383ZM246.403 22H245.139V14.6035H246.403V22ZM245.036 12.6416C245.036 12.4365 245.098 12.2633 245.221 12.1221C245.348 11.9808 245.535 11.9102 245.781 11.9102C246.027 11.9102 246.214 11.9808 246.342 12.1221C246.469 12.2633 246.533 12.4365 246.533 12.6416C246.533 12.8467 246.469 13.0176 246.342 13.1543C246.214 13.291 246.027 13.3594 245.781 13.3594C245.535 13.3594 245.348 13.291 245.221 13.1543C245.098 13.0176 245.036 12.8467 245.036 12.6416ZM250.874 20.2842L252.706 14.6035H253.998L251.346 22H250.382L247.702 14.6035H248.994L250.874 20.2842ZM259.672 22C259.599 21.8542 259.54 21.5944 259.494 21.2207C258.906 21.8314 258.204 22.1367 257.389 22.1367C256.66 22.1367 256.06 21.9316 255.591 21.5215C255.126 21.1068 254.894 20.5827 254.894 19.9492C254.894 19.179 255.185 18.582 255.769 18.1582C256.356 17.7298 257.181 17.5156 258.243 17.5156H259.474V16.9346C259.474 16.4925 259.341 16.1416 259.077 15.8818C258.813 15.6175 258.423 15.4854 257.908 15.4854C257.457 15.4854 257.079 15.5993 256.773 15.8271C256.468 16.055 256.315 16.3307 256.315 16.6543H255.044C255.044 16.2852 255.174 15.9297 255.434 15.5879C255.698 15.2415 256.053 14.9681 256.5 14.7676C256.951 14.5671 257.446 14.4668 257.983 14.4668C258.836 14.4668 259.503 14.681 259.986 15.1094C260.469 15.5332 260.72 16.1188 260.738 16.8662V20.2705C260.738 20.9495 260.825 21.4896 260.998 21.8906V22H259.672ZM257.573 21.0361C257.97 21.0361 258.346 20.9336 258.701 20.7285C259.057 20.5234 259.314 20.2568 259.474 19.9287V18.4111H258.482C256.933 18.4111 256.158 18.8646 256.158 19.7715C256.158 20.168 256.29 20.4779 256.555 20.7012C256.819 20.9245 257.159 21.0361 257.573 21.0361ZM264.095 22H262.83V11.5H264.095V22ZM270.432 20.0381C270.432 19.6963 270.302 19.432 270.042 19.2451C269.787 19.0537 269.338 18.8896 268.695 18.7529C268.057 18.6162 267.549 18.4521 267.171 18.2607C266.797 18.0693 266.519 17.8415 266.337 17.5771C266.159 17.3128 266.07 16.9984 266.07 16.6338C266.07 16.0277 266.326 15.515 266.836 15.0957C267.351 14.6764 268.007 14.4668 268.805 14.4668C269.643 14.4668 270.322 14.6833 270.842 15.1162C271.366 15.5492 271.628 16.1029 271.628 16.7773H270.356C270.356 16.431 270.208 16.1325 269.912 15.8818C269.62 15.6312 269.251 15.5059 268.805 15.5059C268.344 15.5059 267.984 15.6061 267.725 15.8066C267.465 16.0072 267.335 16.2692 267.335 16.5928C267.335 16.8981 267.456 17.1283 267.697 17.2832C267.939 17.4382 268.374 17.5863 269.003 17.7275C269.636 17.8688 270.149 18.0374 270.541 18.2334C270.933 18.4294 271.222 18.6663 271.409 18.9443C271.601 19.2178 271.696 19.5527 271.696 19.9492C271.696 20.61 271.432 21.141 270.903 21.542C270.375 21.9385 269.689 22.1367 268.846 22.1367C268.253 22.1367 267.729 22.0319 267.273 21.8223C266.818 21.6126 266.46 21.321 266.2 20.9473C265.945 20.569 265.817 20.1611 265.817 19.7236H267.082C267.105 20.1475 267.273 20.4847 267.588 20.7354C267.907 20.9814 268.326 21.1045 268.846 21.1045C269.324 21.1045 269.707 21.0088 269.994 20.8174C270.286 20.6214 270.432 20.3617 270.432 20.0381ZM278.19 22H276.926V14.6035H278.19V22ZM276.823 12.6416C276.823 12.4365 276.885 12.2633 277.008 12.1221C277.135 11.9808 277.322 11.9102 277.568 11.9102C277.814 11.9102 278.001 11.9808 278.129 12.1221C278.257 12.2633 278.32 12.4365 278.32 12.6416C278.32 12.8467 278.257 13.0176 278.129 13.1543C278.001 13.291 277.814 13.3594 277.568 13.3594C277.322 13.3594 277.135 13.291 277.008 13.1543C276.885 13.0176 276.823 12.8467 276.823 12.6416ZM281.417 14.6035L281.458 15.5332C282.023 14.8223 282.761 14.4668 283.673 14.4668C285.236 14.4668 286.024 15.3486 286.038 17.1123V22H284.773V17.1055C284.769 16.5723 284.646 16.1781 284.404 15.9229C284.167 15.6676 283.796 15.54 283.29 15.54C282.88 15.54 282.52 15.6494 282.21 15.8682C281.9 16.0869 281.659 16.374 281.485 16.7295V22H280.221V14.6035H281.417ZM293.024 22H291.712V12.0469H293.024V22ZM296.429 14.6035L296.47 15.5332C297.035 14.8223 297.773 14.4668 298.685 14.4668C300.248 14.4668 301.036 15.3486 301.05 17.1123V22H299.785V17.1055C299.781 16.5723 299.658 16.1781 299.416 15.9229C299.179 15.6676 298.808 15.54 298.302 15.54C297.892 15.54 297.532 15.6494 297.222 15.8682C296.912 16.0869 296.67 16.374 296.497 16.7295V22H295.232V14.6035H296.429ZM302.649 18.2402C302.649 17.1055 302.918 16.194 303.456 15.5059C303.994 14.8132 304.698 14.4668 305.568 14.4668C306.434 14.4668 307.12 14.763 307.626 15.3555V11.5H308.891V22H307.729L307.667 21.207C307.161 21.8268 306.457 22.1367 305.555 22.1367C304.698 22.1367 303.998 21.7858 303.456 21.084C302.918 20.3822 302.649 19.4661 302.649 18.3359V18.2402ZM303.914 18.3838C303.914 19.2223 304.087 19.8786 304.434 20.3525C304.78 20.8265 305.258 21.0635 305.869 21.0635C306.671 21.0635 307.257 20.7035 307.626 19.9834V16.5859C307.248 15.8887 306.667 15.54 305.883 15.54C305.263 15.54 304.78 15.7793 304.434 16.2578C304.087 16.7363 303.914 17.445 303.914 18.3838ZM310.524 18.2334C310.524 17.5088 310.666 16.8571 310.948 16.2783C311.235 15.6995 311.632 15.2529 312.138 14.9385C312.648 14.624 313.229 14.4668 313.881 14.4668C314.888 14.4668 315.701 14.8154 316.321 15.5127C316.946 16.21 317.258 17.1374 317.258 18.2949V18.3838C317.258 19.1038 317.119 19.751 316.841 20.3252C316.567 20.8949 316.173 21.3392 315.658 21.6582C315.148 21.9772 314.56 22.1367 313.895 22.1367C312.892 22.1367 312.078 21.7881 311.454 21.0908C310.834 20.3936 310.524 19.4707 310.524 18.3223V18.2334ZM311.796 18.3838C311.796 19.2041 311.985 19.8626 312.363 20.3594C312.746 20.8561 313.257 21.1045 313.895 21.1045C314.537 21.1045 315.048 20.8538 315.426 20.3525C315.804 19.8467 315.993 19.1403 315.993 18.2334C315.993 17.4222 315.799 16.766 315.412 16.2646C315.029 15.7588 314.519 15.5059 313.881 15.5059C313.257 15.5059 312.753 15.7542 312.37 16.251C311.987 16.7477 311.796 17.4587 311.796 18.3838ZM320.04 14.6035L320.081 15.5332C320.646 14.8223 321.384 14.4668 322.296 14.4668C323.859 14.4668 324.647 15.3486 324.661 17.1123V22H323.396V17.1055C323.392 16.5723 323.269 16.1781 323.027 15.9229C322.79 15.6676 322.419 15.54 321.913 15.54C321.503 15.54 321.143 15.6494 320.833 15.8682C320.523 16.0869 320.282 16.374 320.108 16.7295V22H318.844V14.6035H320.04ZM329.638 22.1367C328.635 22.1367 327.819 21.8086 327.19 21.1523C326.562 20.4915 326.247 19.6097 326.247 18.5068V18.2744C326.247 17.5407 326.386 16.8867 326.664 16.3125C326.947 15.7337 327.339 15.2826 327.84 14.959C328.346 14.6309 328.893 14.4668 329.48 14.4668C330.442 14.4668 331.189 14.7835 331.723 15.417C332.256 16.0505 332.522 16.9574 332.522 18.1377V18.6641H327.512C327.53 19.3932 327.742 19.9834 328.147 20.4346C328.558 20.8812 329.077 21.1045 329.706 21.1045C330.153 21.1045 330.531 21.0133 330.841 20.8311C331.151 20.6488 331.422 20.4072 331.654 20.1064L332.427 20.708C331.807 21.6605 330.877 22.1367 329.638 22.1367ZM329.48 15.5059C328.97 15.5059 328.542 15.6927 328.195 16.0664C327.849 16.4355 327.635 16.9551 327.553 17.625H331.258V17.5293C331.221 16.8867 331.048 16.39 330.738 16.0391C330.428 15.6836 330.009 15.5059 329.48 15.5059ZM338.299 20.0381C338.299 19.6963 338.169 19.432 337.909 19.2451C337.654 19.0537 337.205 18.8896 336.562 18.7529C335.924 18.6162 335.416 18.4521 335.038 18.2607C334.664 18.0693 334.386 17.8415 334.204 17.5771C334.026 17.3128 333.938 16.9984 333.938 16.6338C333.938 16.0277 334.193 15.515 334.703 15.0957C335.218 14.6764 335.874 14.4668 336.672 14.4668C337.51 14.4668 338.189 14.6833 338.709 15.1162C339.233 15.5492 339.495 16.1029 339.495 16.7773H338.224C338.224 16.431 338.076 16.1325 337.779 15.8818C337.488 15.6312 337.118 15.5059 336.672 15.5059C336.212 15.5059 335.852 15.6061 335.592 15.8066C335.332 16.0072 335.202 16.2692 335.202 16.5928C335.202 16.8981 335.323 17.1283 335.564 17.2832C335.806 17.4382 336.241 17.5863 336.87 17.7275C337.504 17.8688 338.016 18.0374 338.408 18.2334C338.8 18.4294 339.09 18.6663 339.276 18.9443C339.468 19.2178 339.563 19.5527 339.563 19.9492C339.563 20.61 339.299 21.141 338.771 21.542C338.242 21.9385 337.556 22.1367 336.713 22.1367C336.12 22.1367 335.596 22.0319 335.141 21.8223C334.685 21.6126 334.327 21.321 334.067 20.9473C333.812 20.569 333.685 20.1611 333.685 19.7236H334.949C334.972 20.1475 335.141 20.4847 335.455 20.7354C335.774 20.9814 336.193 21.1045 336.713 21.1045C337.191 21.1045 337.574 21.0088 337.861 20.8174C338.153 20.6214 338.299 20.3617 338.299 20.0381ZM342.585 22H341.32V14.6035H342.585V22ZM341.218 12.6416C341.218 12.4365 341.279 12.2633 341.402 12.1221C341.53 11.9808 341.717 11.9102 341.963 11.9102C342.209 11.9102 342.396 11.9808 342.523 12.1221C342.651 12.2633 342.715 12.4365 342.715 12.6416C342.715 12.8467 342.651 13.0176 342.523 13.1543C342.396 13.291 342.209 13.3594 341.963 13.3594C341.717 13.3594 341.53 13.291 341.402 13.1543C341.279 13.0176 341.218 12.8467 341.218 12.6416ZM349.182 22C349.109 21.8542 349.049 21.5944 349.004 21.2207C348.416 21.8314 347.714 22.1367 346.898 22.1367C346.169 22.1367 345.57 21.9316 345.101 21.5215C344.636 21.1068 344.403 20.5827 344.403 19.9492C344.403 19.179 344.695 18.582 345.278 18.1582C345.866 17.7298 346.691 17.5156 347.753 17.5156H348.983V16.9346C348.983 16.4925 348.851 16.1416 348.587 15.8818C348.323 15.6175 347.933 15.4854 347.418 15.4854C346.967 15.4854 346.589 15.5993 346.283 15.8271C345.978 16.055 345.825 16.3307 345.825 16.6543H344.554C344.554 16.2852 344.684 15.9297 344.943 15.5879C345.208 15.2415 345.563 14.9681 346.01 14.7676C346.461 14.5671 346.955 14.4668 347.493 14.4668C348.345 14.4668 349.013 14.681 349.496 15.1094C349.979 15.5332 350.23 16.1188 350.248 16.8662V20.2705C350.248 20.9495 350.335 21.4896 350.508 21.8906V22H349.182ZM347.083 21.0361C347.479 21.0361 347.855 20.9336 348.211 20.7285C348.566 20.5234 348.824 20.2568 348.983 19.9287V18.4111H347.992C346.443 18.4111 345.668 18.8646 345.668 19.7715C345.668 20.168 345.8 20.4779 346.064 20.7012C346.329 20.9245 346.668 21.0361 347.083 21.0361ZM352.183 17.96C352.183 16.93 352.319 15.9411 352.593 14.9932C352.871 14.0452 353.283 13.1839 353.83 12.4092C354.377 11.6344 354.944 11.0876 355.532 10.7686L355.792 11.6025C355.127 12.113 354.58 12.8923 354.151 13.9404C353.728 14.9886 353.495 16.1621 353.454 17.4609L353.447 18.042C353.447 19.8011 353.769 21.3278 354.411 22.6221C354.799 23.3968 355.259 24.0029 355.792 24.4404L355.532 25.2129C354.926 24.8757 354.347 24.3105 353.796 23.5176C352.72 21.9681 352.183 20.1156 352.183 17.96ZM358.39 22H357.125V14.6035H358.39V22ZM357.022 12.6416C357.022 12.4365 357.084 12.2633 357.207 12.1221C357.335 11.9808 357.521 11.9102 357.768 11.9102C358.014 11.9102 358.201 11.9808 358.328 12.1221C358.456 12.2633 358.52 12.4365 358.52 12.6416C358.52 12.8467 358.456 13.0176 358.328 13.1543C358.201 13.291 358.014 13.3594 357.768 13.3594C357.521 13.3594 357.335 13.291 357.207 13.1543C357.084 13.0176 357.022 12.8467 357.022 12.6416ZM361.616 14.6035L361.657 15.5332C362.222 14.8223 362.961 14.4668 363.872 14.4668C365.435 14.4668 366.224 15.3486 366.237 17.1123V22H364.973V17.1055C364.968 16.5723 364.845 16.1781 364.604 15.9229C364.367 15.6676 363.995 15.54 363.489 15.54C363.079 15.54 362.719 15.6494 362.409 15.8682C362.099 16.0869 361.858 16.374 361.685 16.7295V22H360.42V14.6035H361.616ZM372.807 14.6035L372.841 15.4238C373.383 14.7858 374.115 14.4668 375.035 14.4668C376.07 14.4668 376.774 14.8633 377.147 15.6562C377.394 15.3008 377.713 15.0137 378.104 14.7949C378.501 14.5762 378.968 14.4668 379.506 14.4668C381.128 14.4668 381.953 15.3258 381.98 17.0439V22H380.716V17.1191C380.716 16.5905 380.595 16.1963 380.354 15.9365C380.112 15.6722 379.706 15.54 379.137 15.54C378.667 15.54 378.278 15.6813 377.968 15.9639C377.658 16.2419 377.478 16.6178 377.428 17.0918V22H376.156V17.1533C376.156 16.0778 375.63 15.54 374.577 15.54C373.748 15.54 373.18 15.8932 372.875 16.5996V22H371.61V14.6035H372.807ZM385.269 22H384.004V14.6035H385.269V22ZM383.901 12.6416C383.901 12.4365 383.963 12.2633 384.086 12.1221C384.214 11.9808 384.4 11.9102 384.646 11.9102C384.893 11.9102 385.079 11.9808 385.207 12.1221C385.335 12.2633 385.398 12.4365 385.398 12.6416C385.398 12.8467 385.335 13.0176 385.207 13.1543C385.079 13.291 384.893 13.3594 384.646 13.3594C384.4 13.3594 384.214 13.291 384.086 13.1543C383.963 13.0176 383.901 12.8467 383.901 12.6416ZM388.673 22H387.408V11.5H388.673V22ZM392.077 22H390.812V11.5H392.077V22ZM395.481 22H394.217V14.6035H395.481V22ZM394.114 12.6416C394.114 12.4365 394.176 12.2633 394.299 12.1221C394.426 11.9808 394.613 11.9102 394.859 11.9102C395.105 11.9102 395.292 11.9808 395.42 12.1221C395.548 12.2633 395.611 12.4365 395.611 12.6416C395.611 12.8467 395.548 13.0176 395.42 13.1543C395.292 13.291 395.105 13.3594 394.859 13.3594C394.613 13.3594 394.426 13.291 394.299 13.1543C394.176 13.0176 394.114 12.8467 394.114 12.6416ZM397.177 18.2334C397.177 17.5088 397.318 16.8571 397.601 16.2783C397.888 15.6995 398.284 15.2529 398.79 14.9385C399.3 14.624 399.882 14.4668 400.533 14.4668C401.54 14.4668 402.354 14.8154 402.974 15.5127C403.598 16.21 403.91 17.1374 403.91 18.2949V18.3838C403.91 19.1038 403.771 19.751 403.493 20.3252C403.22 20.8949 402.826 21.3392 402.311 21.6582C401.8 21.9772 401.212 22.1367 400.547 22.1367C399.544 22.1367 398.731 21.7881 398.106 21.0908C397.487 20.3936 397.177 19.4707 397.177 18.3223V18.2334ZM398.448 18.3838C398.448 19.2041 398.637 19.8626 399.016 20.3594C399.398 20.8561 399.909 21.1045 400.547 21.1045C401.189 21.1045 401.7 20.8538 402.078 20.3525C402.456 19.8467 402.646 19.1403 402.646 18.2334C402.646 17.4222 402.452 16.766 402.064 16.2646C401.682 15.7588 401.171 15.5059 400.533 15.5059C399.909 15.5059 399.405 15.7542 399.022 16.251C398.64 16.7477 398.448 17.4587 398.448 18.3838ZM406.692 14.6035L406.733 15.5332C407.299 14.8223 408.037 14.4668 408.948 14.4668C410.511 14.4668 411.3 15.3486 411.313 17.1123V22H410.049V17.1055C410.044 16.5723 409.921 16.1781 409.68 15.9229C409.443 15.6676 409.071 15.54 408.565 15.54C408.155 15.54 407.795 15.6494 407.485 15.8682C407.175 16.0869 406.934 16.374 406.761 16.7295V22H405.496V14.6035H406.692ZM416.14 18.0283C416.14 19.0446 416.005 20.0199 415.736 20.9541C415.472 21.8838 415.064 22.7428 414.513 23.5312C413.966 24.3197 413.392 24.8802 412.79 25.2129L412.523 24.4404C413.225 23.9027 413.788 23.0687 414.212 21.9385C414.64 20.8037 414.859 19.5459 414.868 18.165V17.9463C414.868 16.9893 414.768 16.1006 414.567 15.2803C414.367 14.4554 414.087 13.7171 413.727 13.0654C413.371 12.4137 412.97 11.9056 412.523 11.541L412.79 10.7686C413.392 11.1012 413.964 11.6572 414.506 12.4365C415.053 13.2158 415.461 14.0749 415.729 15.0137C416.003 15.9525 416.14 16.9574 416.14 18.0283Z" fill="#7C6755"/>
<path d="M92.3486 353H85.8271V352.091L89.2725 348.263C89.7829 347.684 90.1338 347.215 90.3252 346.854C90.5212 346.49 90.6191 346.114 90.6191 345.727C90.6191 345.207 90.4619 344.781 90.1475 344.448C89.833 344.116 89.4137 343.949 88.8896 343.949C88.2607 343.949 87.7708 344.129 87.4199 344.489C87.0736 344.845 86.9004 345.341 86.9004 345.979H85.6357C85.6357 345.063 85.9297 344.323 86.5176 343.758C87.11 343.193 87.9007 342.91 88.8896 342.91C89.8148 342.91 90.5462 343.154 91.084 343.642C91.6217 344.125 91.8906 344.77 91.8906 345.576C91.8906 346.556 91.2663 347.723 90.0176 349.076L87.3516 351.968H92.3486V353ZM99.9297 348.755C99.9297 350.236 99.6768 351.337 99.1709 352.057C98.665 352.777 97.8743 353.137 96.7988 353.137C95.737 353.137 94.9508 352.786 94.4404 352.084C93.93 351.378 93.6657 350.325 93.6475 348.926V347.237C93.6475 345.774 93.9004 344.688 94.4062 343.977C94.9121 343.266 95.7051 342.91 96.7852 342.91C97.8561 342.91 98.6445 343.254 99.1504 343.942C99.6562 344.626 99.916 345.683 99.9297 347.114V348.755ZM98.665 347.025C98.665 345.954 98.5146 345.175 98.2139 344.688C97.9131 344.195 97.4368 343.949 96.7852 343.949C96.138 343.949 95.6663 344.193 95.3701 344.681C95.0739 345.168 94.9212 345.918 94.9121 346.93V348.953C94.9121 350.029 95.0671 350.824 95.377 351.339C95.6914 351.849 96.1654 352.104 96.7988 352.104C97.4232 352.104 97.8857 351.863 98.1865 351.38C98.4919 350.897 98.6514 350.136 98.665 349.097V347.025ZM105.706 353H104.435V344.571L101.885 345.508V344.359L105.508 342.999H105.706V353ZM111.25 347.408H112.2C112.797 347.399 113.267 347.242 113.608 346.937C113.95 346.631 114.121 346.219 114.121 345.699C114.121 344.533 113.54 343.949 112.378 343.949C111.831 343.949 111.394 344.106 111.065 344.421C110.742 344.731 110.58 345.143 110.58 345.658H109.315C109.315 344.87 109.603 344.216 110.177 343.696C110.756 343.172 111.489 342.91 112.378 342.91C113.317 342.91 114.053 343.159 114.586 343.655C115.119 344.152 115.386 344.842 115.386 345.727C115.386 346.16 115.244 346.579 114.962 346.984C114.684 347.39 114.303 347.693 113.82 347.894C114.367 348.067 114.789 348.354 115.085 348.755C115.386 349.156 115.536 349.646 115.536 350.225C115.536 351.118 115.244 351.826 114.661 352.351C114.078 352.875 113.319 353.137 112.385 353.137C111.451 353.137 110.689 352.884 110.102 352.378C109.518 351.872 109.227 351.204 109.227 350.375H110.498C110.498 350.899 110.669 351.318 111.011 351.633C111.353 351.947 111.811 352.104 112.385 352.104C112.995 352.104 113.463 351.945 113.786 351.626C114.11 351.307 114.271 350.849 114.271 350.252C114.271 349.673 114.094 349.229 113.738 348.919C113.383 348.609 112.87 348.45 112.2 348.44H111.25V347.408Z" fill="#7C6755"/>
<path d="M9.86328 297.645C9.86328 298.141 9.73112 298.583 9.4668 298.971C9.20703 299.358 8.85384 299.661 8.40723 299.88C8.92676 300.103 9.33691 300.429 9.6377 300.857C9.94303 301.286 10.0957 301.771 10.0957 302.313C10.0957 303.175 9.80404 303.861 9.2207 304.371C8.64193 304.882 7.87858 305.137 6.93066 305.137C5.97363 305.137 5.20573 304.882 4.62695 304.371C4.05273 303.856 3.76562 303.17 3.76562 302.313C3.76562 301.776 3.91146 301.29 4.20312 300.857C4.49935 300.424 4.90723 300.096 5.42676 299.873C4.9847 299.654 4.63607 299.351 4.38086 298.964C4.12565 298.576 3.99805 298.137 3.99805 297.645C3.99805 296.806 4.26693 296.141 4.80469 295.648C5.34245 295.156 6.05111 294.91 6.93066 294.91C7.80566 294.91 8.51204 295.156 9.0498 295.648C9.59212 296.141 9.86328 296.806 9.86328 297.645ZM8.83105 302.286C8.83105 301.73 8.65332 301.277 8.29785 300.926C7.94694 300.575 7.48665 300.399 6.91699 300.399C6.34733 300.399 5.88932 300.573 5.54297 300.919C5.20117 301.265 5.03027 301.721 5.03027 302.286C5.03027 302.851 5.19661 303.296 5.5293 303.619C5.86654 303.943 6.33366 304.104 6.93066 304.104C7.52311 304.104 7.98796 303.943 8.3252 303.619C8.66243 303.291 8.83105 302.847 8.83105 302.286ZM6.93066 295.949C6.43392 295.949 6.0306 296.104 5.7207 296.414C5.41536 296.719 5.2627 297.136 5.2627 297.665C5.2627 298.171 5.41309 298.581 5.71387 298.896C6.01921 299.205 6.4248 299.36 6.93066 299.36C7.43652 299.36 7.83984 299.205 8.14062 298.896C8.44596 298.581 8.59863 298.171 8.59863 297.665C8.59863 297.159 8.44141 296.747 8.12695 296.428C7.8125 296.109 7.41374 295.949 6.93066 295.949ZM11.8457 304.337C11.8457 304.118 11.9095 303.936 12.0371 303.79C12.1693 303.644 12.3652 303.571 12.625 303.571C12.8848 303.571 13.0807 303.644 13.2129 303.79C13.3496 303.936 13.418 304.118 13.418 304.337C13.418 304.547 13.3496 304.722 13.2129 304.863C13.0807 305.005 12.8848 305.075 12.625 305.075C12.3652 305.075 12.1693 305.005 12.0371 304.863C11.9095 304.722 11.8457 304.547 11.8457 304.337ZM21.6211 300.755C21.6211 302.236 21.3682 303.337 20.8623 304.057C20.3564 304.777 19.5658 305.137 18.4902 305.137C17.4284 305.137 16.6423 304.786 16.1318 304.084C15.6214 303.378 15.3571 302.325 15.3389 300.926V299.237C15.3389 297.774 15.5918 296.688 16.0977 295.977C16.6035 295.266 17.3965 294.91 18.4766 294.91C19.5475 294.91 20.3359 295.254 20.8418 295.942C21.3477 296.626 21.6074 297.683 21.6211 299.114V300.755ZM20.3564 299.025C20.3564 297.954 20.2061 297.175 19.9053 296.688C19.6045 296.195 19.1283 295.949 18.4766 295.949C17.8294 295.949 17.3577 296.193 17.0615 296.681C16.7653 297.168 16.6126 297.918 16.6035 298.93V300.953C16.6035 302.029 16.7585 302.824 17.0684 303.339C17.3828 303.849 17.8568 304.104 18.4902 304.104C19.1146 304.104 19.5771 303.863 19.8779 303.38C20.1833 302.897 20.3428 302.136 20.3564 301.097V299.025ZM29.4824 300.755C29.4824 302.236 29.2295 303.337 28.7236 304.057C28.2178 304.777 27.4271 305.137 26.3516 305.137C25.2897 305.137 24.5036 304.786 23.9932 304.084C23.4827 303.378 23.2184 302.325 23.2002 300.926V299.237C23.2002 297.774 23.4531 296.688 23.959 295.977C24.4648 295.266 25.2578 294.91 26.3379 294.91C27.4089 294.91 28.1973 295.254 28.7031 295.942C29.209 296.626 29.4688 297.683 29.4824 299.114V300.755ZM28.2178 299.025C28.2178 297.954 28.0674 297.175 27.7666 296.688C27.4658 296.195 26.9896 295.949 26.3379 295.949C25.6908 295.949 25.2191 296.193 24.9229 296.681C24.6266 297.168 24.474 297.918 24.4648 298.93V300.953C24.4648 302.029 24.6198 302.824 24.9297 303.339C25.2441 303.849 25.7181 304.104 26.3516 304.104C26.9759 304.104 27.4385 303.863 27.7393 303.38C28.0446 302.897 28.2041 302.136 28.2178 301.097V299.025Z" fill="#7C6755"/>
<path d="M4.9834 250H3.71191V241.571L1.16211 242.508V241.359L4.78516 239.999H4.9834V250ZM14.9297 245.755C14.9297 247.236 14.6768 248.337 14.1709 249.057C13.665 249.777 12.8743 250.137 11.7988 250.137C10.737 250.137 9.95085 249.786 9.44043 249.084C8.93001 248.378 8.66569 247.325 8.64746 245.926V244.237C8.64746 242.774 8.90039 241.688 9.40625 240.977C9.91211 240.266 10.7051 239.91 11.7852 239.91C12.8561 239.91 13.6445 240.254 14.1504 240.942C14.6562 241.626 14.916 242.683 14.9297 244.114V245.755ZM13.665 244.025C13.665 242.954 13.5146 242.175 13.2139 241.688C12.9131 241.195 12.4368 240.949 11.7852 240.949C11.138 240.949 10.6663 241.193 10.3701 241.681C10.0739 242.168 9.92122 242.918 9.91211 243.93V245.953C9.91211 247.029 10.0671 247.824 10.377 248.339C10.6914 248.849 11.1654 249.104 11.7988 249.104C12.4232 249.104 12.8857 248.863 13.1865 248.38C13.4919 247.897 13.6514 247.136 13.665 246.097V244.025ZM16.707 249.337C16.707 249.118 16.7708 248.936 16.8984 248.79C17.0306 248.644 17.2266 248.571 17.4863 248.571C17.7461 248.571 17.9421 248.644 18.0742 248.79C18.2109 248.936 18.2793 249.118 18.2793 249.337C18.2793 249.547 18.2109 249.722 18.0742 249.863C17.9421 250.005 17.7461 250.075 17.4863 250.075C17.2266 250.075 17.0306 250.005 16.8984 249.863C16.7708 249.722 16.707 249.547 16.707 249.337ZM26.4824 245.755C26.4824 247.236 26.2295 248.337 25.7236 249.057C25.2178 249.777 24.4271 250.137 23.3516 250.137C22.2897 250.137 21.5036 249.786 20.9932 249.084C20.4827 248.378 20.2184 247.325 20.2002 245.926V244.237C20.2002 242.774 20.4531 241.688 20.959 240.977C21.4648 240.266 22.2578 239.91 23.3379 239.91C24.4089 239.91 25.1973 240.254 25.7031 240.942C26.209 241.626 26.4688 242.683 26.4824 244.114V245.755ZM25.2178 244.025C25.2178 242.954 25.0674 242.175 24.7666 241.688C24.4658 241.195 23.9896 240.949 23.3379 240.949C22.6908 240.949 22.2191 241.193 21.9229 241.681C21.6266 242.168 21.474 242.918 21.4648 243.93V245.953C21.4648 247.029 21.6198 247.824 21.9297 248.339C22.2441 248.849 22.7181 249.104 23.3516 249.104C23.9759 249.104 24.4385 248.863 24.7393 248.38C25.0446 247.897 25.2041 247.136 25.2178 246.097V244.025ZM34.3438 245.755C34.3438 247.236 34.0908 248.337 33.585 249.057C33.0791 249.777 32.2884 250.137 31.2129 250.137C30.151 250.137 29.3649 249.786 28.8545 249.084C28.3441 248.378 28.0798 247.325 28.0615 245.926V244.237C28.0615 242.774 28.3145 241.688 28.8203 240.977C29.3262 240.266 30.1191 239.91 31.1992 239.91C32.2702 239.91 33.0586 240.254 33.5645 240.942C34.0703 241.626 34.3301 242.683 34.3438 244.114V245.755ZM33.0791 244.025C33.0791 242.954 32.9287 242.175 32.6279 241.688C32.3271 241.195 31.8509 240.949 31.1992 240.949C30.5521 240.949 30.0804 241.193 29.7842 241.681C29.488 242.168 29.3353 242.918 29.3262 243.93V245.953C29.3262 247.029 29.4811 247.824 29.791 248.339C30.1055 248.849 30.5794 249.104 31.2129 249.104C31.8372 249.104 32.2998 248.863 32.6006 248.38C32.9059 247.897 33.0654 247.136 33.0791 246.097V244.025Z" fill="#7C6755"/>
<path d="M4.9834 194H3.71191V185.571L1.16211 186.508V185.359L4.78516 183.999H4.9834V194ZM15.21 194H8.68848V193.091L12.1338 189.263C12.6442 188.684 12.9951 188.215 13.1865 187.854C13.3825 187.49 13.4805 187.114 13.4805 186.727C13.4805 186.207 13.3232 185.781 13.0088 185.448C12.6943 185.116 12.2751 184.949 11.751 184.949C11.1221 184.949 10.6322 185.129 10.2812 185.489C9.9349 185.845 9.76172 186.341 9.76172 186.979H8.49707C8.49707 186.063 8.79102 185.323 9.37891 184.758C9.97135 184.193 10.762 183.91 11.751 183.91C12.6761 183.91 13.4076 184.154 13.9453 184.642C14.4831 185.125 14.752 185.77 14.752 186.576C14.752 187.556 14.1276 188.723 12.8789 190.076L10.2129 192.968H15.21V194ZM16.707 193.337C16.707 193.118 16.7708 192.936 16.8984 192.79C17.0306 192.644 17.2266 192.571 17.4863 192.571C17.7461 192.571 17.9421 192.644 18.0742 192.79C18.2109 192.936 18.2793 193.118 18.2793 193.337C18.2793 193.547 18.2109 193.722 18.0742 193.863C17.9421 194.005 17.7461 194.075 17.4863 194.075C17.2266 194.075 17.0306 194.005 16.8984 193.863C16.7708 193.722 16.707 193.547 16.707 193.337ZM26.4824 189.755C26.4824 191.236 26.2295 192.337 25.7236 193.057C25.2178 193.777 24.4271 194.137 23.3516 194.137C22.2897 194.137 21.5036 193.786 20.9932 193.084C20.4827 192.378 20.2184 191.325 20.2002 189.926V188.237C20.2002 186.774 20.4531 185.688 20.959 184.977C21.4648 184.266 22.2578 183.91 23.3379 183.91C24.4089 183.91 25.1973 184.254 25.7031 184.942C26.209 185.626 26.4688 186.683 26.4824 188.114V189.755ZM25.2178 188.025C25.2178 186.954 25.0674 186.175 24.7666 185.688C24.4658 185.195 23.9896 184.949 23.3379 184.949C22.6908 184.949 22.2191 185.193 21.9229 185.681C21.6266 186.168 21.474 186.918 21.4648 187.93V189.953C21.4648 191.029 21.6198 191.824 21.9297 192.339C22.2441 192.849 22.7181 193.104 23.3516 193.104C23.9759 193.104 24.4385 192.863 24.7393 192.38C25.0446 191.897 25.2041 191.136 25.2178 190.097V188.025ZM34.3438 189.755C34.3438 191.236 34.0908 192.337 33.585 193.057C33.0791 193.777 32.2884 194.137 31.2129 194.137C30.151 194.137 29.3649 193.786 28.8545 193.084C28.3441 192.378 28.0798 191.325 28.0615 189.926V188.237C28.0615 186.774 28.3145 185.688 28.8203 184.977C29.3262 184.266 30.1191 183.91 31.1992 183.91C32.2702 183.91 33.0586 184.254 33.5645 184.942C34.0703 185.626 34.3301 186.683 34.3438 188.114V189.755ZM33.0791 188.025C33.0791 186.954 32.9287 186.175 32.6279 185.688C32.3271 185.195 31.8509 184.949 31.1992 184.949C30.5521 184.949 30.0804 185.193 29.7842 185.681C29.488 186.168 29.3353 186.918 29.3262 187.93V189.953C29.3262 191.029 29.4811 191.824 29.791 192.339C30.1055 192.849 30.5794 193.104 31.2129 193.104C31.8372 193.104 32.2998 192.863 32.6006 192.38C32.9059 191.897 33.0654 191.136 33.0791 190.097V188.025Z" fill="#7C6755"/>
<path d="M4.98341 138H3.71192V129.571L1.16212 130.508V129.359L4.78516 127.999H4.98341V138ZM14.0274 134.657H15.4082V135.689H14.0274V138H12.7559V135.689H8.22364V134.944L12.6807 128.047H14.0274V134.657ZM9.65919 134.657H12.7559V129.776L12.6055 130.05L9.65919 134.657ZM16.707 137.337C16.707 137.118 16.7708 136.936 16.8984 136.79C17.0306 136.644 17.2266 136.571 17.4863 136.571C17.7461 136.571 17.9421 136.644 18.0742 136.79C18.2109 136.936 18.2793 137.118 18.2793 137.337C18.2793 137.547 18.2109 137.722 18.0742 137.863C17.9421 138.005 17.7461 138.075 17.4863 138.075C17.2266 138.075 17.0306 138.005 16.8984 137.863C16.7708 137.722 16.707 137.547 16.707 137.337ZM26.4824 133.755C26.4824 135.236 26.2295 136.337 25.7236 137.057C25.2178 137.777 24.4271 138.137 23.3516 138.137C22.2897 138.137 21.5036 137.786 20.9932 137.084C20.4828 136.378 20.2184 135.325 20.2002 133.926V132.237C20.2002 130.774 20.4531 129.688 20.959 128.977C21.4649 128.266 22.2578 127.91 23.3379 127.91C24.4089 127.91 25.1973 128.254 25.7031 128.942C26.209 129.626 26.4688 130.683 26.4824 132.114V133.755ZM25.2178 132.025C25.2178 130.954 25.0674 130.175 24.7666 129.688C24.4658 129.195 23.9896 128.949 23.3379 128.949C22.6908 128.949 22.2191 129.193 21.9229 129.681C21.6266 130.168 21.474 130.918 21.4649 131.93V133.953C21.4649 135.029 21.6198 135.824 21.9297 136.339C22.2441 136.849 22.7181 137.104 23.3516 137.104C23.9759 137.104 24.4385 136.863 24.7393 136.38C25.0446 135.897 25.2041 135.136 25.2178 134.097V132.025ZM34.3438 133.755C34.3438 135.236 34.0908 136.337 33.585 137.057C33.0791 137.777 32.2884 138.137 31.2129 138.137C30.151 138.137 29.3649 137.786 28.8545 137.084C28.3441 136.378 28.0798 135.325 28.0615 133.926V132.237C28.0615 130.774 28.3145 129.688 28.8203 128.977C29.3262 128.266 30.1191 127.91 31.1992 127.91C32.2702 127.91 33.0586 128.254 33.5645 128.942C34.0703 129.626 34.3301 130.683 34.3438 132.114V133.755ZM33.0791 132.025C33.0791 130.954 32.9287 130.175 32.6279 129.688C32.3272 129.195 31.8509 128.949 31.1992 128.949C30.5521 128.949 30.0804 129.193 29.7842 129.681C29.488 130.168 29.3353 130.918 29.3262 131.93V133.953C29.3262 135.029 29.4811 135.824 29.791 136.339C30.1055 136.849 30.5794 137.104 31.2129 137.104C31.8372 137.104 32.2998 136.863 32.6006 136.38C32.9059 135.897 33.0654 135.136 33.0791 134.097V132.025Z" fill="#7C6755"/>
<path d="M4.9834 83H3.71191V74.5713L1.16211 75.5078V74.3594L4.78516 72.999H4.9834V83ZM13.6514 73.04V74.1133H13.4189C12.4346 74.1315 11.6507 74.4232 11.0674 74.9883C10.484 75.5534 10.1468 76.3486 10.0557 77.374C10.5798 76.7725 11.2952 76.4717 12.2021 76.4717C13.068 76.4717 13.7585 76.777 14.2734 77.3877C14.793 77.9984 15.0527 78.7868 15.0527 79.7529C15.0527 80.7783 14.7725 81.5986 14.2119 82.2139C13.6559 82.8291 12.9085 83.1367 11.9697 83.1367C11.0173 83.1367 10.2448 82.7721 9.65234 82.043C9.0599 81.3092 8.76367 80.3659 8.76367 79.2129V78.7275C8.76367 76.8955 9.15332 75.4964 9.93262 74.5303C10.7165 73.5596 11.8809 73.0628 13.4258 73.04H13.6514ZM11.9902 77.5244C11.5573 77.5244 11.1585 77.6543 10.7939 77.9141C10.4294 78.1738 10.1764 78.4997 10.0352 78.8916V79.3564C10.0352 80.1768 10.2197 80.8376 10.5889 81.3389C10.958 81.8402 11.4183 82.0908 11.9697 82.0908C12.5394 82.0908 12.986 81.8812 13.3096 81.4619C13.6377 81.0426 13.8018 80.4935 13.8018 79.8145C13.8018 79.1309 13.6354 78.5794 13.3027 78.1602C12.9746 77.7363 12.5371 77.5244 11.9902 77.5244ZM16.707 82.3369C16.707 82.1182 16.7708 81.9359 16.8984 81.79C17.0306 81.6442 17.2266 81.5713 17.4863 81.5713C17.7461 81.5713 17.9421 81.6442 18.0742 81.79C18.2109 81.9359 18.2793 82.1182 18.2793 82.3369C18.2793 82.5465 18.2109 82.722 18.0742 82.8633C17.9421 83.0046 17.7461 83.0752 17.4863 83.0752C17.2266 83.0752 17.0306 83.0046 16.8984 82.8633C16.7708 82.722 16.707 82.5465 16.707 82.3369ZM26.4824 78.7549C26.4824 80.236 26.2295 81.3366 25.7236 82.0566C25.2178 82.7767 24.4271 83.1367 23.3516 83.1367C22.2897 83.1367 21.5036 82.7858 20.9932 82.084C20.4827 81.3776 20.2184 80.3249 20.2002 78.9258V77.2373C20.2002 75.7744 20.4531 74.6875 20.959 73.9766C21.4648 73.2656 22.2578 72.9102 23.3379 72.9102C24.4089 72.9102 25.1973 73.2542 25.7031 73.9424C26.209 74.626 26.4688 75.6833 26.4824 77.1143V78.7549ZM25.2178 77.0254C25.2178 75.9544 25.0674 75.1751 24.7666 74.6875C24.4658 74.1953 23.9896 73.9492 23.3379 73.9492C22.6908 73.9492 22.2191 74.193 21.9229 74.6807C21.6266 75.1683 21.474 75.918 21.4648 76.9297V78.9531C21.4648 80.0286 21.6198 80.8239 21.9297 81.3389C22.2441 81.8493 22.7181 82.1045 23.3516 82.1045C23.9759 82.1045 24.4385 81.863 24.7393 81.3799C25.0446 80.8968 25.2041 80.1357 25.2178 79.0967V77.0254ZM34.3438 78.7549C34.3438 80.236 34.0908 81.3366 33.585 82.0566C33.0791 82.7767 32.2884 83.1367 31.2129 83.1367C30.151 83.1367 29.3649 82.7858 28.8545 82.084C28.3441 81.3776 28.0798 80.3249 28.0615 78.9258V77.2373C28.0615 75.7744 28.3145 74.6875 28.8203 73.9766C29.3262 73.2656 30.1191 72.9102 31.1992 72.9102C32.2702 72.9102 33.0586 73.2542 33.5645 73.9424C34.0703 74.626 34.3301 75.6833 34.3438 77.1143V78.7549ZM33.0791 77.0254C33.0791 75.9544 32.9287 75.1751 32.6279 74.6875C32.3271 74.1953 31.8509 73.9492 31.1992 73.9492C30.5521 73.9492 30.0804 74.193 29.7842 74.6807C29.488 75.1683 29.3353 75.918 29.3262 76.9297V78.9531C29.3262 80.0286 29.4811 80.8239 29.791 81.3389C30.1055 81.8493 30.5794 82.1045 31.2129 82.1045C31.8372 82.1045 32.2998 81.863 32.6006 81.3799C32.9059 80.8968 33.0654 80.1357 33.0791 79.0967V77.0254Z" fill="#7C6755"/>
<path d="M172.349 353H165.827V352.091L169.272 348.263C169.783 347.684 170.134 347.215 170.325 346.854C170.521 346.49 170.619 346.114 170.619 345.727C170.619 345.207 170.462 344.781 170.147 344.448C169.833 344.116 169.414 343.949 168.89 343.949C168.261 343.949 167.771 344.129 167.42 344.489C167.074 344.845 166.9 345.341 166.9 345.979H165.636C165.636 345.063 165.93 344.323 166.518 343.758C167.11 343.193 167.901 342.91 168.89 342.91C169.815 342.91 170.546 343.154 171.084 343.642C171.622 344.125 171.891 344.77 171.891 345.576C171.891 346.556 171.266 347.723 170.018 349.076L167.352 351.968H172.349V353ZM179.93 348.755C179.93 350.236 179.677 351.337 179.171 352.057C178.665 352.777 177.874 353.137 176.799 353.137C175.737 353.137 174.951 352.786 174.44 352.084C173.93 351.378 173.666 350.325 173.647 348.926V347.237C173.647 345.774 173.9 344.688 174.406 343.977C174.912 343.266 175.705 342.91 176.785 342.91C177.856 342.91 178.645 343.254 179.15 343.942C179.656 344.626 179.916 345.683 179.93 347.114V348.755ZM178.665 347.025C178.665 345.954 178.515 345.175 178.214 344.688C177.913 344.195 177.437 343.949 176.785 343.949C176.138 343.949 175.666 344.193 175.37 344.681C175.074 345.168 174.921 345.918 174.912 346.93V348.953C174.912 350.029 175.067 350.824 175.377 351.339C175.691 351.849 176.165 352.104 176.799 352.104C177.423 352.104 177.886 351.863 178.187 351.38C178.492 350.897 178.651 350.136 178.665 349.097V347.025ZM185.706 353H184.435V344.571L181.885 345.508V344.359L185.508 342.999H185.706V353ZM194.75 349.657H196.131V350.689H194.75V353H193.479V350.689H188.946V349.944L193.403 343.047H194.75V349.657ZM190.382 349.657H193.479V344.776L193.328 345.05L190.382 349.657Z" fill="#7C6755"/>
<path d="M252.349 353H245.827V352.091L249.272 348.263C249.783 347.684 250.134 347.215 250.325 346.854C250.521 346.49 250.619 346.114 250.619 345.727C250.619 345.207 250.462 344.781 250.147 344.448C249.833 344.116 249.414 343.949 248.89 343.949C248.261 343.949 247.771 344.129 247.42 344.489C247.074 344.845 246.9 345.341 246.9 345.979H245.636C245.636 345.063 245.93 344.323 246.518 343.758C247.11 343.193 247.901 342.91 248.89 342.91C249.815 342.91 250.546 343.154 251.084 343.642C251.622 344.125 251.891 344.77 251.891 345.576C251.891 346.556 251.266 347.723 250.018 349.076L247.352 351.968H252.349V353ZM259.93 348.755C259.93 350.236 259.677 351.337 259.171 352.057C258.665 352.777 257.874 353.137 256.799 353.137C255.737 353.137 254.951 352.786 254.44 352.084C253.93 351.378 253.666 350.325 253.647 348.926V347.237C253.647 345.774 253.9 344.688 254.406 343.977C254.912 343.266 255.705 342.91 256.785 342.91C257.856 342.91 258.645 343.254 259.15 343.942C259.656 344.626 259.916 345.683 259.93 347.114V348.755ZM258.665 347.025C258.665 345.954 258.515 345.175 258.214 344.688C257.913 344.195 257.437 343.949 256.785 343.949C256.138 343.949 255.666 344.193 255.37 344.681C255.074 345.168 254.921 345.918 254.912 346.93V348.953C254.912 350.029 255.067 350.824 255.377 351.339C255.691 351.849 256.165 352.104 256.799 352.104C257.423 352.104 257.886 351.863 258.187 351.38C258.492 350.897 258.651 350.136 258.665 349.097V347.025ZM265.706 353H264.435V344.571L261.885 345.508V344.359L265.508 342.999H265.706V353ZM269.992 348.01L270.498 343.047H275.598V344.216H271.571L271.271 346.93C271.758 346.643 272.312 346.499 272.932 346.499C273.839 346.499 274.559 346.8 275.092 347.401C275.625 347.998 275.892 348.807 275.892 349.828C275.892 350.854 275.614 351.662 275.058 352.255C274.506 352.843 273.734 353.137 272.74 353.137C271.861 353.137 271.143 352.893 270.587 352.405C270.031 351.918 269.714 351.243 269.637 350.382H270.833C270.91 350.951 271.113 351.382 271.441 351.674C271.77 351.961 272.202 352.104 272.74 352.104C273.328 352.104 273.788 351.904 274.121 351.503C274.458 351.102 274.627 350.548 274.627 349.842C274.627 349.176 274.445 348.643 274.08 348.242C273.72 347.837 273.239 347.634 272.638 347.634C272.086 347.634 271.653 347.755 271.339 347.996L271.004 348.27L269.992 348.01Z" fill="#7C6755"/>
<path d="M331.349 353H324.827V352.091L328.272 348.263C328.783 347.684 329.134 347.215 329.325 346.854C329.521 346.49 329.619 346.114 329.619 345.727C329.619 345.207 329.462 344.781 329.147 344.448C328.833 344.116 328.414 343.949 327.89 343.949C327.261 343.949 326.771 344.129 326.42 344.489C326.074 344.845 325.9 345.341 325.9 345.979H324.636C324.636 345.063 324.93 344.323 325.518 343.758C326.11 343.193 326.901 342.91 327.89 342.91C328.815 342.91 329.546 343.154 330.084 343.642C330.622 344.125 330.891 344.77 330.891 345.576C330.891 346.556 330.266 347.723 329.018 349.076L326.352 351.968H331.349V353ZM338.93 348.755C338.93 350.236 338.677 351.337 338.171 352.057C337.665 352.777 336.874 353.137 335.799 353.137C334.737 353.137 333.951 352.786 333.44 352.084C332.93 351.378 332.666 350.325 332.647 348.926V347.237C332.647 345.774 332.9 344.688 333.406 343.977C333.912 343.266 334.705 342.91 335.785 342.91C336.856 342.91 337.645 343.254 338.15 343.942C338.656 344.626 338.916 345.683 338.93 347.114V348.755ZM337.665 347.025C337.665 345.954 337.515 345.175 337.214 344.688C336.913 344.195 336.437 343.949 335.785 343.949C335.138 343.949 334.666 344.193 334.37 344.681C334.074 345.168 333.921 345.918 333.912 346.93V348.953C333.912 350.029 334.067 350.824 334.377 351.339C334.691 351.849 335.165 352.104 335.799 352.104C336.423 352.104 336.886 351.863 337.187 351.38C337.492 350.897 337.651 350.136 337.665 349.097V347.025ZM344.706 353H343.435V344.571L340.885 345.508V344.359L344.508 342.999H344.706V353ZM353.374 343.04V344.113H353.142C352.157 344.132 351.373 344.423 350.79 344.988C350.207 345.553 349.869 346.349 349.778 347.374C350.302 346.772 351.018 346.472 351.925 346.472C352.791 346.472 353.481 346.777 353.996 347.388C354.516 347.998 354.775 348.787 354.775 349.753C354.775 350.778 354.495 351.599 353.935 352.214C353.379 352.829 352.631 353.137 351.692 353.137C350.74 353.137 349.967 352.772 349.375 352.043C348.783 351.309 348.486 350.366 348.486 349.213V348.728C348.486 346.896 348.876 345.496 349.655 344.53C350.439 343.56 351.604 343.063 353.148 343.04H353.374ZM351.713 347.524C351.28 347.524 350.881 347.654 350.517 347.914C350.152 348.174 349.899 348.5 349.758 348.892V349.356C349.758 350.177 349.942 350.838 350.312 351.339C350.681 351.84 351.141 352.091 351.692 352.091C352.262 352.091 352.709 351.881 353.032 351.462C353.36 351.043 353.524 350.493 353.524 349.814C353.524 349.131 353.358 348.579 353.025 348.16C352.697 347.736 352.26 347.524 351.713 347.524Z" fill="#7C6755"/>
<path d="M411.349 353H404.827V352.091L408.272 348.263C408.783 347.684 409.134 347.215 409.325 346.854C409.521 346.49 409.619 346.114 409.619 345.727C409.619 345.207 409.462 344.781 409.147 344.448C408.833 344.116 408.414 343.949 407.89 343.949C407.261 343.949 406.771 344.129 406.42 344.489C406.074 344.845 405.9 345.341 405.9 345.979H404.636C404.636 345.063 404.93 344.323 405.518 343.758C406.11 343.193 406.901 342.91 407.89 342.91C408.815 342.91 409.546 343.154 410.084 343.642C410.622 344.125 410.891 344.77 410.891 345.576C410.891 346.556 410.266 347.723 409.018 349.076L406.352 351.968H411.349V353ZM418.93 348.755C418.93 350.236 418.677 351.337 418.171 352.057C417.665 352.777 416.874 353.137 415.799 353.137C414.737 353.137 413.951 352.786 413.44 352.084C412.93 351.378 412.666 350.325 412.647 348.926V347.237C412.647 345.774 412.9 344.688 413.406 343.977C413.912 343.266 414.705 342.91 415.785 342.91C416.856 342.91 417.645 343.254 418.15 343.942C418.656 344.626 418.916 345.683 418.93 347.114V348.755ZM417.665 347.025C417.665 345.954 417.515 345.175 417.214 344.688C416.913 344.195 416.437 343.949 415.785 343.949C415.138 343.949 414.666 344.193 414.37 344.681C414.074 345.168 413.921 345.918 413.912 346.93V348.953C413.912 350.029 414.067 350.824 414.377 351.339C414.691 351.849 415.165 352.104 415.799 352.104C416.423 352.104 416.886 351.863 417.187 351.38C417.492 350.897 417.651 350.136 417.665 349.097V347.025ZM424.706 353H423.435V344.571L420.885 345.508V344.359L424.508 342.999H424.706V353ZM434.837 343.758L430.715 353H429.389L433.497 344.086H428.11V343.047H434.837V343.758Z" fill="#7C6755"/>
<path d="M102.5 289C104.985 289 107 286.985 107 284.5C107 282.015 104.985 280 102.5 280C100.015 280 98 282.015 98 284.5C98 286.985 100.015 289 102.5 289Z" fill="#7C6755"/>
<path d="M182.5 277C184.985 277 187 274.985 187 272.5C187 270.015 184.985 268 182.5 268C180.015 268 178 270.015 178 272.5C178 274.985 180.015 277 182.5 277Z" fill="#7C6755"/>
<path d="M261.5 263C263.985 263 266 260.985 266 258.5C266 256.015 263.985 254 261.5 254C259.015 254 257 256.015 257 258.5C257 260.985 259.015 263 261.5 263Z" fill="#7C6755"/>
<path d="M341.5 212C343.985 212 346 209.985 346 207.5C346 205.015 343.985 203 341.5 203C339.015 203 337 205.015 337 207.5C337 209.985 339.015 212 341.5 212Z" fill="#7C6755"/>
<path d="M421.5 141C423.985 141 426 138.985 426 136.5C426 134.015 423.985 132 421.5 132C419.015 132 417 134.015 417 136.5C417 138.985 419.015 141 421.5 141Z" fill="#7C6755"/>
<path d="M102 285L181.75 272.534L261.5 258.596L341.25 207.6L421 137" stroke="#877874" stroke-width="0.5" stroke-miterlimit="10"/>
</svg>
