<svg fill="none" height="24" viewBox="0 0 24 24" width="24" xmlns="http://www.w3.org/2000/svg"><g fill="#000"><path d="M17.9 9.35c-.6 0-.85-.25-1.15-.5-.25-.2-.4-.4-.8-.4s-.6.15-.8.4c-.25.25-.55.5-1.15.5s-.85-.25-1.15-.5c-.25-.2-.4-.4-.8-.4s-.6.15-.8.4c-.25.25-.55.5-1.15.5-.6 0-.85-.25-1.15-.5-.15-.2-.35-.4-.75-.4s-.6.15-.8.4c-.25.25-.55.5-1.15.5s-.85-.25-1.15-.5c-.2-.2-.35-.4-.75-.4-.15 0-.25-.1-.25-.2 0-.15.1-.25.25-.25.6 0 .85.25 1.15.5.25.2.4.4.8.4.35 0 .55-.2.8-.4.25-.25.55-.5 1.15-.5s.85.25 1.15.5c.25.2.4.4.8.4s.6-.15.8-.4c.25-.25.55-.5 1.15-.5s.85.25 1.15.5c.25.2.4.4.8.4s.6-.15.8-.4c.25-.25.55-.5 1.15-.5s.85.25 1.15.5c.25.2.4.4.8.4s.6-.15.8-.4c.25-.25.55-.5 1.15-.5.05 0 .15.1.15.25s-.1.25-.25.25c-.4 0-.6.15-.8.4-.25.2-.55.45-1.15.45zM17.9 11.55c-.6 0-.85-.25-1.15-.5-.25-.2-.4-.4-.8-.4s-.6.15-.8.4c-.25.25-.55.5-1.15.5s-.85-.25-1.15-.5c-.25-.2-.4-.4-.8-.4s-.6.15-.8.4c-.25.25-.55.5-1.15.5-.6 0-.85-.25-1.15-.5-.15-.2-.35-.4-.75-.4s-.6.15-.8.4c-.25.25-.55.5-1.15.5s-.85-.25-1.15-.5c-.2-.2-.35-.4-.75-.4-.15 0-.25-.1-.25-.25s.1-.25.25-.25c.6 0 .85.25 1.15.5.25.2.4.4.8.4s.6-.15.8-.4c.25-.25.55-.5 1.15-.5s.85.25 1.15.5c.25.2.4.4.8.4s.6-.15.8-.4c.25-.25.55-.5 1.15-.5s.85.25 1.15.5c.25.2.4.4.8.4s.6-.15.8-.4c.25-.25.55-.5 1.15-.5s.85.25 1.15.5c.25.2.4.4.8.4s.6-.15.8-.4c.25-.25.55-.5 1.15-.5.15 0 .25.1.25.25s-.1.25-.25.25c-.4 0-.6.15-.8.4-.35.25-.65.5-1.25.5zM17.9 13.75c-.6 0-.85-.25-1.15-.5-.25-.2-.4-.4-.8-.4s-.6.15-.8.4c-.25.25-.55.5-1.15.5s-.85-.25-1.15-.5c-.15-.25-.35-.4-.75-.4s-.6.15-.8.4c-.25.25-.55.5-1.15.5-.6 0-.85-.25-1.15-.5-.2-.25-.4-.4-.8-.4s-.6.15-.8.4c-.25.25-.55.5-1.15.5s-.85-.25-1.15-.5c-.2-.25-.35-.4-.75-.4-.15 0-.25-.1-.25-.25 0-.1.1-.2.25-.2.6 0 .85.25 1.15.5.25.2.4.4.8.4s.6-.15.8-.4c.25-.25.55-.5 1.15-.5s.85.25 1.15.5c.25.2.4.4.8.4s.6-.15.8-.4c.25-.25.55-.5 1.15-.5s.85.25 1.15.5c.25.2.4.4.8.4s.6-.15.8-.4c.25-.25.55-.5 1.15-.5s.85.25 1.15.5c.25.2.4.4.8.4s.6-.15.8-.4c.25-.25.55-.5 1.15-.5.05 0 .15.1.15.2 0 .15-.1.25-.25.25-.4 0-.6.15-.8.4-.25.2-.55.5-1.15.5zM17.9 15.95c-.6 0-.85-.25-1.15-.5-.25-.2-.4-.4-.8-.4s-.6.15-.8.4c-.25.25-.55.5-1.15.5s-.85-.25-1.15-.5c-.25-.2-.4-.4-.8-.4s-.6.15-.8.4c-.25.25-.55.5-1.15.5s-.85-.25-1.15-.5c-.25-.2-.4-.4-.8-.4s-.6.15-.8.4c-.25.25-.55.5-1.15.5s-.85-.25-1.15-.5c-.25-.2-.4-.4-.8-.4-.15 0-.25-.1-.25-.25s.1-.25.25-.25c.6 0 .85.25 1.15.5.25.2.4.4.8.4s.6-.15.8-.4c.25-.25.55-.5 1.15-.5s.85.25 1.15.5c.25.2.4.4.8.4s.6-.15.8-.4c.25-.25.55-.5 1.15-.5s.85.25 1.15.5c.25.2.4.4.8.4s.6-.15.8-.4c.25-.25.55-.5 1.15-.5s.85.25 1.15.5c.25.2.4.4.8.4s.6-.15.8-.4c.25-.25.55-.5 1.15-.5.15 0 .25.1.25.25s-.1.25-.25.25c-.4 0-.6.15-.8.4-.25.2-.55.5-1.15.5z"/></g></svg>