<svg width="24" height="24" viewBox="0 0 24 24" fill="none" xmlns="http://www.w3.org/2000/svg"><path d="M23.573 24H.427C.171 24 0 23.83 0 23.574v-1.96c0-.255.17-.425.427-.425h.598v-7.837H.427c-.256 0-.427-.17-.427-.426s.17-.426.427-.426h3.587V1.426c0-.256.256-.426.427-.426h14.947c.256 0 .427.17.427.426V12.33h3.672c.257 0 .428.17.428.426 0 .255-.171.425-.427.425h-.427v7.838h.512c.256 0 .427.17.427.425v1.96c0 .426-.17.596-.427.596zM.94 23.063h22.206v-1.022H.94v1.022zm19.046-1.874h2.135v-7.837h-2.135v7.837zm-2.99 0h1.965v-7.837h-1.965v7.837zm-2.989 0h2.135v-7.837h-2.135v7.837zm-3.075 0h2.136v-7.837h-2.136v7.837zm-2.989 0h2.135v-7.837H7.943v7.837zm-2.99 0H7.09v-7.837H4.954v7.837zm-3.074 0h2.135v-7.837H1.88v7.837zm16.057-8.774h1.025V1.937H4.954v10.478h1.025v-9.03c0-.255.17-.426.427-.426h4.697c.256 0 .427.17.427.426v8.945h.769V3.385c0-.255.17-.426.427-.426h4.697c.257 0 .428.17.428.426v9.03h.085zm-4.698 0h3.758V3.896h-3.758v8.519zm-6.32 0h3.758V3.896H6.918v8.519z" fill="gray"/></svg>