<svg width="24" height="24" viewBox="0 0 24 24" fill="none" xmlns="http://www.w3.org/2000/svg"><g clip-path="url(#clip0)" stroke="gray" stroke-miterlimit="10"><path d="M21.87 8.801L11.956 0 2.13 8.801c-.173.083-.173.333 0 .499.087.166.348.166.522 0l1.13-.997v8.719H20.218V8.303l1.13.997c.088.083.175.083.262.083.087 0 .174 0 .26-.083.175-.166.175-.332 0-.499zm-2.261 7.556H4.39V7.64L11.957.913l7.565 6.726v8.718h.087z" fill="gray" stroke-width=".5"/><path d="M3.783 21.34h16.434M20.217 19.679V23M3.783 19.679V23" stroke-width="1.3" stroke-linecap="round" stroke-linejoin="round"/></g><defs><clipPath id="clip0"><path fill="#fff" d="M0 0h24v24H0z"/></clipPath></defs></svg>