<svg width="24" height="24" viewBox="0 0 24 24" fill="none" xmlns="http://www.w3.org/2000/svg"><g clip-path="url(#clip0)"><path d="M7.543 21.474c9.028 0 14.057-7.543 14.057-14.057v-.686c.914-.685 1.829-1.485 2.4-2.514-.914.457-1.829.686-2.857.8 1.028-.571 1.828-1.6 2.171-2.743a10.33 10.33 0 0 1-3.085 1.257C18.4 1.59 15.2 1.474 13.257 3.303 12 4.56 11.43 6.274 11.886 7.989c-4-.229-7.657-2.058-10.172-5.143C.457 5.13 1.03 7.989 3.2 9.474c-.8 0-1.6-.228-2.286-.571v.114c0 2.4 1.715 4.343 4 4.8-.685.229-1.485.229-2.285.114.685 2.058 2.514 3.43 4.571 3.43-1.6 1.256-3.771 1.942-6.057 1.942-.343 0-.8 0-1.143-.114 2.286 1.485 4.914 2.285 7.543 2.285z"/></g><defs><clipPath id="clip0"><path fill="#fff" d="M0 0h24v24H0z"/></clipPath></defs></svg>