<svg width="24" height="24" viewBox="0 0 24 24" fill="none" xmlns="http://www.w3.org/2000/svg"><path d="M8.1 6.3H5.55c-.5 0-.95.4-.95.95V9.8c0 .5.4.95.95.95H8.1c.5 0 .95-.4.95-.95V7.2c0-.5-.45-.9-.95-.9zm.35 3.45c0 .2-.15.35-.35.35H5.55c-.2 0-.35-.15-.35-.35V7.2c0-.2.15-.35.35-.35H8.1c.2 0 .35.15.35.35v2.55z" fill="gray"/><path d="M20.55 17.8c-1.6 0-3-1.65-4.4-3.4-1.65-2-3.35-4.1-5.85-4.25V7.2C10.3 6 9.3 5 8.1 5H5.55C4.3 5 3.3 6 3.3 7.2v11.85c-.15 0-.3.15-.3.3s.15.3.3.3h1.9c.15 0 .3-.15.3-.3s-.15-.3-.3-.3v-6.7c0-.2.15-.35.35-.35H8.1c.2 0 .35.15.35.35v6.75c-.15 0-.3.15-.3.3s.15.3.3.3h1.9c.15 0 .3-.15.3-.3s-.15-.3-.3-.3V12c.8.1 1.55.55 2.3 1.2v5.85h-.35c-.15 0-.3.15-.3.3s.15.3.3.3h1.3c.15 0 .3-.15.3-.3s-.15-.3-.3-.3h-.35V13.8c.5.55 1 1.15 1.5 1.75.35.45.7.9 1.1 1.3v2.2h-.35c-.15 0-.3.15-.3.3s.15.3.3.3h1.3c.15 0 .3-.15.3-.3s-.15-.3-.3-.3h-.35V17.5c1.2 1.2 2.5 2.15 4.2 2.15.5 0 .95-.4.95-.95-.1-.5-.5-.9-1.05-.9zm-11.5 1.25v-6.7c0-.5-.4-.95-.95-.95H5.55c-.5 0-.95.4-.95.95v6.75h-.7V7.2c0-.9.75-1.6 1.6-1.6h2.55c.9 0 1.6.75 1.6 1.6v11.85h-.6zm11.5 0c-2.25 0-3.85-2-5.4-3.9-1.5-1.85-2.95-3.6-4.85-3.75v-.7c2.25.15 3.85 2.1 5.4 4 1.55 1.85 2.95 3.65 4.85 3.65.2 0 .35.15.35.35 0 .2-.15.35-.35.35z" fill="gray"/></svg>