<svg fill="none" height="24" viewBox="0 0 24 24" width="24" xmlns="http://www.w3.org/2000/svg"><g fill="#000" stroke="#000" stroke-miterlimit="10" stroke-width=".7"><path d="M12.3 11.35a1.45 1.45 0 0 0 0-2.9 1.451 1.451 0 0 0 0 2.9zm0-2.5c.55 0 1.05.45 1.05 1.05 0 .55-.45 1.05-1.05 1.05-.55 0-1.05-.45-1.05-1.05.05-.6.5-1.05 1.05-1.05z"/><path d="M12.3 17.349l3.2-4.6c1.199-1.6 1.049-4.2-.35-5.6C14.4 6.4 13.4 6 12.35 6s-2.05.4-2.8 1.15c-1.4 1.4-1.55 4-.4 5.6zm-2.55-9.95c.7-.65 1.55-1.049 2.55-1.049.95 0 1.85.35 2.55 1.05 1.249 1.25 1.399 3.65.35 5.1l-2.85 4.149-2.95-4.2c-1.05-1.45-.9-3.8.35-5.05z"/><path d="M14.85 15.45c-.1 0-.2.05-.25.2 0 .1.05.199.2.249 2.199.25 3.349.95 3.349 1.35 0 .55-2.2 1.35-5.85 1.35-3.6 0-5.849-.8-5.849-1.35 0-.4 1.15-1.1 3.35-1.35.1 0 .2-.1.2-.25 0-.1-.1-.2-.25-.2-2.2.25-3.75 1-3.75 1.75 0 .9 2.15 1.75 6.25 1.75 4.099 0 6.249-.9 6.249-1.75.05-.8-1.45-1.5-3.65-1.75z"/></g></svg>