<svg width="24" height="24" viewBox="0 0 24 24" fill="none" xmlns="http://www.w3.org/2000/svg"><path d="M19.85 5.85c-.55 0-.95.35-1.1.85h-.6v-.55C18.15 5.5 17.65 5 17 5H7.95c-.6 0-1.1.45-1.1.95v.75h-.6c-.15-.5-.55-.85-1.1-.85C4.5 5.85 4 6.35 4 7c0 .6.5 1.15 1.15 1.15.55 0 .95-.35 1.1-.85h.6v10.5c0 .5.35.85.85.85h7.95c.5 0 .85-.35.85-.85v-.3h.85c.5 0 .85-.35.85-.85v-9.4h.6c.15.5.55.85 1.1.85.6 0 1.1-.5 1.1-1.1 0-.65-.5-1.15-1.15-1.15zm-14.7 1.7c-.35 0-.6-.25-.6-.55 0-.3.25-.55.55-.55.3 0 .55.25.55.55.05.3-.2.55-.5.55zm12.45-1.4v.55h-1.15v-.55c0-.25.25-.55.55-.55.35-.05.6.2.6.55zm-10.2-.2c0-.25.25-.4.55-.4h8.1c-.1.15-.15.35-.15.5V15.75H7.4v-9.8zm8.5 11.8c0 .15-.1.3-.3.3H7.7c-.15 0-.3-.1-.3-.3v-1.4h8.5v1.4zm1.7-1.15c0 .15-.1.3-.3.3h-.85V7.25h1.15v9.35zm2.25-9.05c-.3 0-.55-.25-.55-.55 0-.3.25-.55.55-.55.3 0 .55.25.55.55.05.3-.2.55-.55.55z" fill="gray"/></svg>