<svg width="24" height="24" viewBox="0 0 24 24" fill="none" xmlns="http://www.w3.org/2000/svg"><path d="M8.4 14.3v-1a.95.95 0 0 0-.95-.95H6.8a.95.95 0 0 0-.95.95v1c-.5 0-.85.4-.85.85v2.95c0 .5.4.85.85.85h2.6c.5 0 .85-.4.85-.85v-2.95c0-.45-.4-.85-.9-.85zm-1.95-1c0-.2.15-.35.35-.35h.65c.2 0 .35.15.35.35v1H6.45v-1zm2.25 4.85c0 .15-.1.25-.25.25H5.8c-.15 0-.25-.1-.25-.25V15.2c0-.15.1-.25.25-.25h2.6c.15 0 .25.1.25.25v2.95h.05zm7-11.05v.4h2.15c.15 0 .3.15.3.3s-.15.3-.3.3H15.4c-.15 0-.3-.15-.3-.3v-1c0-.15.15-.3.3-.3h2.45c.15 0 .3.15.3.3s-.15.3-.3.3H15.7zm2 6.5c.05.05.1.15.1.25l-.5 4.9c0 .15-.15.3-.3.3h-3.15c-.15 0-.3-.15-.3-.3s.15-.3.3-.3h2.85l.5-4.3h-3.35c-.15 0-.3-.15-.3-.3s.15-.3.3-.3h3.6c.1-.05.15 0 .25.05zm-3.6-.9V6.3c0-.45.35-.8.8-.8h2.95c.15 0 .3.15.3.3s-.15.3-.3.3H14.9c-.1 0-.2.1-.2.2v6.4c0 .15-.15.3-.3.3s-.3-.15-.3-.3zm1.6-3.65v.4h2.15c.15 0 .3.15.3.3s-.15.3-.3.3H15.4c-.15 0-.3-.15-.3-.3v-1c0-.15.15-.3.3-.3h2.45c.15 0 .3.15.3.3s-.15.3-.3.3H15.7zm-3.65.4h-.5V8.6c0-.45-.25-.85-.6-1V6.5c0-.15-.15-.3-.3-.3h-.3v-.9c0-.15-.15-.3-.3-.3h-2.9c-.3 0-.5.25-.5.55v.6c0 .15.15.3.3.3s.3-.15.3-.3V5.6H9.7v.6h-.3c-.15 0-.3.15-.3.3v1.05c-.4.2-.65.6-.65 1.05v.85h-.5c-.5 0-.85.4-.85.85v1c0 .15.15.3.3.3s.3-.15.3-.3v-1c0-.15.1-.25.25-.25h4.1c.15 0 .25.1.25.25v7.85c0 .15-.1.25-.25.25h-2.1c-.15 0-.3.15-.3.3s.15.3.3.3h2.1c.5 0 .85-.4.85-.85V10.3c.05-.5-.35-.85-.85-.85zM9.7 6.8h.65v.65H9.7V6.8zm1.25 2.65H9.1V8.6c0-.3.25-.55.55-.55h.8c.3 0 .55.25.55.55v.85h-.05zm7.2 1.3c0 .15-.15.3-.3.3H15.7v1.65c0 .15-.15.3-.3.3s-.3-.15-.3-.3v-1.95c0-.15.15-.3.3-.3h2.45c.2 0 .3.1.3.3z" fill="gray"/></svg>