<svg width="24" height="24" viewBox="0 0 24 24" fill="none" xmlns="http://www.w3.org/2000/svg"><path d="M22.167 11.386H2.444V3.007c0-.523.523-1.047 1.134-1.047h2.095c.61 0 1.047.436 1.047 1.047-.96.262-1.745 1.135-1.745 2.095V6.41c0 .262.261.524.523.524H8.99c.262 0 .524-.262.524-.524V5.1c0-.96-.786-1.832-1.658-2.094A1.975 1.975 0 0 0 5.847 1H3.578c-1.134 0-2.094.96-2.094 2.007v8.291c-.786 0-1.484.698-1.484 1.484 0 .436.175.785.524 1.134v2.619c0 2.007.872 3.752 2.356 4.887l-.785 1.57c-.088.262 0 .524.261.699.262.087.524 0 .699-.262l.785-1.483c.96.523 2.095.785 3.23.785h9.86c1.136 0 2.27-.262 3.23-.786l.785 1.484c.088.262.437.35.699.262.262-.087.349-.436.262-.698l-.786-1.571c1.484-1.135 2.356-2.88 2.356-4.887v-2.619c.35-.261.524-.698.524-1.047-.35-.873-.96-1.483-1.833-1.483zM7.157 3.967c.61 0 1.221.611 1.221 1.135v.785H5.935v-.785c0-.524.61-1.135 1.221-1.135zm15.01 12.568c0 2.967-2.356 5.236-5.41 5.236H6.894c-3.055 0-5.411-2.27-5.411-5.236v-2.182h20.683v2.182zm0-3.23H1.484c-.262 0-.437-.174-.524-.436 0-.262.175-.524.524-.524h20.683c.262 0 .437.175.524.437 0 .262-.175.524-.524.524z" fill="gray"/></svg>