<svg width="24" height="24" viewBox="0 0 24 24" fill="none" xmlns="http://www.w3.org/2000/svg"><path d="M12.5 13.8c.2-.2.3-.45.3-.7V13c0-.2-.05-.4-.2-.55-.05-.05-.05-.1-.1-.15-.15-.15-.2-.4-.05-.6 0-.05.05-.05.05-.1.2-.2.3-.45.3-.7V9.85c0-1.05-.55-2-1.45-2.5v-.4c.15 0 .25-.1.25-.25s-.1-.25-.25-.25V5.6c0-.35-.25-.6-.6-.6h-1.7c-.35 0-.6.25-.6.6v.85c-.15 0-.25.1-.25.25s.1.25.25.25v.4C7.65 7.8 7.15 8.6 7 9.5V10.95c0 .25.1.5.3.7 0 0 .05.05.05.1.15.2.1.45-.05.6-.05.05-.1.1-.1.15-.15.1-.2.3-.2.5v.1c0 .25.1.5.3.7 0 0 .05.05.05.1.15.2.1.45-.05.6-.05.05-.1.1-.1.15-.15.1-.2.3-.2.5v.1c0 .25.1.5.3.7.2.2.2.5 0 .7-.2.2-.3.45-.3.7v.6c0 .6.45 1.05 1.05 1.05h3.7c.6 0 1.05-.45 1.05-1.05v-.6c0-.2-.05-.4-.2-.55-.05-.05-.05-.1-.1-.15-.15-.15-.2-.4-.05-.6.05-.05.05-.05.05-.1.2-.2.3-.45.3-.7v-.1c0-.2-.05-.4-.2-.55 0-.05-.05-.1-.1-.1-.15-.15-.2-.4-.05-.6.05-.05.05-.1.05-.1zM8.95 5.6c0-.05.05-.1.1-.1h1.7c.05 0 .1.05.1.1v.85h-1.9V5.6zM8.8 7.7c.1-.05.15-.1.15-.2v-.55h1.95v.55c0 .1.05.15.15.2.5.25.9.75 1.1 1.3l-.3.15c-.65.3-1.35.3-2 0-.7-.35-1.5-.35-2.25-.05.2-.6.65-1.1 1.2-1.4zm3.5 3.25c0 .15-.05.25-.15.35-.4.4-.4 1 0 1.35.1.1.15.2.15.35v.1c0 .15-.05.25-.15.35-.4.4-.4 1 0 1.35.1.1.15.2.15.35v.1c0 .15-.05.25-.15.35-.4.4-.4 1 0 1.35.1.1.15.2.15.35v.6c0 .3-.25.55-.55.55h-3.7c-.3.05-.55-.2-.55-.5v-.6c0-.15.05-.25.15-.35.4-.4.4-1 0-1.35a.54.54 0 0 1-.15-.35v-.1c0-.15.05-.25.15-.35.4-.4.4-1 0-1.35-.1-.15-.15-.25-.15-.4V13c0-.15.05-.25.15-.35.4-.4.4-1 0-1.35a.54.54 0 0 1-.15-.35v-1.1-.15l.2-.1c.65-.3 1.35-.3 2 0 .75.35 1.6.35 2.35 0l.25-.1V10.95z" fill="gray"/><path d="M16.7 12.65c.15-.15.25-.35.25-.6v-.95c0-.9-.5-1.75-1.25-2.2v-.3c.1 0 .2-.1.2-.2s-.1-.2-.2-.2v-.75c0-.3-.25-.5-.5-.5h-1.5c-.3 0-.5.25-.5.5V8c.15.2.3.45.4.7v-.1h1.7v.45c0 .1.05.15.1.2.45.25.85.65 1 1.15l-.25.1c-.55.25-1.15.25-1.7 0-.2-.1-.4-.15-.6-.15v.4c.15.05.3.1.4.15.65.3 1.4.3 2.05 0l.2-.1v1.25c0 .1-.05.2-.1.3-.35.35-.35.85 0 1.2.1.1.1.2.1.3v.1c0 .1-.05.2-.1.3-.35.35-.35.85 0 1.2.1.1.1.2.1.3v.1c0 .1-.05.2-.1.3-.35.35-.35.85 0 1.2.1.1.1.2.1.3v.45c0 .25-.2.5-.5.5h-2.45c-.2.25-.5.4-.8.4H16c.5 0 .9-.4.9-.9v-.45c0-.15-.05-.35-.15-.5-.05-.05-.05-.1-.1-.1-.15-.15-.15-.35-.05-.55l.05-.05c.15-.15.25-.35.25-.6v-.1c0-.15-.05-.35-.15-.5-.05-.05-.05-.1-.1-.1-.15-.15-.15-.35-.05-.55l.05-.05c.15-.15.25-.35.25-.6v-.1c0-.15-.05-.35-.15-.5-.05-.05-.05-.1-.1-.1-.15-.15-.15-.35-.05-.55.1 0 .1 0 .1-.05zM15.3 8.2h-1.7v-.75c0-.05.05-.1.1-.1h1.5c.05 0 .1.05.1.1v.75z" fill="gray"/></svg>