<svg width="24" height="24" viewBox="0 0 24 24" fill="none" xmlns="http://www.w3.org/2000/svg"><path d="M14.55 8.426H2.75c-.45 0-.75.3-.75.7v.8c0 .4.35.75.75.75h1.1v6c0 .2.15.35.3.35.2 0 .35-.15.35-.35v-6h8.25v6c0 .2.15.35.35.35.2 0 .35-.15.35-.35v-6h1.1c.4 0 .75-.35.75-.75v-.8c0-.4-.35-.7-.75-.7zm.05 1.55c0 .05-.05.1-.1.1H2.75l-.1-.1v-.85c0-.05.05-.05.1-.05h11.8c.05 0 .1.05.1.05v.85h-.05z" fill="gray"/><path d="M22.7 6.426c-.1-.15-.2-.25-.35-.3l-.3-.1c-.3-.1-.6.1-.7.4l-.9 2.95c-.05.15-.05.3.05.45.05.1.1.15.15.2l-.55 1.7h-4.7c-.4 0-.7.35-.7.75v.55c0 .4.3.75.7.75h.15l-1.2 2.75c-.05.15 0 .35.2.45h.1c.15 0 .25-.05.3-.25l1.35-3.1h3.45l1.35 3.1c.05.15.15.25.3.25h.1c.15-.05.25-.25.2-.45l-1.2-2.9c.3-.1.55-.4.55-.7v-.55c0-.25-.1-.45-.25-.55l.55-1.65c.25 0 .45-.15.55-.4l.9-2.95c0-.1 0-.25-.1-.4zm-2.35 6.55c0 .05 0 .1-.05.1h-4.9s-.05 0-.05-.05v-.55c0-.05 0-.05.05-.05H20.3s.05 0 .05.05v.5zm.9-3.45h-.1l.85-2.8.1.05-.85 2.75z" fill="gray"/></svg>