<svg width="24" height="24" viewBox="0 0 24 24" fill="none" xmlns="http://www.w3.org/2000/svg"><path d="M11.502 10.5c1.1 0 2-.9 2-2s-.9-2-2-2-2 .9-2 2 .9 2 2 2zm0-3.5c.8 0 1.4.6 1.4 1.4 0 .8-.6 1.4-1.4 1.4-.8 0-1.4-.6-1.4-1.4 0-.7.6-1.4 1.4-1.4z"/><path d="M11.502 18.7l4.4-6.3c1.7-2.2 1.4-5.8-.5-7.8-1.1-1-2.5-1.6-3.9-1.6-1.5 0-2.9.6-3.9 1.6-2 1.9-2.2 5.6-.5 7.8l4.4 6.3zM8.002 5c.9-.9 2.2-1.4 3.5-1.4 1.3 0 2.6.5 3.5 1.4 1.7 1.7 2 5 .5 7l-3.9 5.7-4.1-5.7c-1.5-2-1.3-5.2.5-7z"/><path d="M15.002 16.1c-.2 0-.3.1-.3.3 0 .2.1.3.3.3 3 .4 4.6 1.3 4.6 1.9 0 .8-3.1 1.9-8 1.9-5 0-8.1-1.1-8.1-1.9 0-.6 1.6-1.5 4.6-1.9.2 0 .3-.2.3-.3 0-.2-.2-.3-.3-.3-3 .4-5.1 1.4-5.1 2.4-.1 1.3 2.9 2.5 8.5 2.5 5.7 0 8.6-1.2 8.6-2.4 0-1.1-2.1-2.1-5.1-2.5z"/></svg>