<svg width="24" height="24" viewBox="0 0 24 24" fill="none" xmlns="http://www.w3.org/2000/svg"><path d="M20.752 10.3c-.2-.2-.45-.35-.7-.35h-.4v-.3c0-.55-.5-1-1.1-1h-.5v-.6c0-.25-.1-.55-.3-.75-.4-.4-1.1-.4-1.5 0-.2.2-.3.45-.3.75v2.7H9.05v-2.7c0-.25-.1-.55-.3-.75-.4-.4-1.1-.4-1.5 0-.2.2-.35.5-.35.75v.6h-.55c-.25 0-.5.1-.7.25-.2.2-.3.45-.3.7v.35h-.4c-.25 0-.5.1-.701.35-.15.2-.25.45-.25.75v1.55c0 .3.1.55.25.75.2.2.45.35.7.35h.4v.35c0 .25.1.5.3.7.2.2.45.25.7.25h.55v.601c0 .25.1.55.3.7.2.2.45.3.75.3s.55-.1.75-.3c.2-.2.3-.45.3-.7v-2.7h6.901v2.7c0 .25.1.55.3.7.2.2.45.3.75.3s.55-.1.75-.3c.2-.2.3-.45.3-.7v-.6h.5c.6 0 1.1-.45 1.1-1v-.3h.4c.25 0 .5-.1.701-.35.15-.2.25-.45.25-.75v-1.55c.05-.3-.05-.55-.2-.75zM4.95 13.15c-.1 0-.2-.05-.3-.15-.1-.1-.15-.25-.15-.4v-1.55c0-.15.05-.3.15-.4.1-.1.2-.15.3-.15h.4v2.65h-.4zm1.4 1.35c-.15 0-.25-.05-.35-.15-.1-.1-.15-.2-.15-.3V9.6c0-.1.05-.2.15-.3.1-.1.2-.15.35-.15h.55v5.3h-.55v.05zm2.15 1.101c0 .15-.05.25-.15.35-.2.2-.55.2-.75 0-.1-.1-.15-.2-.15-.35V8.051c0-.15.05-.25.15-.35.1-.05.25-.15.4-.15.15 0 .3.05.4.15.05.1.1.25.1.35v7.55zm.55-3.25V11.3h6.901v1.05h-6.9zm8.502 3.25c0 .15-.05.25-.15.35-.2.2-.55.2-.75 0-.1-.1-.15-.2-.15-.35V8.051c0-.15.05-.25.15-.35.1-.05.2-.15.35-.15.15 0 .3.05.4.15.1.1.15.25.15.35V15.6zm1.6-1.6c0 .25-.25.5-.55.5h-.5V9.15h.5c.3 0 .55.2.55.5V14zm1.3-1.4c0 .15-.05.3-.15.4-.1.1-.15.15-.25.15h-.4V10.5h.4c.1 0 .2.05.25.15.1.1.15.25.15.4v1.55z" fill="gray"/></svg>