<svg fill="none" height="24" viewBox="0 0 24 24" width="24" xmlns="http://www.w3.org/2000/svg"><g fill="#000"><path d="M17.4 7H7.6C6.7 7 6 7.7 6 8.6v6.7c0 .9.7 1.6 1.6 1.6h9.8c.9 0 1.6-.7 1.6-1.6V8.6c0-.9-.7-1.6-1.6-1.6zm.9 8.3c0 .5-.4.85-.85.85H7.6c-.5 0-.85-.4-.85-.85V8.6c0-.5.4-.85.85-.85h9.8c.5 0 .85.4.85.85z"/><path d="M14.2 11.85L17.4 9c.15-.15.15-.35.05-.5a.385.385 0 0 0-.5-.05L12.5 12.4l-.85-.75-.05-.05-3.5-3.1c-.15-.15-.35-.15-.5 0s-.15.4 0 .5l3.2 2.9-3.2 3c-.15.15-.15.35 0 .5.1.1.2.1.3.1s.2-.05.25-.1l3.25-3.05.9.8c.05.05.15.1.25.1s.2-.05.25-.1l.9-.8 3.25 3.05c.05.05.15.1.25.1s.2-.05.25-.1c.15-.15.15-.4 0-.5z"/></g></svg>