<svg width="24" height="24" viewBox="0 0 24 24" fill="none" xmlns="http://www.w3.org/2000/svg"><path d="M20.873 12.274l-1.35-1.35c-.35-.35-.75-.6-1.15-.8.25-.55.4-1.2.4-1.8v-1.9c0-.15-.1-.25-.25-.25h-1.85c-.65 0-1.25.15-1.8.4-.2-.45-.5-.85-.8-1.15l-1.35-1.349c-.1-.1-.3-.1-.4 0l-1.349 1.35c-.35.35-.6.75-.8 1.15-.55-.25-1.2-.4-1.8-.4h-1.95c-.15 0-.25.1-.25.25v1.85c0 .65.15 1.25.4 1.8-.45.2-.85.5-1.15.799l-1.349 1.35c-.1.1-.1.3 0 .4l1.35 1.35c.35.35.75.6 1.15.8-.25.55-.4 1.2-.4 1.8v1.849c0 .15.1.25.25.25h1.85c.65 0 1.25-.15 1.8-.4.2.45.5.85.799 1.15l1.35 1.35c.1.1.3.1.4 0l1.35-1.35c.35-.35.6-.75.8-1.15.55.25 1.2.4 1.8.4h1.849c.15 0 .25-.1.25-.25v-1.85c0-.65-.15-1.25-.4-1.8.45-.2.85-.5 1.15-.8l1.35-1.35c.25-.05.25-.25.1-.35zm-5.85-5.2c.5-.25 1.05-.35 1.6-.35h1.6v1.6c0 .55-.1 1.1-.35 1.6-.4-.1-.8-.2-1.25-.2h-.1c-.6 0-1.15.1-1.65.35.25-.55.35-1.1.35-1.65v-.1c0-.45-.05-.85-.2-1.25zm1.5 3.2h.1c.3 0 .65.05.95.15-.15.2-.3.4-.5.6l-.05.05c-.7.7-1.7 1.15-2.7 1.1h-1.2l.9-.85a3.56 3.56 0 0 1 2.5-1.05zm-1.85-1.95v.1c0 .95-.35 1.85-1.05 2.5l-.9.9v-1.2c0-1 .4-2 1.1-2.7l.05-.05c.2-.2.4-.35.6-.5.15.3.2.6.2.95zm-3.349-2.55l1.15-1.15 1.15 1.15c.3.3.55.65.7 1.05-.3.2-.55.4-.8.65l-.05.05c-.45.45-.8 1-1 1.6-.2-.6-.55-1.15-1-1.6l-.05-.05c-.25-.25-.5-.45-.8-.65.15-.4.4-.75.7-1.05zm-1.05 2.55c0-.3.05-.65.15-.95.2.15.4.3.6.5l.05.05c.7.7 1.15 1.7 1.1 2.7v1.2l-.9-.9c-.65-.65-1.05-1.6-1.05-2.5v-.1h.05zm.65 3l.9.85h-1.2c-1 0-2-.4-2.7-1.1l-.05-.05c-.2-.2-.35-.4-.5-.6.3-.1.65-.15.95-.15h.1c.95 0 1.85.4 2.5 1.05zm-4.2-4.6h1.6c.55 0 1.1.1 1.6.35-.1.4-.2.8-.2 1.25v.1c0 .6.1 1.15.35 1.65a3.92 3.92 0 0 0-1.65-.35h-.1c-.4 0-.85.05-1.25.2-.25-.5-.35-1.05-.35-1.6v-1.6zm-.95 6.9l-1.15-1.15 1.15-1.15c.3-.3.65-.55 1.05-.7.2.3.4.55.65.8l.05.05c.45.45 1 .8 1.6 1-.6.2-1.15.55-1.6 1l-.05.05c-.25.25-.45.5-.65.8-.4-.15-.75-.4-1.05-.7zm4.15 4.25c-.5.249-1.05.349-1.6.349h-1.6v-1.6c0-.55.1-1.1.35-1.6.4.1.8.2 1.25.2h.1c.6 0 1.15-.1 1.65-.35-.25.55-.35 1.1-.35 1.65v.1c0 .45.05.85.2 1.25zm-1.5-3.2h-.1c-.3 0-.65-.05-.95-.15.15-.2.3-.4.5-.6l.05-.05c.7-.7 1.7-1.15 2.7-1.1h1.2l-.9.9c-.65.6-1.55 1-2.5 1zm1.85 1.95v-.1c0-.95.35-1.85 1.05-2.5l.85-.9v1.2c0 1-.4 2-1.1 2.7l-.05.05c-.2.2-.4.35-.6.5-.1-.3-.15-.6-.15-.95zm3.35 2.549l-1.15 1.15-1.15-1.15c-.3-.3-.55-.65-.7-1.05.3-.2.55-.4.8-.65l.05-.05c.45-.45.8-1 1-1.6.2.6.55 1.15 1 1.6l.05.05c.25.25.5.45.8.65-.15.4-.4.75-.7 1.05zm1.05-2.55c0 .3-.05.65-.15.95-.2-.15-.4-.3-.6-.5l-.05-.05c-.7-.7-1.15-1.7-1.1-2.7v-1.2l.9.9a3.56 3.56 0 0 1 1.05 2.5v.1h-.05zm-.65-3l-.9-.9h1.2c1 0 2 .4 2.7 1.1l.05.05c.2.2.35.4.5.6-.3.1-.65.15-.95.15h-.1c-.95.05-1.85-.35-2.5-1zm4.199 4.6h-1.6c-.55 0-1.1-.1-1.6-.35.1-.4.2-.8.2-1.25v-.1c0-.6-.1-1.15-.35-1.65.55.25 1.1.35 1.65.35h.1c.4 0 .85-.05 1.25-.2.25.5.35 1.05.35 1.6v1.6zm.95-4.6c-.3.3-.65.55-1.05.7-.2-.3-.4-.55-.65-.8l-.05-.05c-.45-.45-1-.8-1.6-1 .6-.2 1.15-.55 1.6-.999l.05-.05c.25-.25.45-.5.65-.8.4.2.75.4 1.05.7l1.15 1.15-1.15 1.15z" fill="gray"/></svg>