<svg width="24" height="24" viewBox="0 0 24 24" fill="none" xmlns="http://www.w3.org/2000/svg"><path d="M21.722 10.346V6.359c0-1.79-1.22-2.359-2.36-2.359H4.72c-1.22 0-2.441.65-2.441 2.36v3.904C1.139 10.427 0 11.241 0 12.95v3.01c0 .489.407.895.895.895h.325v2.36c0 .65.407 1.057.977 1.057h.895a.903.903 0 0 0 .894-.895v-2.44h16.109v2.44c0 .488.407.895.895.895h.895a.903.903 0 0 0 .895-.895v-2.44h.325A.903.903 0 0 0 24 16.04v-3.092c0-1.708-1.139-2.522-2.278-2.603zM3.172 6.359c.082-1.22.814-1.464 1.547-1.464h14.644c.65 0 1.464.244 1.464 1.464v3.905h-.732V8.068a.903.903 0 0 0-.895-.895h-5.695a.903.903 0 0 0-.895.895v2.196h-1.057V8.068a.903.903 0 0 0-.895-.895H4.88a.903.903 0 0 0-.895.895v2.196h-.813V6.36zM19.2 8.068v2.196h-5.695V8.068H19.2zm-8.542 0v2.196H4.963V8.068h5.695zM3.01 19.376h-.895v-2.44h.895v2.44zm18.875 0h-.895v-2.44h.895v2.44zm1.22-3.335H.895v-1.383h22.129v1.383h.081zm0-2.278H.895v-.814c0-1.546 1.139-1.79 1.79-1.79h18.712c.65 0 1.79.244 1.79 1.79v.814h-.082z" fill="gray"/></svg>