<svg width="24" height="24" viewBox="0 0 24 24" fill="none" xmlns="http://www.w3.org/2000/svg"><path d="M18.435 9.75c-1.8-1.8-4.15-2.75-6.701-2.75-2.5 0-4.9 1-6.701 2.75-.05.1-.05.25.05.35.1.1.25.1.35 0 1.7-1.7 3.95-2.65 6.35-2.65 2.401 0 4.652.95 6.352 2.6.05.05.1.05.15.05.05 0 .1 0 .15-.05.1-.05.1-.2 0-.3z" fill="gray" stroke="gray" stroke-width=".5" stroke-miterlimit="10"/><path d="M6.533 11.2c-.1.1-.1.25 0 .35.05.05.1.05.15.05.05 0 .15 0 .15-.05 2.75-2.7 7.101-2.7 9.802 0 .1.1.25.1.35 0 .1-.1.1-.25 0-.35a7.365 7.365 0 0 0-10.452 0z" fill="gray" stroke="gray" stroke-width=".5" stroke-miterlimit="10"/><path d="M11.784 11.05c-1.45 0-2.8.55-3.8 1.55-.1.1-.1.25 0 .35.1.101.25.101.35 0 .9-.9 2.15-1.4 3.45-1.4 1.3 0 2.5.5 3.45 1.4.05.051.1.051.15.051.05 0 .15 0 .15-.05.1-.1.1-.25 0-.35-1-1-2.35-1.55-3.75-1.55zM11.784 13.351c-.9 0-1.6.7-1.6 1.6 0 .9.7 1.6 1.6 1.6.9 0 1.6-.7 1.6-1.6 0-.85-.75-1.6-1.6-1.6zm0 2.75c-.6 0-1.1-.5-1.1-1.1 0-.6.5-1.1 1.1-1.1.6 0 1.1.5 1.1 1.1 0 .6-.5 1.1-1.1 1.1z" fill="gray" stroke="gray" stroke-width=".5" stroke-miterlimit="10"/></svg>