<svg width="24" height="24" viewBox="0 0 24 24" fill="none" xmlns="http://www.w3.org/2000/svg"><path d="M20.1 6H3.9c-.5 0-.9.4-.9.9v6c0 .5.4.9.9.9h16.2c.5 0 .9-.4.9-.9v-6c0-.5-.4-.9-.9-.9zm.3 6.9c0 .2-.1.3-.3.3H3.9c-.2 0-.3-.1-.3-.3v-6c0-.2.15-.3.3-.3h16.2c.2 0 .3.1.3.3v6z" fill="gray"/><path d="M10.8 8.7h2.4c.2 0 .3-.1.3-.3 0-.2-.1-.3-.3-.3h-2.4c-.2 0-.3.1-.3.3 0 .2.1.3.3.3zM19.5 12h-15c-.2 0-.3.1-.3.3 0 .2.1.3.3.3h15c.2 0 .3-.1.3-.3 0-.2-.1-.3-.3-.3zM19.5 10.8h-15c-.2 0-.3.1-.3.3 0 .2.1.3.3.3h15c.2 0 .3-.1.3-.3 0-.2-.1-.3-.3-.3zM12.15 15.95c-.3-.15-.45-.35-.45-.5 0-.15.2-.35.4-.5.15-.05.2-.25.1-.4-.05-.15-.25-.2-.4-.1-.5.25-.75.65-.75 1 0 .4.25.75.75 1.05.3.15.45.35.45.5 0 .15-.2.35-.45.5-.15.05-.2.25-.1.4.05.1.15.15.25.15.05 0 .1 0 .15-.05.5-.25.75-.65.75-1 .05-.45-.2-.85-.7-1.05zM8.85 16.55c-.3-.15-.45-.35-.45-.5 0-.15.2-.35.4-.5.15-.05.2-.25.1-.4-.05-.15-.25-.2-.4-.1-.5.25-.75.65-.75 1 0 .4.25.75.75 1.05.3.15.45.35.45.5 0 .15-.2.35-.45.5-.15.05-.2.25-.1.4.05.1.15.15.25.15.05 0 .1 0 .15-.05.5-.25.75-.65.75-1 .05-.45-.2-.85-.7-1.05zM15.45 16.55c-.3-.15-.45-.35-.45-.5 0-.15.2-.35.4-.5.15-.05.2-.25.1-.4-.05-.15-.25-.2-.4-.1-.5.25-.75.65-.75 1 0 .4.25.75.75 1.05.3.15.45.35.45.5 0 .15-.2.35-.45.5-.15.05-.2.25-.1.4.05.1.15.15.25.15.05 0 .1 0 .15-.05.5-.25.75-.65.75-1 .05-.45-.2-.85-.7-1.05z" fill="gray"/></svg>