<svg fill="none" height="24" viewBox="0 0 24 24" width="24" xmlns="http://www.w3.org/2000/svg"><path d="M0 16V7.867c0-.934.133-1.867.267-2.8C.8 3.067 2 1.6 4 .667 5.067.267 6.133.133 7.333 0h8.8c.934 0 1.867.133 2.8.267 2 .533 3.467 1.733 4.4 3.6.4 1.066.534 2.133.667 3.333v8.933c0 .934-.133 1.867-.267 2.8-.533 2-1.733 3.467-3.6 4.4-1.066.4-2.133.534-3.333.667H7.867c-.934 0-1.867-.133-2.8-.267-2-.533-3.467-1.733-4.4-3.6C.267 19.067.133 18 0 16.8V16zm21.867-4V9.067c0-.934 0-1.867-.134-2.8-.133-.934-.4-1.734-1.066-2.4-.8-.934-2-1.334-3.2-1.467-1.467-.133-2.8-.267-4.267-.267H8.933c-.933 0-1.866 0-2.8.134-.8.133-1.733.533-2.4 1.066-.933.934-1.333 2-1.466 3.2 0 1.467-.134 2.8-.134 4.267v4.267c0 .933 0 1.866.134 2.8.133.933.4 1.733 1.066 2.4.8.933 2 1.333 3.2 1.466 1.467 0 2.8.134 4.267.134h4.267c1.066 0 2.133 0 3.066-.267 1.734-.267 2.934-1.333 3.334-3.067.133-.533.266-1.2.266-1.733.134-1.6.134-3.2.134-4.8z"/><g clip-rule="evenodd" fill-rule="evenodd"><path d="M18.133 12c0 3.467-2.8 6.133-6.133 6.133S5.867 15.333 5.867 12c0-3.467 2.8-6.133 6.133-6.133 3.467 0 6.133 2.666 6.133 6.133zM12 16c2.133 0 4-1.733 4-4s-1.733-4-4-4c-2.133 0-4 1.733-4 4 0 2.133 1.733 4 4 4zM18.4 4.133c.8 0 1.467.667 1.467 1.467S19.2 7.067 18.4 7.067 16.933 6.4 16.933 5.6 17.6 4.133 18.4 4.133z"/></g></svg>